%TF.GenerationSoftware,KiCad,Pcbnew,9.0.5*%
%TF.CreationDate,2025-12-01T20:36:29-06:00*%
%TF.ProjectId,KPad,4b506164-2e6b-4696-9361-645f70636258,rev?*%
%TF.SameCoordinates,Original*%
%TF.FileFunction,Soldermask,Bot*%
%TF.FilePolarity,Negative*%
%FSLAX46Y46*%
G04 Gerber Fmt 4.6, Leading zero omitted, Abs format (unit mm)*
G04 Created by KiCad (PCBNEW 9.0.5) date 2025-12-01 20:36:29*
%MOMM*%
%LPD*%
G01*
G04 APERTURE LIST*
G04 Aperture macros list*
%AMRoundRect*
0 Rectangle with rounded corners*
0 $1 Rounding radius*
0 $2 $3 $4 $5 $6 $7 $8 $9 X,Y pos of 4 corners*
0 Add a 4 corners polygon primitive as box body*
4,1,4,$2,$3,$4,$5,$6,$7,$8,$9,$2,$3,0*
0 Add four circle primitives for the rounded corners*
1,1,$1+$1,$2,$3*
1,1,$1+$1,$4,$5*
1,1,$1+$1,$6,$7*
1,1,$1+$1,$8,$9*
0 Add four rect primitives between the rounded corners*
20,1,$1+$1,$2,$3,$4,$5,0*
20,1,$1+$1,$4,$5,$6,$7,0*
20,1,$1+$1,$6,$7,$8,$9,0*
20,1,$1+$1,$8,$9,$2,$3,0*%
%AMRotRect*
0 Rectangle, with rotation*
0 The origin of the aperture is its center*
0 $1 length*
0 $2 width*
0 $3 Rotation angle, in degrees counterclockwise*
0 Add horizontal line*
21,1,$1,$2,0,0,$3*%
G04 Aperture macros list end*
%ADD10RoundRect,0.250000X-0.550000X0.550000X-0.550000X-0.550000X0.550000X-0.550000X0.550000X0.550000X0*%
%ADD11C,1.600000*%
%ADD12C,1.700000*%
%ADD13C,4.000000*%
%ADD14C,2.200000*%
%ADD15R,2.000000X2.000000*%
%ADD16C,2.000000*%
%ADD17R,3.200000X2.000000*%
%ADD18R,1.700000X1.700000*%
%ADD19O,1.700000X1.700000*%
%ADD20C,1.524000*%
%ADD21R,1.600000X0.850000*%
%ADD22R,0.850000X1.600000*%
%ADD23RotRect,1.600000X0.850000X135.000000*%
%ADD24RotRect,1.600000X0.850000X225.000000*%
G04 APERTURE END LIST*
D10*
%TO.C,D22*%
X115500000Y-53327500D03*
D11*
X115500000Y-60947500D03*
%TD*%
D10*
%TO.C,D17*%
X133250000Y-53327500D03*
D11*
X133250000Y-60947500D03*
%TD*%
D12*
%TO.C,SW3*%
X85090000Y-80962500D03*
D13*
X90170000Y-80962500D03*
D12*
X95250000Y-80962500D03*
D14*
X92710000Y-75882500D03*
X86360000Y-78422500D03*
%TD*%
D12*
%TO.C,SW9*%
X123507500Y-80962500D03*
D13*
X128587500Y-80962500D03*
D12*
X133667500Y-80962500D03*
D14*
X131127500Y-75882500D03*
X124777500Y-78422500D03*
%TD*%
D15*
%TO.C,SW1*%
X66550000Y-37981000D03*
D16*
X66550000Y-42981000D03*
X66550000Y-40481000D03*
D17*
X74050000Y-34881000D03*
X74050000Y-46081000D03*
D16*
X81050000Y-42981000D03*
X81050000Y-37981000D03*
%TD*%
D12*
%TO.C,SW4*%
X104140000Y-80962500D03*
D13*
X109220000Y-80962500D03*
D12*
X114300000Y-80962500D03*
D14*
X111760000Y-75882500D03*
X105410000Y-78422500D03*
%TD*%
D10*
%TO.C,D18*%
X129700000Y-53327500D03*
D11*
X129700000Y-60947500D03*
%TD*%
D18*
%TO.C,J1*%
X89173750Y-32391250D03*
D19*
X91713750Y-32391250D03*
X94253750Y-32391250D03*
X96793750Y-32391250D03*
%TD*%
D12*
%TO.C,SW6*%
X94932500Y-100012500D03*
D13*
X100012500Y-100012500D03*
D12*
X105092500Y-100012500D03*
D14*
X102552500Y-94932500D03*
X96202500Y-97472500D03*
%TD*%
D20*
%TO.C,U1*%
X110260000Y-30000000D03*
X110260000Y-32540000D03*
X110260000Y-35080000D03*
X110260000Y-37620000D03*
X110260000Y-40160000D03*
X110260000Y-42700000D03*
X110260000Y-45240000D03*
X125500000Y-45240000D03*
X125500000Y-42700000D03*
X125500000Y-40160000D03*
X125500000Y-37620000D03*
X125500000Y-35080000D03*
X125500000Y-32540000D03*
X125500000Y-30000000D03*
%TD*%
D12*
%TO.C,SW8*%
X68738750Y-59531250D03*
D13*
X73818750Y-59531250D03*
D12*
X78898750Y-59531250D03*
D14*
X76358750Y-54451250D03*
X70008750Y-56991250D03*
%TD*%
D10*
%TO.C,D24*%
X108400000Y-53327500D03*
D11*
X108400000Y-60947500D03*
%TD*%
D12*
%TO.C,SW5*%
X75882500Y-100012500D03*
D13*
X80962500Y-100012500D03*
D12*
X86042500Y-100012500D03*
D14*
X83502500Y-94932500D03*
X77152500Y-97472500D03*
%TD*%
D10*
%TO.C,D19*%
X126150000Y-53327500D03*
D11*
X126150000Y-60947500D03*
%TD*%
D10*
%TO.C,D20*%
X122600000Y-53327500D03*
D11*
X122600000Y-60947500D03*
%TD*%
D12*
%TO.C,SW7*%
X113982500Y-100012500D03*
D13*
X119062500Y-100012500D03*
D12*
X124142500Y-100012500D03*
D14*
X121602500Y-94932500D03*
X115252500Y-97472500D03*
%TD*%
D10*
%TO.C,D23*%
X111950000Y-53327500D03*
D11*
X111950000Y-60947500D03*
%TD*%
D10*
%TO.C,D25*%
X104850000Y-53327500D03*
D11*
X104850000Y-60947500D03*
%TD*%
D10*
%TO.C,D21*%
X119050000Y-53327500D03*
D11*
X119050000Y-60947500D03*
%TD*%
D12*
%TO.C,SW2*%
X66040000Y-80962500D03*
D13*
X71120000Y-80962500D03*
D12*
X76200000Y-80962500D03*
D14*
X73660000Y-75882500D03*
X67310000Y-78422500D03*
%TD*%
D21*
%TO.C,D9*%
X109500000Y-112000000D03*
X109500000Y-113750000D03*
X106000000Y-113750000D03*
X106000000Y-112000000D03*
%TD*%
D22*
%TO.C,D4*%
X62875000Y-82750000D03*
X61125000Y-82750000D03*
X61125000Y-79250000D03*
X62875000Y-79250000D03*
%TD*%
%TO.C,D15*%
X137125000Y-46250000D03*
X138875000Y-46250000D03*
X138875000Y-49750000D03*
X137125000Y-49750000D03*
%TD*%
D21*
%TO.C,D7*%
X80500000Y-112000000D03*
X80500000Y-113750000D03*
X77000000Y-113750000D03*
X77000000Y-112000000D03*
%TD*%
D22*
%TO.C,D12*%
X137125000Y-96250000D03*
X138875000Y-96250000D03*
X138875000Y-99750000D03*
X137125000Y-99750000D03*
%TD*%
%TO.C,D2*%
X62875000Y-49750000D03*
X61125000Y-49750000D03*
X61125000Y-46250000D03*
X62875000Y-46250000D03*
%TD*%
%TO.C,D14*%
X137125000Y-62250000D03*
X138875000Y-62250000D03*
X138875000Y-65750000D03*
X137125000Y-65750000D03*
%TD*%
%TO.C,D3*%
X62875000Y-65750000D03*
X61125000Y-65750000D03*
X61125000Y-62250000D03*
X62875000Y-62250000D03*
%TD*%
%TO.C,D13*%
X137000000Y-79000000D03*
X138750000Y-79000000D03*
X138750000Y-82500000D03*
X137000000Y-82500000D03*
%TD*%
D21*
%TO.C,D8*%
X95750000Y-112125000D03*
X95750000Y-113875000D03*
X92250000Y-113875000D03*
X92250000Y-112125000D03*
%TD*%
D23*
%TO.C,D6*%
X67237437Y-110262563D03*
X66000000Y-111500000D03*
X63525127Y-109025127D03*
X64762564Y-107787690D03*
%TD*%
D24*
%TO.C,D11*%
X134618718Y-108143845D03*
X135856155Y-109381282D03*
X133381282Y-111856155D03*
X132143845Y-110618718D03*
%TD*%
D21*
%TO.C,D10*%
X123000000Y-112000000D03*
X123000000Y-113750000D03*
X119500000Y-113750000D03*
X119500000Y-112000000D03*
%TD*%
D22*
%TO.C,D1*%
X62875000Y-33750000D03*
X61125000Y-33750000D03*
X61125000Y-30250000D03*
X62875000Y-30250000D03*
%TD*%
%TO.C,D5*%
X62875000Y-99750000D03*
X61125000Y-99750000D03*
X61125000Y-96250000D03*
X62875000Y-96250000D03*
%TD*%
%TO.C,D16*%
X137625000Y-30250000D03*
X139375000Y-30250000D03*
X139375000Y-33750000D03*
X137625000Y-33750000D03*
%TD*%
M02*
