M48
; DRILL file {KiCad 9.0.5} date 2025-12-01T20:36:26-0600
; FORMAT={-:-/ absolute / metric / decimal}
; #@! TF.CreationDate,2025-12-01T20:36:26-06:00
; #@! TF.GenerationSoftware,Kicad,Pcbnew,9.0.5
; #@! TF.FileFunction,NonPlated,1,2,NPTH
FMAT,2
METRIC
; #@! TA.AperFunction,NonPlated,NPTH,ComponentDrill
T1C1.700
; #@! TA.AperFunction,NonPlated,NPTH,ComponentDrill
T2C4.000
%
G90
G05
T1
X66.04Y-80.962
X68.739Y-59.531
X75.882Y-100.012
X76.2Y-80.962
X78.899Y-59.531
X85.09Y-80.962
X86.042Y-100.012
X94.932Y-100.012
X95.25Y-80.962
X104.14Y-80.962
X105.093Y-100.012
X113.983Y-100.012
X114.3Y-80.962
X123.507Y-80.962
X124.142Y-100.012
X133.667Y-80.962
T2
X71.12Y-80.962
X73.819Y-59.531
X80.962Y-100.012
X90.17Y-80.962
X100.012Y-100.012
X109.22Y-80.962
X119.062Y-100.012
X128.588Y-80.962
M30
