%TF.GenerationSoftware,KiCad,Pcbnew,9.0.5*%
%TF.CreationDate,2025-11-29T17:42:32-06:00*%
%TF.ProjectId,KPad,4b506164-2e6b-4696-9361-645f70636258,rev?*%
%TF.SameCoordinates,Original*%
%TF.FileFunction,Copper,L2,Bot*%
%TF.FilePolarity,Positive*%
%FSLAX46Y46*%
G04 Gerber Fmt 4.6, Leading zero omitted, Abs format (unit mm)*
G04 Created by KiCad (PCBNEW 9.0.5) date 2025-11-29 17:42:32*
%MOMM*%
%LPD*%
G01*
G04 APERTURE LIST*
G04 Aperture macros list*
%AMRoundRect*
0 Rectangle with rounded corners*
0 $1 Rounding radius*
0 $2 $3 $4 $5 $6 $7 $8 $9 X,Y pos of 4 corners*
0 Add a 4 corners polygon primitive as box body*
4,1,4,$2,$3,$4,$5,$6,$7,$8,$9,$2,$3,0*
0 Add four circle primitives for the rounded corners*
1,1,$1+$1,$2,$3*
1,1,$1+$1,$4,$5*
1,1,$1+$1,$6,$7*
1,1,$1+$1,$8,$9*
0 Add four rect primitives between the rounded corners*
20,1,$1+$1,$2,$3,$4,$5,0*
20,1,$1+$1,$4,$5,$6,$7,0*
20,1,$1+$1,$6,$7,$8,$9,0*
20,1,$1+$1,$8,$9,$2,$3,0*%
%AMRotRect*
0 Rectangle, with rotation*
0 The origin of the aperture is its center*
0 $1 length*
0 $2 width*
0 $3 Rotation angle, in degrees counterclockwise*
0 Add horizontal line*
21,1,$1,$2,0,0,$3*%
G04 Aperture macros list end*
%TA.AperFunction,ComponentPad*%
%ADD10RoundRect,0.250000X-0.550000X0.550000X-0.550000X-0.550000X0.550000X-0.550000X0.550000X0.550000X0*%
%TD*%
%TA.AperFunction,ComponentPad*%
%ADD11C,1.600000*%
%TD*%
%TA.AperFunction,ComponentPad*%
%ADD12C,2.200000*%
%TD*%
%TA.AperFunction,ComponentPad*%
%ADD13R,2.000000X2.000000*%
%TD*%
%TA.AperFunction,ComponentPad*%
%ADD14C,2.000000*%
%TD*%
%TA.AperFunction,ComponentPad*%
%ADD15R,3.200000X2.000000*%
%TD*%
%TA.AperFunction,ComponentPad*%
%ADD16R,1.700000X1.700000*%
%TD*%
%TA.AperFunction,ComponentPad*%
%ADD17O,1.700000X1.700000*%
%TD*%
%TA.AperFunction,ComponentPad*%
%ADD18C,1.524000*%
%TD*%
%TA.AperFunction,SMDPad,CuDef*%
%ADD19R,1.600000X0.850000*%
%TD*%
%TA.AperFunction,SMDPad,CuDef*%
%ADD20R,0.850000X1.600000*%
%TD*%
%TA.AperFunction,SMDPad,CuDef*%
%ADD21RotRect,1.600000X0.850000X135.000000*%
%TD*%
%TA.AperFunction,SMDPad,CuDef*%
%ADD22RotRect,1.600000X0.850000X225.000000*%
%TD*%
%TA.AperFunction,ViaPad*%
%ADD23C,0.600000*%
%TD*%
%TA.AperFunction,Conductor*%
%ADD24C,0.200000*%
%TD*%
G04 APERTURE END LIST*
D10*
%TO.P,D22,1,K*%
%TO.N,Net-(D20-K)*%
X115500000Y-53327500D03*
D11*
%TO.P,D22,2,A*%
%TO.N,Net-(D22-A)*%
X115500000Y-60947500D03*
%TD*%
D10*
%TO.P,D17,1,K*%
%TO.N,Net-(D17-K)*%
X133250000Y-53327500D03*
D11*
%TO.P,D17,2,A*%
%TO.N,Net-(D17-A)*%
X133250000Y-60947500D03*
%TD*%
D12*
%TO.P,SW3,1,1*%
%TO.N,Net-(U1-GPIO27{slash}ADC1{slash}A1)*%
X92710000Y-75882500D03*
%TO.P,SW3,2,2*%
%TO.N,Net-(D18-A)*%
X86360000Y-78422500D03*
%TD*%
%TO.P,SW9,1,1*%
%TO.N,Net-(U1-GPIO27{slash}ADC1{slash}A1)*%
X131127500Y-75882500D03*
%TO.P,SW9,2,2*%
%TO.N,Net-(D24-A)*%
X124777500Y-78422500D03*
%TD*%
D13*
%TO.P,SW1,A,A*%
%TO.N,Net-(U1-GPIO4{slash}MISO)*%
X66550000Y-37981000D03*
D14*
%TO.P,SW1,B,B*%
%TO.N,Net-(U1-GPIO2{slash}SCK)*%
X66550000Y-42981000D03*
%TO.P,SW1,C,C*%
%TO.N,GND*%
X66550000Y-40481000D03*
D15*
%TO.P,SW1,MP*%
%TO.N,N/C*%
X74050000Y-34881000D03*
X74050000Y-46081000D03*
D14*
%TO.P,SW1,S1,S1*%
%TO.N,Net-(U1-GPIO28{slash}ADC2{slash}A2)*%
X81050000Y-42981000D03*
%TO.P,SW1,S2,S2*%
%TO.N,Net-(D25-A)*%
X81050000Y-37981000D03*
%TD*%
D12*
%TO.P,SW4,1,1*%
%TO.N,Net-(U1-GPIO28{slash}ADC2{slash}A2)*%
X111760000Y-75882500D03*
%TO.P,SW4,2,2*%
%TO.N,Net-(D19-A)*%
X105410000Y-78422500D03*
%TD*%
D10*
%TO.P,D18,1,K*%
%TO.N,Net-(D17-K)*%
X129700000Y-53327500D03*
D11*
%TO.P,D18,2,A*%
%TO.N,Net-(D18-A)*%
X129700000Y-60947500D03*
%TD*%
D16*
%TO.P,J1,1,Pin_1*%
%TO.N,GND*%
X89173750Y-32391250D03*
D17*
%TO.P,J1,2,Pin_2*%
%TO.N,+5V*%
X91713750Y-32391250D03*
%TO.P,J1,3,Pin_3*%
%TO.N,Net-(J1-Pin_3)*%
X94253750Y-32391250D03*
%TO.P,J1,4,Pin_4*%
%TO.N,Net-(J1-Pin_4)*%
X96793750Y-32391250D03*
%TD*%
D12*
%TO.P,SW6,1,1*%
%TO.N,Net-(U1-GPIO27{slash}ADC1{slash}A1)*%
X102552500Y-94932500D03*
%TO.P,SW6,2,2*%
%TO.N,Net-(D21-A)*%
X96202500Y-97472500D03*
%TD*%
D18*
%TO.P,U1,1,GPIO26/ADC0/A0*%
%TO.N,Net-(U1-GPIO26{slash}ADC0{slash}A0)*%
X110260000Y-30000000D03*
%TO.P,U1,2,GPIO27/ADC1/A1*%
%TO.N,Net-(U1-GPIO27{slash}ADC1{slash}A1)*%
X110260000Y-32540000D03*
%TO.P,U1,3,GPIO28/ADC2/A2*%
%TO.N,Net-(U1-GPIO28{slash}ADC2{slash}A2)*%
X110260000Y-35080000D03*
%TO.P,U1,4,GPIO29/ADC3/A3*%
%TO.N,Net-(D17-K)*%
X110260000Y-37620000D03*
%TO.P,U1,5,GPIO6/SDA*%
%TO.N,Net-(J1-Pin_4)*%
X110260000Y-40160000D03*
%TO.P,U1,6,GPIO7/SCL*%
%TO.N,Net-(J1-Pin_3)*%
X110260000Y-42700000D03*
%TO.P,U1,7,GPIO0/TX*%
%TO.N,Net-(D20-K)*%
X110260000Y-45240000D03*
%TO.P,U1,8,GPIO1/RX*%
%TO.N,Net-(D23-K)*%
X125500000Y-45240000D03*
%TO.P,U1,9,GPIO2/SCK*%
%TO.N,Net-(U1-GPIO2{slash}SCK)*%
X125500000Y-42700000D03*
%TO.P,U1,10,GPIO4/MISO*%
%TO.N,Net-(U1-GPIO4{slash}MISO)*%
X125500000Y-40160000D03*
%TO.P,U1,11,GPIO3/MOSI*%
%TO.N,Net-(D1-DIN)*%
X125500000Y-37620000D03*
%TO.P,U1,12,3V3*%
%TO.N,unconnected-(U1-3V3-Pad12)_1*%
X125500000Y-35080000D03*
%TO.P,U1,13,GND*%
%TO.N,GND*%
X125500000Y-32540000D03*
%TO.P,U1,14,VBUS*%
%TO.N,+5V*%
X125500000Y-30000000D03*
%TD*%
D12*
%TO.P,SW8,1,1*%
%TO.N,Net-(U1-GPIO26{slash}ADC0{slash}A0)*%
X76358750Y-54451250D03*
%TO.P,SW8,2,2*%
%TO.N,Net-(D23-A)*%
X70008750Y-56991250D03*
%TD*%
D10*
%TO.P,D24,1,K*%
%TO.N,Net-(D23-K)*%
X108400000Y-53327500D03*
D11*
%TO.P,D24,2,A*%
%TO.N,Net-(D24-A)*%
X108400000Y-60947500D03*
%TD*%
D12*
%TO.P,SW5,1,1*%
%TO.N,Net-(U1-GPIO26{slash}ADC0{slash}A0)*%
X83502500Y-94932500D03*
%TO.P,SW5,2,2*%
%TO.N,Net-(D20-A)*%
X77152500Y-97472500D03*
%TD*%
D10*
%TO.P,D19,1,K*%
%TO.N,Net-(D17-K)*%
X126150000Y-53327500D03*
D11*
%TO.P,D19,2,A*%
%TO.N,Net-(D19-A)*%
X126150000Y-60947500D03*
%TD*%
D10*
%TO.P,D20,1,K*%
%TO.N,Net-(D20-K)*%
X122600000Y-53327500D03*
D11*
%TO.P,D20,2,A*%
%TO.N,Net-(D20-A)*%
X122600000Y-60947500D03*
%TD*%
D12*
%TO.P,SW7,1,1*%
%TO.N,Net-(U1-GPIO28{slash}ADC2{slash}A2)*%
X121602500Y-94932500D03*
%TO.P,SW7,2,2*%
%TO.N,Net-(D22-A)*%
X115252500Y-97472500D03*
%TD*%
D10*
%TO.P,D23,1,K*%
%TO.N,Net-(D23-K)*%
X111950000Y-53327500D03*
D11*
%TO.P,D23,2,A*%
%TO.N,Net-(D23-A)*%
X111950000Y-60947500D03*
%TD*%
D10*
%TO.P,D25,1,K*%
%TO.N,Net-(D23-K)*%
X104850000Y-53327500D03*
D11*
%TO.P,D25,2,A*%
%TO.N,Net-(D25-A)*%
X104850000Y-60947500D03*
%TD*%
D10*
%TO.P,D21,1,K*%
%TO.N,Net-(D20-K)*%
X119050000Y-53327500D03*
D11*
%TO.P,D21,2,A*%
%TO.N,Net-(D21-A)*%
X119050000Y-60947500D03*
%TD*%
D12*
%TO.P,SW2,1,1*%
%TO.N,Net-(U1-GPIO26{slash}ADC0{slash}A0)*%
X73660000Y-75882500D03*
%TO.P,SW2,2,2*%
%TO.N,Net-(D17-A)*%
X67310000Y-78422500D03*
%TD*%
D19*
%TO.P,D9,1,DOUT*%
%TO.N,Net-(D10-DIN)*%
X109500000Y-112000000D03*
%TO.P,D9,2,VSS*%
%TO.N,GND*%
X109500000Y-113750000D03*
%TO.P,D9,3,DIN*%
%TO.N,Net-(D8-DOUT)*%
X106000000Y-113750000D03*
%TO.P,D9,4,VDD*%
%TO.N,+5V*%
X106000000Y-112000000D03*
%TD*%
D20*
%TO.P,D4,1,DOUT*%
%TO.N,Net-(D4-DOUT)*%
X62875000Y-82750000D03*
%TO.P,D4,2,VSS*%
%TO.N,GND*%
X61125000Y-82750000D03*
%TO.P,D4,3,DIN*%
%TO.N,Net-(D3-DOUT)*%
X61125000Y-79250000D03*
%TO.P,D4,4,VDD*%
%TO.N,+5V*%
X62875000Y-79250000D03*
%TD*%
%TO.P,D15,1,DOUT*%
%TO.N,Net-(D15-DOUT)*%
X137125000Y-46250000D03*
%TO.P,D15,2,VSS*%
%TO.N,GND*%
X138875000Y-46250000D03*
%TO.P,D15,3,DIN*%
%TO.N,Net-(D14-DOUT)*%
X138875000Y-49750000D03*
%TO.P,D15,4,VDD*%
%TO.N,+5V*%
X137125000Y-49750000D03*
%TD*%
D19*
%TO.P,D7,1,DOUT*%
%TO.N,Net-(D7-DOUT)*%
X80500000Y-112000000D03*
%TO.P,D7,2,VSS*%
%TO.N,GND*%
X80500000Y-113750000D03*
%TO.P,D7,3,DIN*%
%TO.N,Net-(D6-DOUT)*%
X77000000Y-113750000D03*
%TO.P,D7,4,VDD*%
%TO.N,+5V*%
X77000000Y-112000000D03*
%TD*%
D20*
%TO.P,D12,1,DOUT*%
%TO.N,Net-(D12-DOUT)*%
X137125000Y-96250000D03*
%TO.P,D12,2,VSS*%
%TO.N,GND*%
X138875000Y-96250000D03*
%TO.P,D12,3,DIN*%
%TO.N,Net-(D11-DOUT)*%
X138875000Y-99750000D03*
%TO.P,D12,4,VDD*%
%TO.N,+5V*%
X137125000Y-99750000D03*
%TD*%
%TO.P,D2,1,DOUT*%
%TO.N,Net-(D2-DOUT)*%
X62875000Y-49750000D03*
%TO.P,D2,2,VSS*%
%TO.N,GND*%
X61125000Y-49750000D03*
%TO.P,D2,3,DIN*%
%TO.N,Net-(D1-DOUT)*%
X61125000Y-46250000D03*
%TO.P,D2,4,VDD*%
%TO.N,+5V*%
X62875000Y-46250000D03*
%TD*%
%TO.P,D14,1,DOUT*%
%TO.N,Net-(D14-DOUT)*%
X137125000Y-62250000D03*
%TO.P,D14,2,VSS*%
%TO.N,GND*%
X138875000Y-62250000D03*
%TO.P,D14,3,DIN*%
%TO.N,Net-(D13-DOUT)*%
X138875000Y-65750000D03*
%TO.P,D14,4,VDD*%
%TO.N,+5V*%
X137125000Y-65750000D03*
%TD*%
%TO.P,D3,1,DOUT*%
%TO.N,Net-(D3-DOUT)*%
X62875000Y-65750000D03*
%TO.P,D3,2,VSS*%
%TO.N,GND*%
X61125000Y-65750000D03*
%TO.P,D3,3,DIN*%
%TO.N,Net-(D2-DOUT)*%
X61125000Y-62250000D03*
%TO.P,D3,4,VDD*%
%TO.N,+5V*%
X62875000Y-62250000D03*
%TD*%
%TO.P,D13,1,DOUT*%
%TO.N,Net-(D13-DOUT)*%
X137000000Y-79000000D03*
%TO.P,D13,2,VSS*%
%TO.N,GND*%
X138750000Y-79000000D03*
%TO.P,D13,3,DIN*%
%TO.N,Net-(D12-DOUT)*%
X138750000Y-82500000D03*
%TO.P,D13,4,VDD*%
%TO.N,+5V*%
X137000000Y-82500000D03*
%TD*%
D19*
%TO.P,D8,1,DOUT*%
%TO.N,Net-(D8-DOUT)*%
X95750000Y-112125000D03*
%TO.P,D8,2,VSS*%
%TO.N,GND*%
X95750000Y-113875000D03*
%TO.P,D8,3,DIN*%
%TO.N,Net-(D7-DOUT)*%
X92250000Y-113875000D03*
%TO.P,D8,4,VDD*%
%TO.N,+5V*%
X92250000Y-112125000D03*
%TD*%
D21*
%TO.P,D6,1,DOUT*%
%TO.N,Net-(D6-DOUT)*%
X67237437Y-110262563D03*
%TO.P,D6,2,VSS*%
%TO.N,GND*%
X66000000Y-111500000D03*
%TO.P,D6,3,DIN*%
%TO.N,Net-(D5-DOUT)*%
X63525127Y-109025127D03*
%TO.P,D6,4,VDD*%
%TO.N,+5V*%
X64762564Y-107787690D03*
%TD*%
D22*
%TO.P,D11,1,DOUT*%
%TO.N,Net-(D11-DOUT)*%
X134618718Y-108143845D03*
%TO.P,D11,2,VSS*%
%TO.N,GND*%
X135856155Y-109381282D03*
%TO.P,D11,3,DIN*%
%TO.N,Net-(D10-DOUT)*%
X133381282Y-111856155D03*
%TO.P,D11,4,VDD*%
%TO.N,+5V*%
X132143845Y-110618718D03*
%TD*%
D19*
%TO.P,D10,1,DOUT*%
%TO.N,Net-(D10-DOUT)*%
X123000000Y-112000000D03*
%TO.P,D10,2,VSS*%
%TO.N,GND*%
X123000000Y-113750000D03*
%TO.P,D10,3,DIN*%
%TO.N,Net-(D10-DIN)*%
X119500000Y-113750000D03*
%TO.P,D10,4,VDD*%
%TO.N,+5V*%
X119500000Y-112000000D03*
%TD*%
D20*
%TO.P,D1,1,DOUT*%
%TO.N,Net-(D1-DOUT)*%
X62875000Y-33750000D03*
%TO.P,D1,2,VSS*%
%TO.N,GND*%
X61125000Y-33750000D03*
%TO.P,D1,3,DIN*%
%TO.N,Net-(D1-DIN)*%
X61125000Y-30250000D03*
%TO.P,D1,4,VDD*%
%TO.N,+5V*%
X62875000Y-30250000D03*
%TD*%
%TO.P,D5,1,DOUT*%
%TO.N,Net-(D5-DOUT)*%
X62875000Y-99750000D03*
%TO.P,D5,2,VSS*%
%TO.N,GND*%
X61125000Y-99750000D03*
%TO.P,D5,3,DIN*%
%TO.N,Net-(D4-DOUT)*%
X61125000Y-96250000D03*
%TO.P,D5,4,VDD*%
%TO.N,+5V*%
X62875000Y-96250000D03*
%TD*%
%TO.P,D16,1,DOUT*%
%TO.N,unconnected-(D16-DOUT-Pad1)*%
X137625000Y-30250000D03*
%TO.P,D16,2,VSS*%
%TO.N,GND*%
X139375000Y-30250000D03*
%TO.P,D16,3,DIN*%
%TO.N,Net-(D15-DOUT)*%
X139375000Y-33750000D03*
%TO.P,D16,4,VDD*%
%TO.N,+5V*%
X137625000Y-33750000D03*
%TD*%
D23*
%TO.N,GND*%
X94000000Y-28400000D03*
X60500000Y-40500000D03*
%TO.N,Net-(D17-K)*%
X114900000Y-47500000D03*
%TO.N,Net-(D20-K)*%
X114000000Y-49000000D03*
%TO.N,Net-(U1-GPIO4{slash}MISO)*%
X119900000Y-39500000D03*
X105500000Y-45000000D03*
X119500000Y-42000000D03*
%TO.N,Net-(U1-GPIO2{slash}SCK)*%
X104500000Y-32000000D03*
X117000000Y-35500000D03*
%TO.N,Net-(U1-GPIO27{slash}ADC1{slash}A1)*%
X107500000Y-48500000D03*
X93500000Y-52500000D03*
X105500000Y-49500000D03*
%TD*%
D24*
%TO.N,+5V*%
X136750000Y-99750000D02*
X135000000Y-101500000D01*
X62875000Y-96250000D02*
X62875000Y-95625000D01*
X132143845Y-110618718D02*
X130618718Y-110618718D01*
X90500000Y-110000000D02*
X74500000Y-110000000D01*
X118500000Y-112000000D02*
X116500000Y-110000000D01*
X137125000Y-49875000D02*
X136000000Y-51000000D01*
X132500000Y-50000000D02*
X132500000Y-36000000D01*
X65000000Y-45500000D02*
X63000000Y-43500000D01*
X115500000Y-50500000D02*
X115500000Y-38000000D01*
X65000000Y-93500000D02*
X64250000Y-92750000D01*
X136000000Y-51000000D02*
X136000000Y-61000000D01*
X116500000Y-110000000D02*
X103500000Y-110000000D01*
X76500000Y-112000000D02*
X74500000Y-110000000D01*
X137125000Y-65750000D02*
X137125000Y-66375000D01*
X65000000Y-76500000D02*
X65000000Y-60500000D01*
X135000000Y-85000000D02*
X135000000Y-101500000D01*
X103500000Y-110000000D02*
X103000000Y-110000000D01*
X92500000Y-30000000D02*
X98500000Y-30000000D01*
X91713750Y-32391250D02*
X91891250Y-32391250D01*
X64762564Y-106237436D02*
X65000000Y-106000000D01*
X64625000Y-60500000D02*
X65000000Y-60500000D01*
X135000000Y-68500000D02*
X135000000Y-85000000D01*
X64250000Y-77250000D02*
X65000000Y-76500000D01*
X62875000Y-62250000D02*
X64625000Y-60500000D01*
X107500000Y-50500000D02*
X115500000Y-50500000D01*
X137000000Y-82500000D02*
X137000000Y-83000000D01*
X62875000Y-78625000D02*
X64250000Y-77250000D01*
X67250000Y-30250000D02*
X62875000Y-30250000D01*
X132500000Y-36000000D02*
X134750000Y-33750000D01*
X68000000Y-31000000D02*
X83000000Y-31000000D01*
X65000000Y-106000000D02*
X65000000Y-93500000D01*
X137125000Y-99750000D02*
X136750000Y-99750000D01*
X74500000Y-110000000D02*
X69000000Y-110000000D01*
X83000000Y-31000000D02*
X84000000Y-30000000D01*
X65000000Y-60500000D02*
X65000000Y-45500000D01*
X63000000Y-36500000D02*
X68000000Y-31500000D01*
X106000000Y-112000000D02*
X105000000Y-112000000D01*
X115500000Y-38000000D02*
X123500000Y-30000000D01*
X77000000Y-112000000D02*
X76500000Y-112000000D01*
X136000000Y-61000000D02*
X135000000Y-62000000D01*
X130618718Y-110618718D02*
X130000000Y-110000000D01*
X91713750Y-32391250D02*
X91713750Y-30786250D01*
X92250001Y-111750001D02*
X90500000Y-110000000D01*
X69000000Y-110000000D02*
X65000000Y-106000000D01*
X127000000Y-50500000D02*
X129500000Y-50500000D01*
X64250000Y-46250000D02*
X65000000Y-45500000D01*
X62875000Y-46250000D02*
X64250000Y-46250000D01*
X92250001Y-112125000D02*
X92250001Y-111750001D01*
X135000000Y-84500000D02*
X135000000Y-85000000D01*
X68000000Y-31000000D02*
X67250000Y-30250000D01*
X137125000Y-99750000D02*
X137125000Y-99875000D01*
X64762564Y-107787690D02*
X64762564Y-106237436D01*
X135000000Y-101500000D02*
X135000000Y-102000000D01*
X137125000Y-66375000D02*
X135000000Y-68500000D01*
X130000000Y-50000000D02*
X132500000Y-50000000D01*
X91713750Y-30786250D02*
X92500000Y-30000000D01*
X135000000Y-62000000D02*
X135000000Y-65000000D01*
X98500000Y-30000000D02*
X106500000Y-38000000D01*
X62875000Y-95625000D02*
X65000000Y-93500000D01*
X105000000Y-112000000D02*
X103000000Y-110000000D01*
X130000000Y-110000000D02*
X121500000Y-110000000D01*
X84000000Y-30000000D02*
X92500000Y-30000000D01*
X134750000Y-33750000D02*
X137625000Y-33750000D01*
X62875000Y-79250000D02*
X62875000Y-78625000D01*
X135000000Y-50000000D02*
X136000000Y-51000000D01*
X63000000Y-43500000D02*
X63000000Y-36500000D01*
X132500000Y-50000000D02*
X135000000Y-50000000D01*
X115500000Y-50500000D02*
X127000000Y-50500000D01*
X135000000Y-102000000D02*
X135000000Y-105000000D01*
X91891250Y-32391250D02*
X92000000Y-32500000D01*
X103000000Y-110000000D02*
X90500000Y-110000000D01*
X123500000Y-30000000D02*
X125500000Y-30000000D01*
X121500000Y-110000000D02*
X116500000Y-110000000D01*
X64250000Y-92750000D02*
X64250000Y-77250000D01*
X137000000Y-82500000D02*
X135000000Y-84500000D01*
X129500000Y-50500000D02*
X130000000Y-50000000D01*
X119500000Y-112000000D02*
X118500000Y-112000000D01*
X68000000Y-31500000D02*
X68000000Y-31000000D01*
X135000000Y-65000000D02*
X135000000Y-68500000D01*
X106500000Y-38000000D02*
X106500000Y-49500000D01*
X137125000Y-49750000D02*
X137125000Y-49875000D01*
X106500000Y-49500000D02*
X107500000Y-50500000D01*
X135000000Y-105000000D02*
X130000000Y-110000000D01*
%TO.N,Net-(D1-DOUT)*%
X62875000Y-33750000D02*
X62500000Y-34125000D01*
X62500000Y-34125000D02*
X62500000Y-40000000D01*
X62500000Y-40000000D02*
X61125000Y-41375000D01*
X61125000Y-41375000D02*
X61125000Y-46250000D01*
%TO.N,Net-(D1-DIN)*%
X62000000Y-28002000D02*
X65627000Y-28002000D01*
X61125000Y-30250000D02*
X61125000Y-28877000D01*
X106501000Y-29001000D02*
X107002000Y-28500000D01*
X107002000Y-28500000D02*
X128000000Y-28500000D01*
X61125000Y-28877000D02*
X62000000Y-28002000D01*
X127152500Y-37620000D02*
X125500000Y-37620000D01*
X65627000Y-28002000D02*
X66626000Y-29001000D01*
X66626000Y-29001000D02*
X106501000Y-29001000D01*
X129500000Y-30000000D02*
X129500000Y-35272500D01*
X129500000Y-35272500D02*
X127152500Y-37620000D01*
X128000000Y-28500000D02*
X129500000Y-30000000D01*
%TO.N,GND*%
X61125000Y-67976000D02*
X59601000Y-69500000D01*
X140399000Y-45500000D02*
X140399000Y-60000000D01*
X120500000Y-48500000D02*
X120500000Y-36500000D01*
X59601000Y-34500000D02*
X59601000Y-28399000D01*
X138875000Y-96250000D02*
X139649000Y-96250000D01*
X139375000Y-29024000D02*
X140399000Y-28000000D01*
X140399000Y-60000000D02*
X140399000Y-77351000D01*
X124040000Y-34000000D02*
X125500000Y-32540000D01*
X126601000Y-115399000D02*
X111149000Y-115399000D01*
X60301355Y-103301355D02*
X59601000Y-102601000D01*
X80500000Y-114399000D02*
X79500000Y-115399000D01*
X123000000Y-34000000D02*
X124040000Y-34000000D01*
X66000000Y-111500000D02*
X66000000Y-113500000D01*
X111149000Y-115399000D02*
X97500000Y-115399000D01*
X129000000Y-38000000D02*
X129000000Y-49000000D01*
X124952000Y-113750000D02*
X126601000Y-115399000D01*
X89173750Y-32391250D02*
X89108750Y-32391250D01*
X61125000Y-101077000D02*
X59601000Y-102601000D01*
X60500000Y-40500000D02*
X60500000Y-39399000D01*
X60301355Y-107894551D02*
X60301355Y-103301355D01*
X133560137Y-114439863D02*
X128560137Y-114439863D01*
X140399000Y-77351000D02*
X140399000Y-95500000D01*
X61125000Y-33750000D02*
X60351000Y-33750000D01*
X97500000Y-115399000D02*
X79500000Y-115399000D01*
X138875000Y-61524000D02*
X140399000Y-60000000D01*
X120500000Y-36500000D02*
X123000000Y-34000000D01*
X59601000Y-102601000D02*
X59601000Y-85500000D01*
X139000000Y-109000000D02*
X133560137Y-114439863D01*
X66500000Y-114000000D02*
X66406804Y-114000000D01*
X59601000Y-69500000D02*
X59601000Y-50500000D01*
X139375000Y-30250000D02*
X139375000Y-29024000D01*
X66406804Y-114000000D02*
X60301355Y-107894551D01*
X129000000Y-49000000D02*
X121000000Y-49000000D01*
X70000000Y-114000000D02*
X66500000Y-114000000D01*
X140399000Y-95500000D02*
X140399000Y-103000000D01*
X59601000Y-38500000D02*
X59601000Y-34500000D01*
X61125000Y-82750000D02*
X61125000Y-83976000D01*
X94000000Y-28400000D02*
X94799000Y-27601000D01*
X59601000Y-50500000D02*
X59601000Y-38500000D01*
X138618718Y-109381282D02*
X139000000Y-109000000D01*
X138875000Y-62250000D02*
X138875000Y-61524000D01*
X128560137Y-114439863D02*
X128000000Y-115000000D01*
X139000000Y-104399000D02*
X139000000Y-109000000D01*
X128000000Y-115000000D02*
X127000000Y-115000000D01*
X138875000Y-62250000D02*
X139149000Y-62250000D01*
X94799000Y-27601000D02*
X129551500Y-27601000D01*
X139649000Y-46250000D02*
X140399000Y-45500000D01*
X140399000Y-28000000D02*
X140000000Y-27601000D01*
X127000000Y-115000000D02*
X126601000Y-115399000D01*
X129551500Y-29051500D02*
X130500000Y-30000000D01*
X60399000Y-27601000D02*
X94799000Y-27601000D01*
X60351000Y-49750000D02*
X59601000Y-50500000D01*
X140399000Y-103000000D02*
X139000000Y-104399000D01*
X95976000Y-113875000D02*
X97500000Y-115399000D01*
X59601000Y-85500000D02*
X59601000Y-69500000D01*
X135856155Y-109381282D02*
X138618718Y-109381282D01*
X80500000Y-113750000D02*
X80500000Y-114399000D01*
X95749999Y-113875000D02*
X95976000Y-113875000D01*
X60500000Y-39399000D02*
X59601000Y-38500000D01*
X138875000Y-46250000D02*
X139649000Y-46250000D01*
X66000000Y-113500000D02*
X66500000Y-114000000D01*
X109500000Y-113750000D02*
X111149000Y-115399000D01*
X139649000Y-96250000D02*
X140399000Y-95500000D01*
X60351000Y-33750000D02*
X59601000Y-34500000D01*
X89108750Y-32391250D02*
X89000000Y-32500000D01*
X129551500Y-27601000D02*
X129551500Y-29051500D01*
X138750000Y-79000000D02*
X140399000Y-77351000D01*
X140399000Y-45500000D02*
X140399000Y-28000000D01*
X61125000Y-83976000D02*
X59601000Y-85500000D01*
X79500000Y-115399000D02*
X71399000Y-115399000D01*
X71399000Y-115399000D02*
X70000000Y-114000000D01*
X61125000Y-49750000D02*
X60351000Y-49750000D01*
X61125000Y-99750000D02*
X61125000Y-101077000D01*
X121000000Y-49000000D02*
X120500000Y-48500000D01*
X140000000Y-27601000D02*
X129551500Y-27601000D01*
X123000000Y-113750000D02*
X124952000Y-113750000D01*
X130500000Y-36500000D02*
X129000000Y-38000000D01*
X130500000Y-30000000D02*
X130500000Y-36500000D01*
X59601000Y-28399000D02*
X60399000Y-27601000D01*
X61125000Y-65750000D02*
X61125000Y-67976000D01*
%TO.N,Net-(D2-DOUT)*%
X62875000Y-56125000D02*
X61125000Y-57875000D01*
X62875000Y-49750000D02*
X62875000Y-56125000D01*
X61125000Y-57875000D02*
X61125000Y-62250000D01*
%TO.N,Net-(D3-DOUT)*%
X62875000Y-72125000D02*
X61125000Y-73875000D01*
X61125000Y-73875000D02*
X61125000Y-79250000D01*
X62875000Y-65750000D02*
X62875000Y-72125000D01*
%TO.N,Net-(D4-DOUT)*%
X62875000Y-82750000D02*
X62875000Y-89625000D01*
X61125000Y-91375000D02*
X61125000Y-96250000D01*
X62875000Y-89625000D02*
X61125000Y-91375000D01*
%TO.N,Net-(D5-DOUT)*%
X62875000Y-102125000D02*
X61000000Y-104000000D01*
X62875000Y-99750000D02*
X62875000Y-102125000D01*
X61000000Y-104000000D02*
X61000000Y-106500000D01*
X61000000Y-106500000D02*
X63525127Y-109025127D01*
%TO.N,Net-(D6-DOUT)*%
X67237437Y-110262563D02*
X70724874Y-113750000D01*
X70724874Y-113750000D02*
X77000000Y-113750000D01*
%TO.N,Net-(D7-DOUT)*%
X84500000Y-112000000D02*
X86375000Y-113875000D01*
X80500000Y-112000000D02*
X84500000Y-112000000D01*
X86375000Y-113875000D02*
X92250001Y-113875000D01*
%TO.N,Net-(D10-DOUT)*%
X127000000Y-112000000D02*
X129000000Y-114000000D01*
X123212310Y-112212310D02*
X123000000Y-112000000D01*
X131237437Y-114000000D02*
X133381282Y-111856155D01*
X129000000Y-114000000D02*
X131237437Y-114000000D01*
X123000000Y-112000000D02*
X127000000Y-112000000D01*
%TO.N,Net-(D10-DIN)*%
X109500000Y-112000000D02*
X113500000Y-112000000D01*
X113500000Y-112000000D02*
X115250000Y-113750000D01*
X115250000Y-113750000D02*
X119500000Y-113750000D01*
%TO.N,Net-(D17-K)*%
X114900000Y-42260000D02*
X110260000Y-37620000D01*
X114900000Y-47500000D02*
X114900000Y-42260000D01*
%TO.N,Net-(D17-A)*%
X133250000Y-64317100D02*
X109166100Y-88401000D01*
X75233684Y-88401000D02*
X67310000Y-80477316D01*
X109166100Y-88401000D02*
X75233684Y-88401000D01*
X67310000Y-80477316D02*
X67310000Y-78422500D01*
X133250000Y-60947500D02*
X133250000Y-64317100D01*
%TO.N,Net-(D18-A)*%
X109000000Y-88000000D02*
X93882684Y-88000000D01*
X93882684Y-88000000D02*
X86360000Y-80477316D01*
X129700000Y-67300000D02*
X109000000Y-88000000D01*
X129700000Y-60947500D02*
X129700000Y-67300000D01*
X86360000Y-80477316D02*
X86360000Y-78422500D01*
%TO.N,Net-(D19-A)*%
X112000000Y-68000000D02*
X104000000Y-76000000D01*
X104000000Y-77012500D02*
X105410000Y-78422500D01*
X104000000Y-76000000D02*
X104000000Y-77012500D01*
X119097500Y-68000000D02*
X112000000Y-68000000D01*
X126150000Y-60947500D02*
X119097500Y-68000000D01*
%TO.N,Net-(D20-K)*%
X114000000Y-48980000D02*
X110260000Y-45240000D01*
X114000000Y-49000000D02*
X114000000Y-48980000D01*
%TO.N,Net-(D23-A)*%
X111950000Y-60947500D02*
X107993750Y-56991250D01*
X107993750Y-56991250D02*
X70008750Y-56991250D01*
%TO.N,Net-(U1-GPIO4{slash}MISO)*%
X80500000Y-31500000D02*
X69500000Y-31500000D01*
X66568750Y-34431250D02*
X66568750Y-37981250D01*
X101000000Y-38000000D02*
X88000000Y-38000000D01*
X119500000Y-42000000D02*
X119900000Y-41600000D01*
X87500000Y-38500000D02*
X80500000Y-31500000D01*
X69500000Y-31500000D02*
X66568750Y-34431250D01*
X101000000Y-40500000D02*
X105500000Y-45000000D01*
X88000000Y-38000000D02*
X87500000Y-38500000D01*
X101000000Y-38000000D02*
X101000000Y-40500000D01*
X119900000Y-41600000D02*
X119900000Y-39500000D01*
%TO.N,Net-(U1-GPIO2{slash}SCK)*%
X117151470Y-35500000D02*
X117000000Y-35500000D01*
X104500000Y-32000000D02*
X105023000Y-31477000D01*
X112977000Y-31477000D02*
X117000000Y-35500000D01*
X105023000Y-31477000D02*
X112977000Y-31477000D01*
%TO.N,Net-(U1-GPIO27{slash}ADC1{slash}A1)*%
X96500000Y-49500000D02*
X105500000Y-49500000D01*
X107500000Y-48500000D02*
X107500000Y-35300000D01*
X107500000Y-35300000D02*
X110260000Y-32540000D01*
X93500000Y-52500000D02*
X96500000Y-49500000D01*
%TO.N,Net-(D8-DOUT)*%
X95749999Y-112125000D02*
X99125000Y-112125000D01*
X99125000Y-112125000D02*
X100750000Y-113750000D01*
X100750000Y-113750000D02*
X106000000Y-113750000D01*
%TO.N,Net-(D11-DOUT)*%
X134618718Y-108143845D02*
X138875000Y-103887563D01*
X138875000Y-103887563D02*
X138875000Y-99750000D01*
%TO.N,Net-(D12-DOUT)*%
X137125000Y-96250000D02*
X137125000Y-91875000D01*
X137125000Y-91875000D02*
X138750000Y-90250000D01*
X138750000Y-90250000D02*
X138750000Y-82500000D01*
%TO.N,Net-(D13-DOUT)*%
X137000000Y-79000000D02*
X137000000Y-73000000D01*
X138875000Y-71125000D02*
X138875000Y-65750000D01*
X137000000Y-73000000D02*
X138875000Y-71125000D01*
%TO.N,Net-(D14-DOUT)*%
X137125000Y-62250000D02*
X137125000Y-56875000D01*
X138875000Y-55125000D02*
X138875000Y-49750000D01*
X137125000Y-56875000D02*
X138875000Y-55125000D01*
%TO.N,Net-(D15-DOUT)*%
X139375000Y-38125000D02*
X139375000Y-33750000D01*
X137125000Y-46250000D02*
X137125000Y-40375000D01*
X137125000Y-40375000D02*
X139375000Y-38125000D01*
%TD*%
M02*
