%TF.GenerationSoftware,KiCad,Pcbnew,9.0.5*%
%TF.CreationDate,2025-12-01T20:35:21-06:00*%
%TF.ProjectId,KPad,4b506164-2e6b-4696-9361-645f70636258,rev?*%
%TF.SameCoordinates,Original*%
%TF.FileFunction,Plated,1,2,PTH,Mixed*%
%TF.FilePolarity,Positive*%
%FSLAX46Y46*%
G04 Gerber Fmt 4.6, Leading zero omitted, Abs format (unit mm)*
G04 Created by KiCad (PCBNEW 9.0.5) date 2025-12-01 20:35:21*
%MOMM*%
%LPD*%
G01*
G04 APERTURE LIST*
%TA.AperFunction,ViaDrill*%
%ADD10C,0.300000*%
%TD*%
%TA.AperFunction,ComponentDrill*%
%ADD11C,0.800000*%
%TD*%
%TA.AperFunction,ComponentDrill*%
%ADD12C,0.889000*%
%TD*%
%TA.AperFunction,ComponentDrill*%
%ADD13C,1.000000*%
%TD*%
%TA.AperFunction,ComponentDrill*%
%ADD14C,1.500000*%
%TD*%
G04 aperture for slot hole*
%TA.AperFunction,ComponentDrill*%
%ADD15C,1.500000*%
%TD*%
G04 APERTURE END LIST*
D10*
X60500000Y-40500000D03*
X93500000Y-52500000D03*
X94000000Y-28400000D03*
X104500000Y-32000000D03*
X105500000Y-45000000D03*
X105500000Y-49500000D03*
X107500000Y-48500000D03*
X114000000Y-49000000D03*
X114900000Y-47500000D03*
X117000000Y-35500000D03*
X119500000Y-42000000D03*
X119900000Y-39500000D03*
D11*
%TO.C,D25*%
X104850000Y-53327500D03*
X104850000Y-60947500D03*
%TO.C,D24*%
X108400000Y-53327500D03*
X108400000Y-60947500D03*
%TO.C,D23*%
X111950000Y-53327500D03*
X111950000Y-60947500D03*
%TO.C,D22*%
X115500000Y-53327500D03*
X115500000Y-60947500D03*
%TO.C,D21*%
X119050000Y-53327500D03*
X119050000Y-60947500D03*
%TO.C,D20*%
X122600000Y-53327500D03*
X122600000Y-60947500D03*
%TO.C,D19*%
X126150000Y-53327500D03*
X126150000Y-60947500D03*
%TO.C,D18*%
X129700000Y-53327500D03*
X129700000Y-60947500D03*
%TO.C,D17*%
X133250000Y-53327500D03*
X133250000Y-60947500D03*
D12*
%TO.C,U1*%
X110260000Y-30000000D03*
X110260000Y-32540000D03*
X110260000Y-35080000D03*
X110260000Y-37620000D03*
X110260000Y-40160000D03*
X110260000Y-42700000D03*
X110260000Y-45240000D03*
X125500000Y-30000000D03*
X125500000Y-32540000D03*
X125500000Y-35080000D03*
X125500000Y-37620000D03*
X125500000Y-40160000D03*
X125500000Y-42700000D03*
X125500000Y-45240000D03*
D13*
%TO.C,SW1*%
X66550000Y-37981000D03*
X66550000Y-40481000D03*
X66550000Y-42981000D03*
X81050000Y-37981000D03*
X81050000Y-42981000D03*
%TO.C,J1*%
X89173750Y-32391250D03*
X91713750Y-32391250D03*
X94253750Y-32391250D03*
X96793750Y-32391250D03*
D14*
%TO.C,SW2*%
X67310000Y-78422500D03*
%TO.C,SW8*%
X70008750Y-56991250D03*
%TO.C,SW2*%
X73660000Y-75882500D03*
D15*
%TO.C,SW1*%
X74700000Y-34881000D02*
X73400000Y-34881000D01*
X74700000Y-46081000D02*
X73400000Y-46081000D01*
D14*
%TO.C,SW8*%
X76358750Y-54451250D03*
%TO.C,SW5*%
X77152500Y-97472500D03*
X83502500Y-94932500D03*
%TO.C,SW3*%
X86360000Y-78422500D03*
X92710000Y-75882500D03*
%TO.C,SW6*%
X96202500Y-97472500D03*
X102552500Y-94932500D03*
%TO.C,SW4*%
X105410000Y-78422500D03*
X111760000Y-75882500D03*
%TO.C,SW7*%
X115252500Y-97472500D03*
X121602500Y-94932500D03*
%TO.C,SW9*%
X124777500Y-78422500D03*
X131127500Y-75882500D03*
M02*
