M48
; DRILL file {KiCad 9.0.5} date 2025-12-01T20:36:26-0600
; FORMAT={-:-/ absolute / metric / decimal}
; #@! TF.CreationDate,2025-12-01T20:36:26-06:00
; #@! TF.GenerationSoftware,Kicad,Pcbnew,9.0.5
; #@! TF.FileFunction,Plated,1,2,PTH
FMAT,2
METRIC
; #@! TA.AperFunction,Plated,PTH,ViaDrill
T1C0.300
; #@! TA.AperFunction,Plated,PTH,ComponentDrill
T2C0.800
; #@! TA.AperFunction,Plated,PTH,ComponentDrill
T3C0.889
; #@! TA.AperFunction,Plated,PTH,ComponentDrill
T4C1.000
; #@! TA.AperFunction,Plated,PTH,ComponentDrill
T5C1.500
%
G90
G05
T1
X60.5Y-40.5
X93.5Y-52.5
X94.0Y-28.4
X104.5Y-32.0
X105.5Y-45.0
X105.5Y-49.5
X107.5Y-48.5
X114.0Y-49.0
X114.9Y-47.5
X117.0Y-35.5
X119.5Y-42.0
X119.9Y-39.5
T2
X104.85Y-53.328
X104.85Y-60.947
X108.4Y-53.328
X108.4Y-60.947
X111.95Y-53.328
X111.95Y-60.947
X115.5Y-53.328
X115.5Y-60.947
X119.05Y-53.328
X119.05Y-60.947
X122.6Y-53.328
X122.6Y-60.947
X126.15Y-53.328
X126.15Y-60.947
X129.7Y-53.328
X129.7Y-60.947
X133.25Y-53.328
X133.25Y-60.947
T3
X110.26Y-30.0
X110.26Y-32.54
X110.26Y-35.08
X110.26Y-37.62
X110.26Y-40.16
X110.26Y-42.7
X110.26Y-45.24
X125.5Y-30.0
X125.5Y-32.54
X125.5Y-35.08
X125.5Y-37.62
X125.5Y-40.16
X125.5Y-42.7
X125.5Y-45.24
T4
X66.55Y-37.981
X66.55Y-40.481
X66.55Y-42.981
X81.05Y-37.981
X81.05Y-42.981
X89.174Y-32.391
X91.714Y-32.391
X94.254Y-32.391
X96.794Y-32.391
T5
X67.31Y-78.422
X70.009Y-56.991
X73.66Y-75.882
X76.359Y-54.451
X77.153Y-97.472
X83.502Y-94.932
X86.36Y-78.422
X92.71Y-75.882
X96.203Y-97.472
X102.552Y-94.932
X105.41Y-78.422
X111.76Y-75.882
X115.252Y-97.472
X121.602Y-94.932
X124.777Y-78.422
X131.127Y-75.882
T5
G00X73.4Y-34.881
M15
G01X74.7Y-34.881
M16
G05
G00X73.4Y-46.081
M15
G01X74.7Y-46.081
M16
G05
M30
