%TF.GenerationSoftware,KiCad,Pcbnew,9.0.5*%
%TF.CreationDate,2025-12-01T20:36:29-06:00*%
%TF.ProjectId,KPad,4b506164-2e6b-4696-9361-645f70636258,rev?*%
%TF.SameCoordinates,Original*%
%TF.FileFunction,Legend,Bot*%
%TF.FilePolarity,Positive*%
%FSLAX46Y46*%
G04 Gerber Fmt 4.6, Leading zero omitted, Abs format (unit mm)*
G04 Created by KiCad (PCBNEW 9.0.5) date 2025-12-01 20:36:29*
%MOMM*%
%LPD*%
G01*
G04 APERTURE LIST*
%ADD10C,0.150000*%
%ADD11C,0.120000*%
G04 APERTURE END LIST*
D10*
X104488094Y-113329819D02*
X104488094Y-112329819D01*
X104488094Y-112329819D02*
X104249999Y-112329819D01*
X104249999Y-112329819D02*
X104107142Y-112377438D01*
X104107142Y-112377438D02*
X104011904Y-112472676D01*
X104011904Y-112472676D02*
X103964285Y-112567914D01*
X103964285Y-112567914D02*
X103916666Y-112758390D01*
X103916666Y-112758390D02*
X103916666Y-112901247D01*
X103916666Y-112901247D02*
X103964285Y-113091723D01*
X103964285Y-113091723D02*
X104011904Y-113186961D01*
X104011904Y-113186961D02*
X104107142Y-113282200D01*
X104107142Y-113282200D02*
X104249999Y-113329819D01*
X104249999Y-113329819D02*
X104488094Y-113329819D01*
X103440475Y-113329819D02*
X103249999Y-113329819D01*
X103249999Y-113329819D02*
X103154761Y-113282200D01*
X103154761Y-113282200D02*
X103107142Y-113234580D01*
X103107142Y-113234580D02*
X103011904Y-113091723D01*
X103011904Y-113091723D02*
X102964285Y-112901247D01*
X102964285Y-112901247D02*
X102964285Y-112520295D01*
X102964285Y-112520295D02*
X103011904Y-112425057D01*
X103011904Y-112425057D02*
X103059523Y-112377438D01*
X103059523Y-112377438D02*
X103154761Y-112329819D01*
X103154761Y-112329819D02*
X103345237Y-112329819D01*
X103345237Y-112329819D02*
X103440475Y-112377438D01*
X103440475Y-112377438D02*
X103488094Y-112425057D01*
X103488094Y-112425057D02*
X103535713Y-112520295D01*
X103535713Y-112520295D02*
X103535713Y-112758390D01*
X103535713Y-112758390D02*
X103488094Y-112853628D01*
X103488094Y-112853628D02*
X103440475Y-112901247D01*
X103440475Y-112901247D02*
X103345237Y-112948866D01*
X103345237Y-112948866D02*
X103154761Y-112948866D01*
X103154761Y-112948866D02*
X103059523Y-112901247D01*
X103059523Y-112901247D02*
X103011904Y-112853628D01*
X103011904Y-112853628D02*
X102964285Y-112758390D01*
X110721428Y-112362295D02*
X111178571Y-112362295D01*
X110949999Y-112362295D02*
X110949999Y-111562295D01*
X110949999Y-111562295D02*
X111026190Y-111676580D01*
X111026190Y-111676580D02*
X111102380Y-111752771D01*
X111102380Y-111752771D02*
X111178571Y-111790866D01*
X63454819Y-76261905D02*
X62454819Y-76261905D01*
X62454819Y-76261905D02*
X62454819Y-76500000D01*
X62454819Y-76500000D02*
X62502438Y-76642857D01*
X62502438Y-76642857D02*
X62597676Y-76738095D01*
X62597676Y-76738095D02*
X62692914Y-76785714D01*
X62692914Y-76785714D02*
X62883390Y-76833333D01*
X62883390Y-76833333D02*
X63026247Y-76833333D01*
X63026247Y-76833333D02*
X63216723Y-76785714D01*
X63216723Y-76785714D02*
X63311961Y-76738095D01*
X63311961Y-76738095D02*
X63407200Y-76642857D01*
X63407200Y-76642857D02*
X63454819Y-76500000D01*
X63454819Y-76500000D02*
X63454819Y-76261905D01*
X62788152Y-77690476D02*
X63454819Y-77690476D01*
X62407200Y-77452381D02*
X63121485Y-77214286D01*
X63121485Y-77214286D02*
X63121485Y-77833333D01*
X62512704Y-83971428D02*
X62512704Y-84428571D01*
X62512704Y-84199999D02*
X63312704Y-84199999D01*
X63312704Y-84199999D02*
X63198419Y-84276190D01*
X63198419Y-84276190D02*
X63122228Y-84352380D01*
X63122228Y-84352380D02*
X63084133Y-84428571D01*
X137767319Y-51510714D02*
X136767319Y-51510714D01*
X136767319Y-51510714D02*
X136767319Y-51748809D01*
X136767319Y-51748809D02*
X136814938Y-51891666D01*
X136814938Y-51891666D02*
X136910176Y-51986904D01*
X136910176Y-51986904D02*
X137005414Y-52034523D01*
X137005414Y-52034523D02*
X137195890Y-52082142D01*
X137195890Y-52082142D02*
X137338747Y-52082142D01*
X137338747Y-52082142D02*
X137529223Y-52034523D01*
X137529223Y-52034523D02*
X137624461Y-51986904D01*
X137624461Y-51986904D02*
X137719700Y-51891666D01*
X137719700Y-51891666D02*
X137767319Y-51748809D01*
X137767319Y-51748809D02*
X137767319Y-51510714D01*
X137767319Y-53034523D02*
X137767319Y-52463095D01*
X137767319Y-52748809D02*
X136767319Y-52748809D01*
X136767319Y-52748809D02*
X136910176Y-52653571D01*
X136910176Y-52653571D02*
X137005414Y-52558333D01*
X137005414Y-52558333D02*
X137053033Y-52463095D01*
X136767319Y-53939285D02*
X136767319Y-53463095D01*
X136767319Y-53463095D02*
X137243509Y-53415476D01*
X137243509Y-53415476D02*
X137195890Y-53463095D01*
X137195890Y-53463095D02*
X137148271Y-53558333D01*
X137148271Y-53558333D02*
X137148271Y-53796428D01*
X137148271Y-53796428D02*
X137195890Y-53891666D01*
X137195890Y-53891666D02*
X137243509Y-53939285D01*
X137243509Y-53939285D02*
X137338747Y-53986904D01*
X137338747Y-53986904D02*
X137576842Y-53986904D01*
X137576842Y-53986904D02*
X137672080Y-53939285D01*
X137672080Y-53939285D02*
X137719700Y-53891666D01*
X137719700Y-53891666D02*
X137767319Y-53796428D01*
X137767319Y-53796428D02*
X137767319Y-53558333D01*
X137767319Y-53558333D02*
X137719700Y-53463095D01*
X137719700Y-53463095D02*
X137672080Y-53415476D01*
X137487295Y-45028571D02*
X137487295Y-44571428D01*
X137487295Y-44800000D02*
X136687295Y-44800000D01*
X136687295Y-44800000D02*
X136801580Y-44723809D01*
X136801580Y-44723809D02*
X136877771Y-44647619D01*
X136877771Y-44647619D02*
X136915866Y-44571428D01*
X75238094Y-112204819D02*
X75238094Y-111204819D01*
X75238094Y-111204819D02*
X74999999Y-111204819D01*
X74999999Y-111204819D02*
X74857142Y-111252438D01*
X74857142Y-111252438D02*
X74761904Y-111347676D01*
X74761904Y-111347676D02*
X74714285Y-111442914D01*
X74714285Y-111442914D02*
X74666666Y-111633390D01*
X74666666Y-111633390D02*
X74666666Y-111776247D01*
X74666666Y-111776247D02*
X74714285Y-111966723D01*
X74714285Y-111966723D02*
X74761904Y-112061961D01*
X74761904Y-112061961D02*
X74857142Y-112157200D01*
X74857142Y-112157200D02*
X74999999Y-112204819D01*
X74999999Y-112204819D02*
X75238094Y-112204819D01*
X74333332Y-111204819D02*
X73666666Y-111204819D01*
X73666666Y-111204819D02*
X74095237Y-112204819D01*
X81721428Y-112362295D02*
X82178571Y-112362295D01*
X81949999Y-112362295D02*
X81949999Y-111562295D01*
X81949999Y-111562295D02*
X82026190Y-111676580D01*
X82026190Y-111676580D02*
X82102380Y-111752771D01*
X82102380Y-111752771D02*
X82178571Y-111790866D01*
X138267319Y-101316964D02*
X137267319Y-101316964D01*
X137267319Y-101316964D02*
X137267319Y-101555059D01*
X137267319Y-101555059D02*
X137314938Y-101697916D01*
X137314938Y-101697916D02*
X137410176Y-101793154D01*
X137410176Y-101793154D02*
X137505414Y-101840773D01*
X137505414Y-101840773D02*
X137695890Y-101888392D01*
X137695890Y-101888392D02*
X137838747Y-101888392D01*
X137838747Y-101888392D02*
X138029223Y-101840773D01*
X138029223Y-101840773D02*
X138124461Y-101793154D01*
X138124461Y-101793154D02*
X138219700Y-101697916D01*
X138219700Y-101697916D02*
X138267319Y-101555059D01*
X138267319Y-101555059D02*
X138267319Y-101316964D01*
X138267319Y-102840773D02*
X138267319Y-102269345D01*
X138267319Y-102555059D02*
X137267319Y-102555059D01*
X137267319Y-102555059D02*
X137410176Y-102459821D01*
X137410176Y-102459821D02*
X137505414Y-102364583D01*
X137505414Y-102364583D02*
X137553033Y-102269345D01*
X137362557Y-103221726D02*
X137314938Y-103269345D01*
X137314938Y-103269345D02*
X137267319Y-103364583D01*
X137267319Y-103364583D02*
X137267319Y-103602678D01*
X137267319Y-103602678D02*
X137314938Y-103697916D01*
X137314938Y-103697916D02*
X137362557Y-103745535D01*
X137362557Y-103745535D02*
X137457795Y-103793154D01*
X137457795Y-103793154D02*
X137553033Y-103793154D01*
X137553033Y-103793154D02*
X137695890Y-103745535D01*
X137695890Y-103745535D02*
X138267319Y-103174107D01*
X138267319Y-103174107D02*
X138267319Y-103793154D01*
X137487295Y-95028571D02*
X137487295Y-94571428D01*
X137487295Y-94800000D02*
X136687295Y-94800000D01*
X136687295Y-94800000D02*
X136801580Y-94723809D01*
X136801580Y-94723809D02*
X136877771Y-94647619D01*
X136877771Y-94647619D02*
X136915866Y-94571428D01*
X63454819Y-43261905D02*
X62454819Y-43261905D01*
X62454819Y-43261905D02*
X62454819Y-43500000D01*
X62454819Y-43500000D02*
X62502438Y-43642857D01*
X62502438Y-43642857D02*
X62597676Y-43738095D01*
X62597676Y-43738095D02*
X62692914Y-43785714D01*
X62692914Y-43785714D02*
X62883390Y-43833333D01*
X62883390Y-43833333D02*
X63026247Y-43833333D01*
X63026247Y-43833333D02*
X63216723Y-43785714D01*
X63216723Y-43785714D02*
X63311961Y-43738095D01*
X63311961Y-43738095D02*
X63407200Y-43642857D01*
X63407200Y-43642857D02*
X63454819Y-43500000D01*
X63454819Y-43500000D02*
X63454819Y-43261905D01*
X62550057Y-44214286D02*
X62502438Y-44261905D01*
X62502438Y-44261905D02*
X62454819Y-44357143D01*
X62454819Y-44357143D02*
X62454819Y-44595238D01*
X62454819Y-44595238D02*
X62502438Y-44690476D01*
X62502438Y-44690476D02*
X62550057Y-44738095D01*
X62550057Y-44738095D02*
X62645295Y-44785714D01*
X62645295Y-44785714D02*
X62740533Y-44785714D01*
X62740533Y-44785714D02*
X62883390Y-44738095D01*
X62883390Y-44738095D02*
X63454819Y-44166667D01*
X63454819Y-44166667D02*
X63454819Y-44785714D01*
X62512704Y-50971428D02*
X62512704Y-51428571D01*
X62512704Y-51199999D02*
X63312704Y-51199999D01*
X63312704Y-51199999D02*
X63198419Y-51276190D01*
X63198419Y-51276190D02*
X63122228Y-51352380D01*
X63122228Y-51352380D02*
X63084133Y-51428571D01*
X137067319Y-67279464D02*
X136067319Y-67279464D01*
X136067319Y-67279464D02*
X136067319Y-67517559D01*
X136067319Y-67517559D02*
X136114938Y-67660416D01*
X136114938Y-67660416D02*
X136210176Y-67755654D01*
X136210176Y-67755654D02*
X136305414Y-67803273D01*
X136305414Y-67803273D02*
X136495890Y-67850892D01*
X136495890Y-67850892D02*
X136638747Y-67850892D01*
X136638747Y-67850892D02*
X136829223Y-67803273D01*
X136829223Y-67803273D02*
X136924461Y-67755654D01*
X136924461Y-67755654D02*
X137019700Y-67660416D01*
X137019700Y-67660416D02*
X137067319Y-67517559D01*
X137067319Y-67517559D02*
X137067319Y-67279464D01*
X137067319Y-68803273D02*
X137067319Y-68231845D01*
X137067319Y-68517559D02*
X136067319Y-68517559D01*
X136067319Y-68517559D02*
X136210176Y-68422321D01*
X136210176Y-68422321D02*
X136305414Y-68327083D01*
X136305414Y-68327083D02*
X136353033Y-68231845D01*
X136400652Y-69660416D02*
X137067319Y-69660416D01*
X136019700Y-69422321D02*
X136733985Y-69184226D01*
X136733985Y-69184226D02*
X136733985Y-69803273D01*
X137487295Y-61028571D02*
X137487295Y-60571428D01*
X137487295Y-60800000D02*
X136687295Y-60800000D01*
X136687295Y-60800000D02*
X136801580Y-60723809D01*
X136801580Y-60723809D02*
X136877771Y-60647619D01*
X136877771Y-60647619D02*
X136915866Y-60571428D01*
X63454819Y-59261905D02*
X62454819Y-59261905D01*
X62454819Y-59261905D02*
X62454819Y-59500000D01*
X62454819Y-59500000D02*
X62502438Y-59642857D01*
X62502438Y-59642857D02*
X62597676Y-59738095D01*
X62597676Y-59738095D02*
X62692914Y-59785714D01*
X62692914Y-59785714D02*
X62883390Y-59833333D01*
X62883390Y-59833333D02*
X63026247Y-59833333D01*
X63026247Y-59833333D02*
X63216723Y-59785714D01*
X63216723Y-59785714D02*
X63311961Y-59738095D01*
X63311961Y-59738095D02*
X63407200Y-59642857D01*
X63407200Y-59642857D02*
X63454819Y-59500000D01*
X63454819Y-59500000D02*
X63454819Y-59261905D01*
X62454819Y-60166667D02*
X62454819Y-60785714D01*
X62454819Y-60785714D02*
X62835771Y-60452381D01*
X62835771Y-60452381D02*
X62835771Y-60595238D01*
X62835771Y-60595238D02*
X62883390Y-60690476D01*
X62883390Y-60690476D02*
X62931009Y-60738095D01*
X62931009Y-60738095D02*
X63026247Y-60785714D01*
X63026247Y-60785714D02*
X63264342Y-60785714D01*
X63264342Y-60785714D02*
X63359580Y-60738095D01*
X63359580Y-60738095D02*
X63407200Y-60690476D01*
X63407200Y-60690476D02*
X63454819Y-60595238D01*
X63454819Y-60595238D02*
X63454819Y-60309524D01*
X63454819Y-60309524D02*
X63407200Y-60214286D01*
X63407200Y-60214286D02*
X63359580Y-60166667D01*
X62512704Y-66971428D02*
X62512704Y-67428571D01*
X62512704Y-67199999D02*
X63312704Y-67199999D01*
X63312704Y-67199999D02*
X63198419Y-67276190D01*
X63198419Y-67276190D02*
X63122228Y-67352380D01*
X63122228Y-67352380D02*
X63084133Y-67428571D01*
X137342319Y-83998214D02*
X136342319Y-83998214D01*
X136342319Y-83998214D02*
X136342319Y-84236309D01*
X136342319Y-84236309D02*
X136389938Y-84379166D01*
X136389938Y-84379166D02*
X136485176Y-84474404D01*
X136485176Y-84474404D02*
X136580414Y-84522023D01*
X136580414Y-84522023D02*
X136770890Y-84569642D01*
X136770890Y-84569642D02*
X136913747Y-84569642D01*
X136913747Y-84569642D02*
X137104223Y-84522023D01*
X137104223Y-84522023D02*
X137199461Y-84474404D01*
X137199461Y-84474404D02*
X137294700Y-84379166D01*
X137294700Y-84379166D02*
X137342319Y-84236309D01*
X137342319Y-84236309D02*
X137342319Y-83998214D01*
X137342319Y-85522023D02*
X137342319Y-84950595D01*
X137342319Y-85236309D02*
X136342319Y-85236309D01*
X136342319Y-85236309D02*
X136485176Y-85141071D01*
X136485176Y-85141071D02*
X136580414Y-85045833D01*
X136580414Y-85045833D02*
X136628033Y-84950595D01*
X136342319Y-85855357D02*
X136342319Y-86474404D01*
X136342319Y-86474404D02*
X136723271Y-86141071D01*
X136723271Y-86141071D02*
X136723271Y-86283928D01*
X136723271Y-86283928D02*
X136770890Y-86379166D01*
X136770890Y-86379166D02*
X136818509Y-86426785D01*
X136818509Y-86426785D02*
X136913747Y-86474404D01*
X136913747Y-86474404D02*
X137151842Y-86474404D01*
X137151842Y-86474404D02*
X137247080Y-86426785D01*
X137247080Y-86426785D02*
X137294700Y-86379166D01*
X137294700Y-86379166D02*
X137342319Y-86283928D01*
X137342319Y-86283928D02*
X137342319Y-85998214D01*
X137342319Y-85998214D02*
X137294700Y-85902976D01*
X137294700Y-85902976D02*
X137247080Y-85855357D01*
X137362295Y-77778571D02*
X137362295Y-77321428D01*
X137362295Y-77550000D02*
X136562295Y-77550000D01*
X136562295Y-77550000D02*
X136676580Y-77473809D01*
X136676580Y-77473809D02*
X136752771Y-77397619D01*
X136752771Y-77397619D02*
X136790866Y-77321428D01*
X90707585Y-113384108D02*
X90707585Y-112384108D01*
X90707585Y-112384108D02*
X90469490Y-112384108D01*
X90469490Y-112384108D02*
X90326633Y-112431727D01*
X90326633Y-112431727D02*
X90231395Y-112526965D01*
X90231395Y-112526965D02*
X90183776Y-112622203D01*
X90183776Y-112622203D02*
X90136157Y-112812679D01*
X90136157Y-112812679D02*
X90136157Y-112955536D01*
X90136157Y-112955536D02*
X90183776Y-113146012D01*
X90183776Y-113146012D02*
X90231395Y-113241250D01*
X90231395Y-113241250D02*
X90326633Y-113336489D01*
X90326633Y-113336489D02*
X90469490Y-113384108D01*
X90469490Y-113384108D02*
X90707585Y-113384108D01*
X89564728Y-112812679D02*
X89659966Y-112765060D01*
X89659966Y-112765060D02*
X89707585Y-112717441D01*
X89707585Y-112717441D02*
X89755204Y-112622203D01*
X89755204Y-112622203D02*
X89755204Y-112574584D01*
X89755204Y-112574584D02*
X89707585Y-112479346D01*
X89707585Y-112479346D02*
X89659966Y-112431727D01*
X89659966Y-112431727D02*
X89564728Y-112384108D01*
X89564728Y-112384108D02*
X89374252Y-112384108D01*
X89374252Y-112384108D02*
X89279014Y-112431727D01*
X89279014Y-112431727D02*
X89231395Y-112479346D01*
X89231395Y-112479346D02*
X89183776Y-112574584D01*
X89183776Y-112574584D02*
X89183776Y-112622203D01*
X89183776Y-112622203D02*
X89231395Y-112717441D01*
X89231395Y-112717441D02*
X89279014Y-112765060D01*
X89279014Y-112765060D02*
X89374252Y-112812679D01*
X89374252Y-112812679D02*
X89564728Y-112812679D01*
X89564728Y-112812679D02*
X89659966Y-112860298D01*
X89659966Y-112860298D02*
X89707585Y-112907917D01*
X89707585Y-112907917D02*
X89755204Y-113003155D01*
X89755204Y-113003155D02*
X89755204Y-113193631D01*
X89755204Y-113193631D02*
X89707585Y-113288869D01*
X89707585Y-113288869D02*
X89659966Y-113336489D01*
X89659966Y-113336489D02*
X89564728Y-113384108D01*
X89564728Y-113384108D02*
X89374252Y-113384108D01*
X89374252Y-113384108D02*
X89279014Y-113336489D01*
X89279014Y-113336489D02*
X89231395Y-113288869D01*
X89231395Y-113288869D02*
X89183776Y-113193631D01*
X89183776Y-113193631D02*
X89183776Y-113003155D01*
X89183776Y-113003155D02*
X89231395Y-112907917D01*
X89231395Y-112907917D02*
X89279014Y-112860298D01*
X89279014Y-112860298D02*
X89374252Y-112812679D01*
X96971428Y-112487295D02*
X97428571Y-112487295D01*
X97199999Y-112487295D02*
X97199999Y-111687295D01*
X97199999Y-111687295D02*
X97276190Y-111801580D01*
X97276190Y-111801580D02*
X97352380Y-111877771D01*
X97352380Y-111877771D02*
X97428571Y-111915866D01*
X63200306Y-107343517D02*
X63907412Y-106636410D01*
X63907412Y-106636410D02*
X63739054Y-106468051D01*
X63739054Y-106468051D02*
X63604367Y-106400708D01*
X63604367Y-106400708D02*
X63469680Y-106400708D01*
X63469680Y-106400708D02*
X63368664Y-106434380D01*
X63368664Y-106434380D02*
X63200306Y-106535395D01*
X63200306Y-106535395D02*
X63099290Y-106636410D01*
X63099290Y-106636410D02*
X62998275Y-106804769D01*
X62998275Y-106804769D02*
X62964603Y-106905784D01*
X62964603Y-106905784D02*
X62964603Y-107040471D01*
X62964603Y-107040471D02*
X63031947Y-107175158D01*
X63031947Y-107175158D02*
X63200306Y-107343517D01*
X62897260Y-105626258D02*
X63031947Y-105760945D01*
X63031947Y-105760945D02*
X63065619Y-105861960D01*
X63065619Y-105861960D02*
X63065619Y-105929303D01*
X63065619Y-105929303D02*
X63031947Y-106097662D01*
X63031947Y-106097662D02*
X62930932Y-106266021D01*
X62930932Y-106266021D02*
X62661558Y-106535395D01*
X62661558Y-106535395D02*
X62560542Y-106569067D01*
X62560542Y-106569067D02*
X62493199Y-106569067D01*
X62493199Y-106569067D02*
X62392184Y-106535395D01*
X62392184Y-106535395D02*
X62257497Y-106400708D01*
X62257497Y-106400708D02*
X62223825Y-106299693D01*
X62223825Y-106299693D02*
X62223825Y-106232349D01*
X62223825Y-106232349D02*
X62257497Y-106131334D01*
X62257497Y-106131334D02*
X62425855Y-105962975D01*
X62425855Y-105962975D02*
X62526871Y-105929303D01*
X62526871Y-105929303D02*
X62594214Y-105929303D01*
X62594214Y-105929303D02*
X62695229Y-105962975D01*
X62695229Y-105962975D02*
X62829916Y-106097662D01*
X62829916Y-106097662D02*
X62863588Y-106198677D01*
X62863588Y-106198677D02*
X62863588Y-106266021D01*
X62863588Y-106266021D02*
X62829916Y-106367036D01*
X67844935Y-111382424D02*
X68168184Y-111705673D01*
X68006560Y-111544049D02*
X68572245Y-110978363D01*
X68572245Y-110978363D02*
X68545308Y-111113050D01*
X68545308Y-111113050D02*
X68545308Y-111220800D01*
X68545308Y-111220800D02*
X68572245Y-111301612D01*
X131291148Y-111937849D02*
X130584041Y-111230743D01*
X130584041Y-111230743D02*
X130415682Y-111399101D01*
X130415682Y-111399101D02*
X130348339Y-111533788D01*
X130348339Y-111533788D02*
X130348339Y-111668475D01*
X130348339Y-111668475D02*
X130382011Y-111769491D01*
X130382011Y-111769491D02*
X130483026Y-111937849D01*
X130483026Y-111937849D02*
X130584041Y-112038865D01*
X130584041Y-112038865D02*
X130752400Y-112139880D01*
X130752400Y-112139880D02*
X130853415Y-112173552D01*
X130853415Y-112173552D02*
X130988102Y-112173552D01*
X130988102Y-112173552D02*
X131122789Y-112106208D01*
X131122789Y-112106208D02*
X131291148Y-111937849D01*
X130213652Y-113015345D02*
X130617713Y-112611284D01*
X130415682Y-112813315D02*
X129708576Y-112106208D01*
X129708576Y-112106208D02*
X129876934Y-112139880D01*
X129876934Y-112139880D02*
X130011621Y-112139880D01*
X130011621Y-112139880D02*
X130112637Y-112106208D01*
X129540217Y-113688781D02*
X129944278Y-113284720D01*
X129742247Y-113486750D02*
X129035140Y-112779643D01*
X129035140Y-112779643D02*
X129203499Y-112813315D01*
X129203499Y-112813315D02*
X129338186Y-112813315D01*
X129338186Y-112813315D02*
X129439201Y-112779643D01*
X135738579Y-107536346D02*
X136061828Y-107213097D01*
X135900204Y-107374721D02*
X135334518Y-106809036D01*
X135334518Y-106809036D02*
X135469205Y-106835973D01*
X135469205Y-106835973D02*
X135576955Y-106835973D01*
X135576955Y-106835973D02*
X135657767Y-106809036D01*
X118214285Y-112454819D02*
X118214285Y-111454819D01*
X118214285Y-111454819D02*
X117976190Y-111454819D01*
X117976190Y-111454819D02*
X117833333Y-111502438D01*
X117833333Y-111502438D02*
X117738095Y-111597676D01*
X117738095Y-111597676D02*
X117690476Y-111692914D01*
X117690476Y-111692914D02*
X117642857Y-111883390D01*
X117642857Y-111883390D02*
X117642857Y-112026247D01*
X117642857Y-112026247D02*
X117690476Y-112216723D01*
X117690476Y-112216723D02*
X117738095Y-112311961D01*
X117738095Y-112311961D02*
X117833333Y-112407200D01*
X117833333Y-112407200D02*
X117976190Y-112454819D01*
X117976190Y-112454819D02*
X118214285Y-112454819D01*
X116690476Y-112454819D02*
X117261904Y-112454819D01*
X116976190Y-112454819D02*
X116976190Y-111454819D01*
X116976190Y-111454819D02*
X117071428Y-111597676D01*
X117071428Y-111597676D02*
X117166666Y-111692914D01*
X117166666Y-111692914D02*
X117261904Y-111740533D01*
X116071428Y-111454819D02*
X115976190Y-111454819D01*
X115976190Y-111454819D02*
X115880952Y-111502438D01*
X115880952Y-111502438D02*
X115833333Y-111550057D01*
X115833333Y-111550057D02*
X115785714Y-111645295D01*
X115785714Y-111645295D02*
X115738095Y-111835771D01*
X115738095Y-111835771D02*
X115738095Y-112073866D01*
X115738095Y-112073866D02*
X115785714Y-112264342D01*
X115785714Y-112264342D02*
X115833333Y-112359580D01*
X115833333Y-112359580D02*
X115880952Y-112407200D01*
X115880952Y-112407200D02*
X115976190Y-112454819D01*
X115976190Y-112454819D02*
X116071428Y-112454819D01*
X116071428Y-112454819D02*
X116166666Y-112407200D01*
X116166666Y-112407200D02*
X116214285Y-112359580D01*
X116214285Y-112359580D02*
X116261904Y-112264342D01*
X116261904Y-112264342D02*
X116309523Y-112073866D01*
X116309523Y-112073866D02*
X116309523Y-111835771D01*
X116309523Y-111835771D02*
X116261904Y-111645295D01*
X116261904Y-111645295D02*
X116214285Y-111550057D01*
X116214285Y-111550057D02*
X116166666Y-111502438D01*
X116166666Y-111502438D02*
X116071428Y-111454819D01*
X124221428Y-112362295D02*
X124678571Y-112362295D01*
X124449999Y-112362295D02*
X124449999Y-111562295D01*
X124449999Y-111562295D02*
X124526190Y-111676580D01*
X124526190Y-111676580D02*
X124602380Y-111752771D01*
X124602380Y-111752771D02*
X124678571Y-111790866D01*
X63454819Y-27261905D02*
X62454819Y-27261905D01*
X62454819Y-27261905D02*
X62454819Y-27500000D01*
X62454819Y-27500000D02*
X62502438Y-27642857D01*
X62502438Y-27642857D02*
X62597676Y-27738095D01*
X62597676Y-27738095D02*
X62692914Y-27785714D01*
X62692914Y-27785714D02*
X62883390Y-27833333D01*
X62883390Y-27833333D02*
X63026247Y-27833333D01*
X63026247Y-27833333D02*
X63216723Y-27785714D01*
X63216723Y-27785714D02*
X63311961Y-27738095D01*
X63311961Y-27738095D02*
X63407200Y-27642857D01*
X63407200Y-27642857D02*
X63454819Y-27500000D01*
X63454819Y-27500000D02*
X63454819Y-27261905D01*
X63454819Y-28785714D02*
X63454819Y-28214286D01*
X63454819Y-28500000D02*
X62454819Y-28500000D01*
X62454819Y-28500000D02*
X62597676Y-28404762D01*
X62597676Y-28404762D02*
X62692914Y-28309524D01*
X62692914Y-28309524D02*
X62740533Y-28214286D01*
X60637704Y-27771428D02*
X60637704Y-28228571D01*
X60637704Y-27999999D02*
X61437704Y-27999999D01*
X61437704Y-27999999D02*
X61323419Y-28076190D01*
X61323419Y-28076190D02*
X61247228Y-28152380D01*
X61247228Y-28152380D02*
X61209133Y-28228571D01*
X63454819Y-93261905D02*
X62454819Y-93261905D01*
X62454819Y-93261905D02*
X62454819Y-93500000D01*
X62454819Y-93500000D02*
X62502438Y-93642857D01*
X62502438Y-93642857D02*
X62597676Y-93738095D01*
X62597676Y-93738095D02*
X62692914Y-93785714D01*
X62692914Y-93785714D02*
X62883390Y-93833333D01*
X62883390Y-93833333D02*
X63026247Y-93833333D01*
X63026247Y-93833333D02*
X63216723Y-93785714D01*
X63216723Y-93785714D02*
X63311961Y-93738095D01*
X63311961Y-93738095D02*
X63407200Y-93642857D01*
X63407200Y-93642857D02*
X63454819Y-93500000D01*
X63454819Y-93500000D02*
X63454819Y-93261905D01*
X62454819Y-94738095D02*
X62454819Y-94261905D01*
X62454819Y-94261905D02*
X62931009Y-94214286D01*
X62931009Y-94214286D02*
X62883390Y-94261905D01*
X62883390Y-94261905D02*
X62835771Y-94357143D01*
X62835771Y-94357143D02*
X62835771Y-94595238D01*
X62835771Y-94595238D02*
X62883390Y-94690476D01*
X62883390Y-94690476D02*
X62931009Y-94738095D01*
X62931009Y-94738095D02*
X63026247Y-94785714D01*
X63026247Y-94785714D02*
X63264342Y-94785714D01*
X63264342Y-94785714D02*
X63359580Y-94738095D01*
X63359580Y-94738095D02*
X63407200Y-94690476D01*
X63407200Y-94690476D02*
X63454819Y-94595238D01*
X63454819Y-94595238D02*
X63454819Y-94357143D01*
X63454819Y-94357143D02*
X63407200Y-94261905D01*
X63407200Y-94261905D02*
X63359580Y-94214286D01*
X62512704Y-100971428D02*
X62512704Y-101428571D01*
X62512704Y-101199999D02*
X63312704Y-101199999D01*
X63312704Y-101199999D02*
X63198419Y-101276190D01*
X63198419Y-101276190D02*
X63122228Y-101352380D01*
X63122228Y-101352380D02*
X63084133Y-101428571D01*
X140329819Y-35535714D02*
X139329819Y-35535714D01*
X139329819Y-35535714D02*
X139329819Y-35773809D01*
X139329819Y-35773809D02*
X139377438Y-35916666D01*
X139377438Y-35916666D02*
X139472676Y-36011904D01*
X139472676Y-36011904D02*
X139567914Y-36059523D01*
X139567914Y-36059523D02*
X139758390Y-36107142D01*
X139758390Y-36107142D02*
X139901247Y-36107142D01*
X139901247Y-36107142D02*
X140091723Y-36059523D01*
X140091723Y-36059523D02*
X140186961Y-36011904D01*
X140186961Y-36011904D02*
X140282200Y-35916666D01*
X140282200Y-35916666D02*
X140329819Y-35773809D01*
X140329819Y-35773809D02*
X140329819Y-35535714D01*
X140329819Y-37059523D02*
X140329819Y-36488095D01*
X140329819Y-36773809D02*
X139329819Y-36773809D01*
X139329819Y-36773809D02*
X139472676Y-36678571D01*
X139472676Y-36678571D02*
X139567914Y-36583333D01*
X139567914Y-36583333D02*
X139615533Y-36488095D01*
X139329819Y-37916666D02*
X139329819Y-37726190D01*
X139329819Y-37726190D02*
X139377438Y-37630952D01*
X139377438Y-37630952D02*
X139425057Y-37583333D01*
X139425057Y-37583333D02*
X139567914Y-37488095D01*
X139567914Y-37488095D02*
X139758390Y-37440476D01*
X139758390Y-37440476D02*
X140139342Y-37440476D01*
X140139342Y-37440476D02*
X140234580Y-37488095D01*
X140234580Y-37488095D02*
X140282200Y-37535714D01*
X140282200Y-37535714D02*
X140329819Y-37630952D01*
X140329819Y-37630952D02*
X140329819Y-37821428D01*
X140329819Y-37821428D02*
X140282200Y-37916666D01*
X140282200Y-37916666D02*
X140234580Y-37964285D01*
X140234580Y-37964285D02*
X140139342Y-38011904D01*
X140139342Y-38011904D02*
X139901247Y-38011904D01*
X139901247Y-38011904D02*
X139806009Y-37964285D01*
X139806009Y-37964285D02*
X139758390Y-37916666D01*
X139758390Y-37916666D02*
X139710771Y-37821428D01*
X139710771Y-37821428D02*
X139710771Y-37630952D01*
X139710771Y-37630952D02*
X139758390Y-37535714D01*
X139758390Y-37535714D02*
X139806009Y-37488095D01*
X139806009Y-37488095D02*
X139901247Y-37440476D01*
X137737295Y-35978571D02*
X137737295Y-35521428D01*
X137737295Y-35750000D02*
X136937295Y-35750000D01*
X136937295Y-35750000D02*
X137051580Y-35673809D01*
X137051580Y-35673809D02*
X137127771Y-35597619D01*
X137127771Y-35597619D02*
X137165866Y-35521428D01*
D11*
%TO.C,D9*%
X104950000Y-114275000D02*
X104950000Y-110875000D01*
X104950000Y-114275000D02*
X105550000Y-114875000D01*
X110550000Y-110875000D02*
X104950000Y-110875000D01*
X110550000Y-110875000D02*
X110550000Y-114875000D01*
X110550000Y-114875000D02*
X105550000Y-114875000D01*
%TO.C,D4*%
X60000000Y-83800000D02*
X60000000Y-78800000D01*
X60600000Y-78200000D02*
X60000000Y-78800000D01*
X60600000Y-78200000D02*
X64000000Y-78200000D01*
X64000000Y-83800000D02*
X60000000Y-83800000D01*
X64000000Y-83800000D02*
X64000000Y-78200000D01*
%TO.C,D15*%
X136000000Y-45200000D02*
X136000000Y-50800000D01*
X136000000Y-45200000D02*
X140000000Y-45200000D01*
X139400000Y-50800000D02*
X136000000Y-50800000D01*
X139400000Y-50800000D02*
X140000000Y-50200000D01*
X140000000Y-45200000D02*
X140000000Y-50200000D01*
%TO.C,D7*%
X75950000Y-114275000D02*
X75950000Y-110875000D01*
X75950000Y-114275000D02*
X76550000Y-114875000D01*
X81550000Y-110875000D02*
X75950000Y-110875000D01*
X81550000Y-110875000D02*
X81550000Y-114875000D01*
X81550000Y-114875000D02*
X76550000Y-114875000D01*
%TO.C,D12*%
X136000000Y-95200000D02*
X136000000Y-100800000D01*
X136000000Y-95200000D02*
X140000000Y-95200000D01*
X139400000Y-100800000D02*
X136000000Y-100800000D01*
X139400000Y-100800000D02*
X140000000Y-100200000D01*
X140000000Y-95200000D02*
X140000000Y-100200000D01*
%TO.C,D2*%
X60000000Y-50800000D02*
X60000000Y-45800000D01*
X60600000Y-45200000D02*
X60000000Y-45800000D01*
X60600000Y-45200000D02*
X64000000Y-45200000D01*
X64000000Y-50800000D02*
X60000000Y-50800000D01*
X64000000Y-50800000D02*
X64000000Y-45200000D01*
%TO.C,D14*%
X136000000Y-61200000D02*
X136000000Y-66800000D01*
X136000000Y-61200000D02*
X140000000Y-61200000D01*
X139400000Y-66800000D02*
X136000000Y-66800000D01*
X139400000Y-66800000D02*
X140000000Y-66200000D01*
X140000000Y-61200000D02*
X140000000Y-66200000D01*
%TO.C,D3*%
X60000000Y-66800000D02*
X60000000Y-61800000D01*
X60600000Y-61200000D02*
X60000000Y-61800000D01*
X60600000Y-61200000D02*
X64000000Y-61200000D01*
X64000000Y-66800000D02*
X60000000Y-66800000D01*
X64000000Y-66800000D02*
X64000000Y-61200000D01*
%TO.C,D13*%
X135875000Y-77950000D02*
X135875000Y-83550000D01*
X135875000Y-77950000D02*
X139875000Y-77950000D01*
X139275000Y-83550000D02*
X135875000Y-83550000D01*
X139275000Y-83550000D02*
X139875000Y-82950000D01*
X139875000Y-77950000D02*
X139875000Y-82950000D01*
%TO.C,D8*%
X91200000Y-114400000D02*
X91200000Y-111000000D01*
X91200000Y-114400000D02*
X91800000Y-115000000D01*
X96800000Y-111000000D02*
X91200000Y-111000000D01*
X96800000Y-111000000D02*
X96800000Y-115000000D01*
X96800000Y-115000000D02*
X91800000Y-115000000D01*
%TO.C,D6*%
X62411434Y-108653896D02*
X62411434Y-109502424D01*
X62411434Y-108653896D02*
X64815597Y-106249732D01*
X65946967Y-113037958D02*
X62411434Y-109502424D01*
X68775395Y-110209530D02*
X64815597Y-106249732D01*
X68775395Y-110209530D02*
X65946967Y-113037958D01*
%TO.C,D11*%
X133010051Y-112969848D02*
X130605887Y-110565685D01*
X133010051Y-112969848D02*
X133858579Y-112969848D01*
X134565685Y-106605887D02*
X130605887Y-110565685D01*
X134565685Y-106605887D02*
X137394113Y-109434315D01*
X137394113Y-109434315D02*
X133858579Y-112969848D01*
%TO.C,D10*%
X118450000Y-114275000D02*
X118450000Y-110875000D01*
X118450000Y-114275000D02*
X119050000Y-114875000D01*
X124050000Y-110875000D02*
X118450000Y-110875000D01*
X124050000Y-110875000D02*
X124050000Y-114875000D01*
X124050000Y-114875000D02*
X119050000Y-114875000D01*
%TO.C,D1*%
X60000000Y-34800000D02*
X60000000Y-29800000D01*
X60600000Y-29200000D02*
X60000000Y-29800000D01*
X60600000Y-29200000D02*
X64000000Y-29200000D01*
X64000000Y-34800000D02*
X60000000Y-34800000D01*
X64000000Y-34800000D02*
X64000000Y-29200000D01*
%TO.C,D5*%
X60000000Y-100800000D02*
X60000000Y-95800000D01*
X60600000Y-95200000D02*
X60000000Y-95800000D01*
X60600000Y-95200000D02*
X64000000Y-95200000D01*
X64000000Y-100800000D02*
X60000000Y-100800000D01*
X64000000Y-100800000D02*
X64000000Y-95200000D01*
%TO.C,D16*%
X136500000Y-29200000D02*
X136500000Y-34800000D01*
X136500000Y-29200000D02*
X140500000Y-29200000D01*
X139900000Y-34800000D02*
X136500000Y-34800000D01*
X139900000Y-34800000D02*
X140500000Y-34200000D01*
X140500000Y-29200000D02*
X140500000Y-34200000D01*
%TD*%
M02*
