%TF.GenerationSoftware,KiCad,Pcbnew,9.0.5*%
%TF.CreationDate,2025-11-29T17:42:32-06:00*%
%TF.ProjectId,KPad,4b506164-2e6b-4696-9361-645f70636258,rev?*%
%TF.SameCoordinates,Original*%
%TF.FileFunction,Paste,Bot*%
%TF.FilePolarity,Positive*%
%FSLAX46Y46*%
G04 Gerber Fmt 4.6, Leading zero omitted, Abs format (unit mm)*
G04 Created by KiCad (PCBNEW 9.0.5) date 2025-11-29 17:42:32*
%MOMM*%
%LPD*%
G01*
G04 APERTURE LIST*
G04 Aperture macros list*
%AMRotRect*
0 Rectangle, with rotation*
0 The origin of the aperture is its center*
0 $1 length*
0 $2 width*
0 $3 Rotation angle, in degrees counterclockwise*
0 Add horizontal line*
21,1,$1,$2,0,0,$3*%
G04 Aperture macros list end*
%ADD10R,1.600000X0.850000*%
%ADD11R,0.850000X1.600000*%
%ADD12RotRect,1.600000X0.850000X135.000000*%
%ADD13RotRect,1.600000X0.850000X225.000000*%
G04 APERTURE END LIST*
D10*
%TO.C,D9*%
X109500000Y-112000000D03*
X109500000Y-113750000D03*
X106000000Y-113750000D03*
X106000000Y-112000000D03*
%TD*%
D11*
%TO.C,D4*%
X62875000Y-82750000D03*
X61125000Y-82750000D03*
X61125000Y-79250000D03*
X62875000Y-79250000D03*
%TD*%
%TO.C,D15*%
X137125000Y-46250000D03*
X138875000Y-46250000D03*
X138875000Y-49750000D03*
X137125000Y-49750000D03*
%TD*%
D10*
%TO.C,D7*%
X80500000Y-112000000D03*
X80500000Y-113750000D03*
X77000000Y-113750000D03*
X77000000Y-112000000D03*
%TD*%
D11*
%TO.C,D12*%
X137125000Y-96250000D03*
X138875000Y-96250000D03*
X138875000Y-99750000D03*
X137125000Y-99750000D03*
%TD*%
%TO.C,D2*%
X62875000Y-49750000D03*
X61125000Y-49750000D03*
X61125000Y-46250000D03*
X62875000Y-46250000D03*
%TD*%
%TO.C,D14*%
X137125000Y-62250000D03*
X138875000Y-62250000D03*
X138875000Y-65750000D03*
X137125000Y-65750000D03*
%TD*%
%TO.C,D3*%
X62875000Y-65750000D03*
X61125000Y-65750000D03*
X61125000Y-62250000D03*
X62875000Y-62250000D03*
%TD*%
%TO.C,D13*%
X137000000Y-79000000D03*
X138750000Y-79000000D03*
X138750000Y-82500000D03*
X137000000Y-82500000D03*
%TD*%
D10*
%TO.C,D8*%
X95750000Y-112125000D03*
X95750000Y-113875000D03*
X92250000Y-113875000D03*
X92250000Y-112125000D03*
%TD*%
D12*
%TO.C,D6*%
X67237437Y-110262563D03*
X66000000Y-111500000D03*
X63525127Y-109025127D03*
X64762564Y-107787690D03*
%TD*%
D13*
%TO.C,D11*%
X134618718Y-108143845D03*
X135856155Y-109381282D03*
X133381282Y-111856155D03*
X132143845Y-110618718D03*
%TD*%
D10*
%TO.C,D10*%
X123000000Y-112000000D03*
X123000000Y-113750000D03*
X119500000Y-113750000D03*
X119500000Y-112000000D03*
%TD*%
D11*
%TO.C,D1*%
X62875000Y-33750000D03*
X61125000Y-33750000D03*
X61125000Y-30250000D03*
X62875000Y-30250000D03*
%TD*%
%TO.C,D5*%
X62875000Y-99750000D03*
X61125000Y-99750000D03*
X61125000Y-96250000D03*
X62875000Y-96250000D03*
%TD*%
%TO.C,D16*%
X137625000Y-30250000D03*
X139375000Y-30250000D03*
X139375000Y-33750000D03*
X137625000Y-33750000D03*
%TD*%
M02*
