%TF.GenerationSoftware,KiCad,Pcbnew,9.0.5*%
%TF.CreationDate,2025-12-01T20:36:26-06:00*%
%TF.ProjectId,KPad,4b506164-2e6b-4696-9361-645f70636258,rev?*%
%TF.SameCoordinates,Original*%
%TF.FileFunction,Drillmap*%
%TF.FilePolarity,Positive*%
%FSLAX45Y45*%
G04 Gerber Fmt 4.5, Leading zero omitted, Abs format (unit mm)*
G04 Created by KiCad (PCBNEW 9.0.5) date 2025-12-01 20:36:26*
%MOMM*%
%LPD*%
G01*
G04 APERTURE LIST*
%ADD10C,0.050000*%
%ADD11C,0.200000*%
%ADD12C,0.170000*%
%ADD13C,0.400000*%
G04 APERTURE END LIST*
D10*
X14100000Y-2700000D02*
X14100000Y-10400000D01*
X5900000Y-2700000D02*
X14100000Y-2700000D01*
X12900000Y-11600000D02*
X7100000Y-11600000D01*
X7100000Y-11600000D02*
G75*
G02*
X5900000Y-10400000I0J1200000D01*
G01*
X14100000Y-10400000D02*
G75*
G02*
X12900000Y-11600000I-1200000J0D01*
G01*
X5900000Y-2700000D02*
X5900000Y-10400000D01*
D11*
D12*
X6519000Y-8011250D02*
X6689000Y-8181250D01*
X6689000Y-8011250D02*
X6519000Y-8181250D01*
X6788875Y-5868125D02*
X6958875Y-6038125D01*
X6958875Y-5868125D02*
X6788875Y-6038125D01*
X7503250Y-9916250D02*
X7673250Y-10086250D01*
X7673250Y-9916250D02*
X7503250Y-10086250D01*
X7535000Y-8011250D02*
X7705000Y-8181250D01*
X7705000Y-8011250D02*
X7535000Y-8181250D01*
X7804875Y-5868125D02*
X7974875Y-6038125D01*
X7974875Y-5868125D02*
X7804875Y-6038125D01*
X8424000Y-8011250D02*
X8594000Y-8181250D01*
X8594000Y-8011250D02*
X8424000Y-8181250D01*
X8519250Y-9916250D02*
X8689250Y-10086250D01*
X8689250Y-9916250D02*
X8519250Y-10086250D01*
X9408250Y-9916250D02*
X9578250Y-10086250D01*
X9578250Y-9916250D02*
X9408250Y-10086250D01*
X9440000Y-8011250D02*
X9610000Y-8181250D01*
X9610000Y-8011250D02*
X9440000Y-8181250D01*
X10329000Y-8011250D02*
X10499000Y-8181250D01*
X10499000Y-8011250D02*
X10329000Y-8181250D01*
X10424250Y-9916250D02*
X10594250Y-10086250D01*
X10594250Y-9916250D02*
X10424250Y-10086250D01*
X11313250Y-9916250D02*
X11483250Y-10086250D01*
X11483250Y-9916250D02*
X11313250Y-10086250D01*
X11345000Y-8011250D02*
X11515000Y-8181250D01*
X11515000Y-8011250D02*
X11345000Y-8181250D01*
X12265750Y-8011250D02*
X12435750Y-8181250D01*
X12435750Y-8011250D02*
X12265750Y-8181250D01*
X12329250Y-9916250D02*
X12499250Y-10086250D01*
X12499250Y-9916250D02*
X12329250Y-10086250D01*
X13281750Y-8011250D02*
X13451750Y-8181250D01*
X13451750Y-8011250D02*
X13281750Y-8181250D01*
D13*
X7312000Y-8096250D02*
G75*
G02*
X6912000Y-8096250I-200000J0D01*
G01*
X6912000Y-8096250D02*
G75*
G02*
X7312000Y-8096250I200000J0D01*
G01*
X7581875Y-5953125D02*
G75*
G02*
X7181875Y-5953125I-200000J0D01*
G01*
X7181875Y-5953125D02*
G75*
G02*
X7581875Y-5953125I200000J0D01*
G01*
X8296250Y-10001250D02*
G75*
G02*
X7896250Y-10001250I-200000J0D01*
G01*
X7896250Y-10001250D02*
G75*
G02*
X8296250Y-10001250I200000J0D01*
G01*
X9217000Y-8096250D02*
G75*
G02*
X8817000Y-8096250I-200000J0D01*
G01*
X8817000Y-8096250D02*
G75*
G02*
X9217000Y-8096250I200000J0D01*
G01*
X10201250Y-10001250D02*
G75*
G02*
X9801250Y-10001250I-200000J0D01*
G01*
X9801250Y-10001250D02*
G75*
G02*
X10201250Y-10001250I200000J0D01*
G01*
X11122000Y-8096250D02*
G75*
G02*
X10722000Y-8096250I-200000J0D01*
G01*
X10722000Y-8096250D02*
G75*
G02*
X11122000Y-8096250I200000J0D01*
G01*
X12106250Y-10001250D02*
G75*
G02*
X11706250Y-10001250I-200000J0D01*
G01*
X11706250Y-10001250D02*
G75*
G02*
X12106250Y-10001250I200000J0D01*
G01*
X13058750Y-8096250D02*
G75*
G02*
X12658750Y-8096250I-200000J0D01*
G01*
X12658750Y-8096250D02*
G75*
G02*
X13058750Y-8096250I200000J0D01*
G01*
D11*
X6158277Y-11913984D02*
X6158277Y-11713984D01*
X6158277Y-11713984D02*
X6205896Y-11713984D01*
X6205896Y-11713984D02*
X6234467Y-11723508D01*
X6234467Y-11723508D02*
X6253515Y-11742555D01*
X6253515Y-11742555D02*
X6263039Y-11761603D01*
X6263039Y-11761603D02*
X6272562Y-11799698D01*
X6272562Y-11799698D02*
X6272562Y-11828269D01*
X6272562Y-11828269D02*
X6263039Y-11866365D01*
X6263039Y-11866365D02*
X6253515Y-11885412D01*
X6253515Y-11885412D02*
X6234467Y-11904460D01*
X6234467Y-11904460D02*
X6205896Y-11913984D01*
X6205896Y-11913984D02*
X6158277Y-11913984D01*
X6358277Y-11913984D02*
X6358277Y-11780650D01*
X6358277Y-11818746D02*
X6367801Y-11799698D01*
X6367801Y-11799698D02*
X6377324Y-11790174D01*
X6377324Y-11790174D02*
X6396372Y-11780650D01*
X6396372Y-11780650D02*
X6415420Y-11780650D01*
X6482086Y-11913984D02*
X6482086Y-11780650D01*
X6482086Y-11713984D02*
X6472562Y-11723508D01*
X6472562Y-11723508D02*
X6482086Y-11733031D01*
X6482086Y-11733031D02*
X6491610Y-11723508D01*
X6491610Y-11723508D02*
X6482086Y-11713984D01*
X6482086Y-11713984D02*
X6482086Y-11733031D01*
X6605896Y-11913984D02*
X6586848Y-11904460D01*
X6586848Y-11904460D02*
X6577324Y-11885412D01*
X6577324Y-11885412D02*
X6577324Y-11713984D01*
X6710658Y-11913984D02*
X6691610Y-11904460D01*
X6691610Y-11904460D02*
X6682086Y-11885412D01*
X6682086Y-11885412D02*
X6682086Y-11713984D01*
X6939229Y-11913984D02*
X6939229Y-11713984D01*
X6939229Y-11713984D02*
X7005896Y-11856841D01*
X7005896Y-11856841D02*
X7072562Y-11713984D01*
X7072562Y-11713984D02*
X7072562Y-11913984D01*
X7253515Y-11913984D02*
X7253515Y-11809222D01*
X7253515Y-11809222D02*
X7243991Y-11790174D01*
X7243991Y-11790174D02*
X7224943Y-11780650D01*
X7224943Y-11780650D02*
X7186848Y-11780650D01*
X7186848Y-11780650D02*
X7167801Y-11790174D01*
X7253515Y-11904460D02*
X7234467Y-11913984D01*
X7234467Y-11913984D02*
X7186848Y-11913984D01*
X7186848Y-11913984D02*
X7167801Y-11904460D01*
X7167801Y-11904460D02*
X7158277Y-11885412D01*
X7158277Y-11885412D02*
X7158277Y-11866365D01*
X7158277Y-11866365D02*
X7167801Y-11847317D01*
X7167801Y-11847317D02*
X7186848Y-11837793D01*
X7186848Y-11837793D02*
X7234467Y-11837793D01*
X7234467Y-11837793D02*
X7253515Y-11828269D01*
X7348753Y-11780650D02*
X7348753Y-11980650D01*
X7348753Y-11790174D02*
X7367801Y-11780650D01*
X7367801Y-11780650D02*
X7405896Y-11780650D01*
X7405896Y-11780650D02*
X7424943Y-11790174D01*
X7424943Y-11790174D02*
X7434467Y-11799698D01*
X7434467Y-11799698D02*
X7443991Y-11818746D01*
X7443991Y-11818746D02*
X7443991Y-11875888D01*
X7443991Y-11875888D02*
X7434467Y-11894936D01*
X7434467Y-11894936D02*
X7424943Y-11904460D01*
X7424943Y-11904460D02*
X7405896Y-11913984D01*
X7405896Y-11913984D02*
X7367801Y-11913984D01*
X7367801Y-11913984D02*
X7348753Y-11904460D01*
X7529705Y-11894936D02*
X7539229Y-11904460D01*
X7539229Y-11904460D02*
X7529705Y-11913984D01*
X7529705Y-11913984D02*
X7520182Y-11904460D01*
X7520182Y-11904460D02*
X7529705Y-11894936D01*
X7529705Y-11894936D02*
X7529705Y-11913984D01*
X7529705Y-11790174D02*
X7539229Y-11799698D01*
X7539229Y-11799698D02*
X7529705Y-11809222D01*
X7529705Y-11809222D02*
X7520182Y-11799698D01*
X7520182Y-11799698D02*
X7529705Y-11790174D01*
X7529705Y-11790174D02*
X7529705Y-11809222D01*
D12*
X5727500Y-12157500D02*
X5897500Y-12327500D01*
X5897500Y-12157500D02*
X5727500Y-12327500D01*
D11*
X6263039Y-12333984D02*
X6148753Y-12333984D01*
X6205896Y-12333984D02*
X6205896Y-12133984D01*
X6205896Y-12133984D02*
X6186848Y-12162555D01*
X6186848Y-12162555D02*
X6167801Y-12181603D01*
X6167801Y-12181603D02*
X6148753Y-12191127D01*
X6348753Y-12314936D02*
X6358277Y-12324460D01*
X6358277Y-12324460D02*
X6348753Y-12333984D01*
X6348753Y-12333984D02*
X6339229Y-12324460D01*
X6339229Y-12324460D02*
X6348753Y-12314936D01*
X6348753Y-12314936D02*
X6348753Y-12333984D01*
X6424943Y-12133984D02*
X6558277Y-12133984D01*
X6558277Y-12133984D02*
X6472562Y-12333984D01*
X6672562Y-12133984D02*
X6691610Y-12133984D01*
X6691610Y-12133984D02*
X6710658Y-12143508D01*
X6710658Y-12143508D02*
X6720182Y-12153031D01*
X6720182Y-12153031D02*
X6729705Y-12172079D01*
X6729705Y-12172079D02*
X6739229Y-12210174D01*
X6739229Y-12210174D02*
X6739229Y-12257793D01*
X6739229Y-12257793D02*
X6729705Y-12295888D01*
X6729705Y-12295888D02*
X6720182Y-12314936D01*
X6720182Y-12314936D02*
X6710658Y-12324460D01*
X6710658Y-12324460D02*
X6691610Y-12333984D01*
X6691610Y-12333984D02*
X6672562Y-12333984D01*
X6672562Y-12333984D02*
X6653515Y-12324460D01*
X6653515Y-12324460D02*
X6643991Y-12314936D01*
X6643991Y-12314936D02*
X6634467Y-12295888D01*
X6634467Y-12295888D02*
X6624943Y-12257793D01*
X6624943Y-12257793D02*
X6624943Y-12210174D01*
X6624943Y-12210174D02*
X6634467Y-12172079D01*
X6634467Y-12172079D02*
X6643991Y-12153031D01*
X6643991Y-12153031D02*
X6653515Y-12143508D01*
X6653515Y-12143508D02*
X6672562Y-12133984D01*
X6863039Y-12133984D02*
X6882086Y-12133984D01*
X6882086Y-12133984D02*
X6901134Y-12143508D01*
X6901134Y-12143508D02*
X6910658Y-12153031D01*
X6910658Y-12153031D02*
X6920182Y-12172079D01*
X6920182Y-12172079D02*
X6929705Y-12210174D01*
X6929705Y-12210174D02*
X6929705Y-12257793D01*
X6929705Y-12257793D02*
X6920182Y-12295888D01*
X6920182Y-12295888D02*
X6910658Y-12314936D01*
X6910658Y-12314936D02*
X6901134Y-12324460D01*
X6901134Y-12324460D02*
X6882086Y-12333984D01*
X6882086Y-12333984D02*
X6863039Y-12333984D01*
X6863039Y-12333984D02*
X6843991Y-12324460D01*
X6843991Y-12324460D02*
X6834467Y-12314936D01*
X6834467Y-12314936D02*
X6824943Y-12295888D01*
X6824943Y-12295888D02*
X6815420Y-12257793D01*
X6815420Y-12257793D02*
X6815420Y-12210174D01*
X6815420Y-12210174D02*
X6824943Y-12172079D01*
X6824943Y-12172079D02*
X6834467Y-12153031D01*
X6834467Y-12153031D02*
X6843991Y-12143508D01*
X6843991Y-12143508D02*
X6863039Y-12133984D01*
X7015420Y-12333984D02*
X7015420Y-12200650D01*
X7015420Y-12219698D02*
X7024943Y-12210174D01*
X7024943Y-12210174D02*
X7043991Y-12200650D01*
X7043991Y-12200650D02*
X7072563Y-12200650D01*
X7072563Y-12200650D02*
X7091610Y-12210174D01*
X7091610Y-12210174D02*
X7101134Y-12229222D01*
X7101134Y-12229222D02*
X7101134Y-12333984D01*
X7101134Y-12229222D02*
X7110658Y-12210174D01*
X7110658Y-12210174D02*
X7129705Y-12200650D01*
X7129705Y-12200650D02*
X7158277Y-12200650D01*
X7158277Y-12200650D02*
X7177324Y-12210174D01*
X7177324Y-12210174D02*
X7186848Y-12229222D01*
X7186848Y-12229222D02*
X7186848Y-12333984D01*
X7282086Y-12333984D02*
X7282086Y-12200650D01*
X7282086Y-12219698D02*
X7291610Y-12210174D01*
X7291610Y-12210174D02*
X7310658Y-12200650D01*
X7310658Y-12200650D02*
X7339229Y-12200650D01*
X7339229Y-12200650D02*
X7358277Y-12210174D01*
X7358277Y-12210174D02*
X7367801Y-12229222D01*
X7367801Y-12229222D02*
X7367801Y-12333984D01*
X7367801Y-12229222D02*
X7377324Y-12210174D01*
X7377324Y-12210174D02*
X7396372Y-12200650D01*
X7396372Y-12200650D02*
X7424943Y-12200650D01*
X7424943Y-12200650D02*
X7443991Y-12210174D01*
X7443991Y-12210174D02*
X7453515Y-12229222D01*
X7453515Y-12229222D02*
X7453515Y-12333984D01*
X7843991Y-12124460D02*
X7672563Y-12381603D01*
X8101134Y-12133984D02*
X8120182Y-12133984D01*
X8120182Y-12133984D02*
X8139229Y-12143508D01*
X8139229Y-12143508D02*
X8148753Y-12153031D01*
X8148753Y-12153031D02*
X8158277Y-12172079D01*
X8158277Y-12172079D02*
X8167801Y-12210174D01*
X8167801Y-12210174D02*
X8167801Y-12257793D01*
X8167801Y-12257793D02*
X8158277Y-12295888D01*
X8158277Y-12295888D02*
X8148753Y-12314936D01*
X8148753Y-12314936D02*
X8139229Y-12324460D01*
X8139229Y-12324460D02*
X8120182Y-12333984D01*
X8120182Y-12333984D02*
X8101134Y-12333984D01*
X8101134Y-12333984D02*
X8082086Y-12324460D01*
X8082086Y-12324460D02*
X8072563Y-12314936D01*
X8072563Y-12314936D02*
X8063039Y-12295888D01*
X8063039Y-12295888D02*
X8053515Y-12257793D01*
X8053515Y-12257793D02*
X8053515Y-12210174D01*
X8053515Y-12210174D02*
X8063039Y-12172079D01*
X8063039Y-12172079D02*
X8072563Y-12153031D01*
X8072563Y-12153031D02*
X8082086Y-12143508D01*
X8082086Y-12143508D02*
X8101134Y-12133984D01*
X8253515Y-12314936D02*
X8263039Y-12324460D01*
X8263039Y-12324460D02*
X8253515Y-12333984D01*
X8253515Y-12333984D02*
X8243991Y-12324460D01*
X8243991Y-12324460D02*
X8253515Y-12314936D01*
X8253515Y-12314936D02*
X8253515Y-12333984D01*
X8386848Y-12133984D02*
X8405896Y-12133984D01*
X8405896Y-12133984D02*
X8424944Y-12143508D01*
X8424944Y-12143508D02*
X8434468Y-12153031D01*
X8434468Y-12153031D02*
X8443991Y-12172079D01*
X8443991Y-12172079D02*
X8453515Y-12210174D01*
X8453515Y-12210174D02*
X8453515Y-12257793D01*
X8453515Y-12257793D02*
X8443991Y-12295888D01*
X8443991Y-12295888D02*
X8434468Y-12314936D01*
X8434468Y-12314936D02*
X8424944Y-12324460D01*
X8424944Y-12324460D02*
X8405896Y-12333984D01*
X8405896Y-12333984D02*
X8386848Y-12333984D01*
X8386848Y-12333984D02*
X8367801Y-12324460D01*
X8367801Y-12324460D02*
X8358277Y-12314936D01*
X8358277Y-12314936D02*
X8348753Y-12295888D01*
X8348753Y-12295888D02*
X8339229Y-12257793D01*
X8339229Y-12257793D02*
X8339229Y-12210174D01*
X8339229Y-12210174D02*
X8348753Y-12172079D01*
X8348753Y-12172079D02*
X8358277Y-12153031D01*
X8358277Y-12153031D02*
X8367801Y-12143508D01*
X8367801Y-12143508D02*
X8386848Y-12133984D01*
X8624944Y-12133984D02*
X8586848Y-12133984D01*
X8586848Y-12133984D02*
X8567801Y-12143508D01*
X8567801Y-12143508D02*
X8558277Y-12153031D01*
X8558277Y-12153031D02*
X8539229Y-12181603D01*
X8539229Y-12181603D02*
X8529706Y-12219698D01*
X8529706Y-12219698D02*
X8529706Y-12295888D01*
X8529706Y-12295888D02*
X8539229Y-12314936D01*
X8539229Y-12314936D02*
X8548753Y-12324460D01*
X8548753Y-12324460D02*
X8567801Y-12333984D01*
X8567801Y-12333984D02*
X8605896Y-12333984D01*
X8605896Y-12333984D02*
X8624944Y-12324460D01*
X8624944Y-12324460D02*
X8634468Y-12314936D01*
X8634468Y-12314936D02*
X8643991Y-12295888D01*
X8643991Y-12295888D02*
X8643991Y-12248269D01*
X8643991Y-12248269D02*
X8634468Y-12229222D01*
X8634468Y-12229222D02*
X8624944Y-12219698D01*
X8624944Y-12219698D02*
X8605896Y-12210174D01*
X8605896Y-12210174D02*
X8567801Y-12210174D01*
X8567801Y-12210174D02*
X8548753Y-12219698D01*
X8548753Y-12219698D02*
X8539229Y-12229222D01*
X8539229Y-12229222D02*
X8529706Y-12248269D01*
X8815420Y-12133984D02*
X8777325Y-12133984D01*
X8777325Y-12133984D02*
X8758277Y-12143508D01*
X8758277Y-12143508D02*
X8748753Y-12153031D01*
X8748753Y-12153031D02*
X8729706Y-12181603D01*
X8729706Y-12181603D02*
X8720182Y-12219698D01*
X8720182Y-12219698D02*
X8720182Y-12295888D01*
X8720182Y-12295888D02*
X8729706Y-12314936D01*
X8729706Y-12314936D02*
X8739229Y-12324460D01*
X8739229Y-12324460D02*
X8758277Y-12333984D01*
X8758277Y-12333984D02*
X8796372Y-12333984D01*
X8796372Y-12333984D02*
X8815420Y-12324460D01*
X8815420Y-12324460D02*
X8824944Y-12314936D01*
X8824944Y-12314936D02*
X8834468Y-12295888D01*
X8834468Y-12295888D02*
X8834468Y-12248269D01*
X8834468Y-12248269D02*
X8824944Y-12229222D01*
X8824944Y-12229222D02*
X8815420Y-12219698D01*
X8815420Y-12219698D02*
X8796372Y-12210174D01*
X8796372Y-12210174D02*
X8758277Y-12210174D01*
X8758277Y-12210174D02*
X8739229Y-12219698D01*
X8739229Y-12219698D02*
X8729706Y-12229222D01*
X8729706Y-12229222D02*
X8720182Y-12248269D01*
X8929706Y-12333984D02*
X8967801Y-12333984D01*
X8967801Y-12333984D02*
X8986849Y-12324460D01*
X8986849Y-12324460D02*
X8996372Y-12314936D01*
X8996372Y-12314936D02*
X9015420Y-12286365D01*
X9015420Y-12286365D02*
X9024944Y-12248269D01*
X9024944Y-12248269D02*
X9024944Y-12172079D01*
X9024944Y-12172079D02*
X9015420Y-12153031D01*
X9015420Y-12153031D02*
X9005896Y-12143508D01*
X9005896Y-12143508D02*
X8986849Y-12133984D01*
X8986849Y-12133984D02*
X8948753Y-12133984D01*
X8948753Y-12133984D02*
X8929706Y-12143508D01*
X8929706Y-12143508D02*
X8920182Y-12153031D01*
X8920182Y-12153031D02*
X8910658Y-12172079D01*
X8910658Y-12172079D02*
X8910658Y-12219698D01*
X8910658Y-12219698D02*
X8920182Y-12238746D01*
X8920182Y-12238746D02*
X8929706Y-12248269D01*
X8929706Y-12248269D02*
X8948753Y-12257793D01*
X8948753Y-12257793D02*
X8986849Y-12257793D01*
X8986849Y-12257793D02*
X9005896Y-12248269D01*
X9005896Y-12248269D02*
X9015420Y-12238746D01*
X9015420Y-12238746D02*
X9024944Y-12219698D01*
X9101134Y-12133984D02*
X9101134Y-12172079D01*
X9177325Y-12133984D02*
X9177325Y-12172079D01*
X9472563Y-12410174D02*
X9463039Y-12400650D01*
X9463039Y-12400650D02*
X9443991Y-12372079D01*
X9443991Y-12372079D02*
X9434468Y-12353031D01*
X9434468Y-12353031D02*
X9424944Y-12324460D01*
X9424944Y-12324460D02*
X9415420Y-12276841D01*
X9415420Y-12276841D02*
X9415420Y-12238746D01*
X9415420Y-12238746D02*
X9424944Y-12191127D01*
X9424944Y-12191127D02*
X9434468Y-12162555D01*
X9434468Y-12162555D02*
X9443991Y-12143508D01*
X9443991Y-12143508D02*
X9463039Y-12114936D01*
X9463039Y-12114936D02*
X9472563Y-12105412D01*
X9653515Y-12333984D02*
X9539230Y-12333984D01*
X9596372Y-12333984D02*
X9596372Y-12133984D01*
X9596372Y-12133984D02*
X9577325Y-12162555D01*
X9577325Y-12162555D02*
X9558277Y-12181603D01*
X9558277Y-12181603D02*
X9539230Y-12191127D01*
X9824944Y-12133984D02*
X9786849Y-12133984D01*
X9786849Y-12133984D02*
X9767801Y-12143508D01*
X9767801Y-12143508D02*
X9758277Y-12153031D01*
X9758277Y-12153031D02*
X9739230Y-12181603D01*
X9739230Y-12181603D02*
X9729706Y-12219698D01*
X9729706Y-12219698D02*
X9729706Y-12295888D01*
X9729706Y-12295888D02*
X9739230Y-12314936D01*
X9739230Y-12314936D02*
X9748753Y-12324460D01*
X9748753Y-12324460D02*
X9767801Y-12333984D01*
X9767801Y-12333984D02*
X9805896Y-12333984D01*
X9805896Y-12333984D02*
X9824944Y-12324460D01*
X9824944Y-12324460D02*
X9834468Y-12314936D01*
X9834468Y-12314936D02*
X9843991Y-12295888D01*
X9843991Y-12295888D02*
X9843991Y-12248269D01*
X9843991Y-12248269D02*
X9834468Y-12229222D01*
X9834468Y-12229222D02*
X9824944Y-12219698D01*
X9824944Y-12219698D02*
X9805896Y-12210174D01*
X9805896Y-12210174D02*
X9767801Y-12210174D01*
X9767801Y-12210174D02*
X9748753Y-12219698D01*
X9748753Y-12219698D02*
X9739230Y-12229222D01*
X9739230Y-12229222D02*
X9729706Y-12248269D01*
X10082087Y-12333984D02*
X10082087Y-12133984D01*
X10167801Y-12333984D02*
X10167801Y-12229222D01*
X10167801Y-12229222D02*
X10158277Y-12210174D01*
X10158277Y-12210174D02*
X10139230Y-12200650D01*
X10139230Y-12200650D02*
X10110658Y-12200650D01*
X10110658Y-12200650D02*
X10091611Y-12210174D01*
X10091611Y-12210174D02*
X10082087Y-12219698D01*
X10291611Y-12333984D02*
X10272563Y-12324460D01*
X10272563Y-12324460D02*
X10263039Y-12314936D01*
X10263039Y-12314936D02*
X10253515Y-12295888D01*
X10253515Y-12295888D02*
X10253515Y-12238746D01*
X10253515Y-12238746D02*
X10263039Y-12219698D01*
X10263039Y-12219698D02*
X10272563Y-12210174D01*
X10272563Y-12210174D02*
X10291611Y-12200650D01*
X10291611Y-12200650D02*
X10320182Y-12200650D01*
X10320182Y-12200650D02*
X10339230Y-12210174D01*
X10339230Y-12210174D02*
X10348753Y-12219698D01*
X10348753Y-12219698D02*
X10358277Y-12238746D01*
X10358277Y-12238746D02*
X10358277Y-12295888D01*
X10358277Y-12295888D02*
X10348753Y-12314936D01*
X10348753Y-12314936D02*
X10339230Y-12324460D01*
X10339230Y-12324460D02*
X10320182Y-12333984D01*
X10320182Y-12333984D02*
X10291611Y-12333984D01*
X10472563Y-12333984D02*
X10453515Y-12324460D01*
X10453515Y-12324460D02*
X10443992Y-12305412D01*
X10443992Y-12305412D02*
X10443992Y-12133984D01*
X10624944Y-12324460D02*
X10605896Y-12333984D01*
X10605896Y-12333984D02*
X10567801Y-12333984D01*
X10567801Y-12333984D02*
X10548753Y-12324460D01*
X10548753Y-12324460D02*
X10539230Y-12305412D01*
X10539230Y-12305412D02*
X10539230Y-12229222D01*
X10539230Y-12229222D02*
X10548753Y-12210174D01*
X10548753Y-12210174D02*
X10567801Y-12200650D01*
X10567801Y-12200650D02*
X10605896Y-12200650D01*
X10605896Y-12200650D02*
X10624944Y-12210174D01*
X10624944Y-12210174D02*
X10634468Y-12229222D01*
X10634468Y-12229222D02*
X10634468Y-12248269D01*
X10634468Y-12248269D02*
X10539230Y-12267317D01*
X10710658Y-12324460D02*
X10729706Y-12333984D01*
X10729706Y-12333984D02*
X10767801Y-12333984D01*
X10767801Y-12333984D02*
X10786849Y-12324460D01*
X10786849Y-12324460D02*
X10796373Y-12305412D01*
X10796373Y-12305412D02*
X10796373Y-12295888D01*
X10796373Y-12295888D02*
X10786849Y-12276841D01*
X10786849Y-12276841D02*
X10767801Y-12267317D01*
X10767801Y-12267317D02*
X10739230Y-12267317D01*
X10739230Y-12267317D02*
X10720182Y-12257793D01*
X10720182Y-12257793D02*
X10710658Y-12238746D01*
X10710658Y-12238746D02*
X10710658Y-12229222D01*
X10710658Y-12229222D02*
X10720182Y-12210174D01*
X10720182Y-12210174D02*
X10739230Y-12200650D01*
X10739230Y-12200650D02*
X10767801Y-12200650D01*
X10767801Y-12200650D02*
X10786849Y-12210174D01*
X10863039Y-12410174D02*
X10872563Y-12400650D01*
X10872563Y-12400650D02*
X10891611Y-12372079D01*
X10891611Y-12372079D02*
X10901134Y-12353031D01*
X10901134Y-12353031D02*
X10910658Y-12324460D01*
X10910658Y-12324460D02*
X10920182Y-12276841D01*
X10920182Y-12276841D02*
X10920182Y-12238746D01*
X10920182Y-12238746D02*
X10910658Y-12191127D01*
X10910658Y-12191127D02*
X10901134Y-12162555D01*
X10901134Y-12162555D02*
X10891611Y-12143508D01*
X10891611Y-12143508D02*
X10872563Y-12114936D01*
X10872563Y-12114936D02*
X10863039Y-12105412D01*
X11224944Y-12410174D02*
X11215420Y-12400650D01*
X11215420Y-12400650D02*
X11196372Y-12372079D01*
X11196372Y-12372079D02*
X11186849Y-12353031D01*
X11186849Y-12353031D02*
X11177325Y-12324460D01*
X11177325Y-12324460D02*
X11167801Y-12276841D01*
X11167801Y-12276841D02*
X11167801Y-12238746D01*
X11167801Y-12238746D02*
X11177325Y-12191127D01*
X11177325Y-12191127D02*
X11186849Y-12162555D01*
X11186849Y-12162555D02*
X11196372Y-12143508D01*
X11196372Y-12143508D02*
X11215420Y-12114936D01*
X11215420Y-12114936D02*
X11224944Y-12105412D01*
X11301134Y-12200650D02*
X11301134Y-12333984D01*
X11301134Y-12219698D02*
X11310658Y-12210174D01*
X11310658Y-12210174D02*
X11329706Y-12200650D01*
X11329706Y-12200650D02*
X11358277Y-12200650D01*
X11358277Y-12200650D02*
X11377325Y-12210174D01*
X11377325Y-12210174D02*
X11386849Y-12229222D01*
X11386849Y-12229222D02*
X11386849Y-12333984D01*
X11510658Y-12333984D02*
X11491611Y-12324460D01*
X11491611Y-12324460D02*
X11482087Y-12314936D01*
X11482087Y-12314936D02*
X11472563Y-12295888D01*
X11472563Y-12295888D02*
X11472563Y-12238746D01*
X11472563Y-12238746D02*
X11482087Y-12219698D01*
X11482087Y-12219698D02*
X11491611Y-12210174D01*
X11491611Y-12210174D02*
X11510658Y-12200650D01*
X11510658Y-12200650D02*
X11539230Y-12200650D01*
X11539230Y-12200650D02*
X11558277Y-12210174D01*
X11558277Y-12210174D02*
X11567801Y-12219698D01*
X11567801Y-12219698D02*
X11577325Y-12238746D01*
X11577325Y-12238746D02*
X11577325Y-12295888D01*
X11577325Y-12295888D02*
X11567801Y-12314936D01*
X11567801Y-12314936D02*
X11558277Y-12324460D01*
X11558277Y-12324460D02*
X11539230Y-12333984D01*
X11539230Y-12333984D02*
X11510658Y-12333984D01*
X11634468Y-12200650D02*
X11710658Y-12200650D01*
X11663039Y-12133984D02*
X11663039Y-12305412D01*
X11663039Y-12305412D02*
X11672563Y-12324460D01*
X11672563Y-12324460D02*
X11691611Y-12333984D01*
X11691611Y-12333984D02*
X11710658Y-12333984D01*
X11929706Y-12200650D02*
X11929706Y-12400650D01*
X11929706Y-12210174D02*
X11948753Y-12200650D01*
X11948753Y-12200650D02*
X11986849Y-12200650D01*
X11986849Y-12200650D02*
X12005896Y-12210174D01*
X12005896Y-12210174D02*
X12015420Y-12219698D01*
X12015420Y-12219698D02*
X12024944Y-12238746D01*
X12024944Y-12238746D02*
X12024944Y-12295888D01*
X12024944Y-12295888D02*
X12015420Y-12314936D01*
X12015420Y-12314936D02*
X12005896Y-12324460D01*
X12005896Y-12324460D02*
X11986849Y-12333984D01*
X11986849Y-12333984D02*
X11948753Y-12333984D01*
X11948753Y-12333984D02*
X11929706Y-12324460D01*
X12139230Y-12333984D02*
X12120182Y-12324460D01*
X12120182Y-12324460D02*
X12110658Y-12305412D01*
X12110658Y-12305412D02*
X12110658Y-12133984D01*
X12301134Y-12333984D02*
X12301134Y-12229222D01*
X12301134Y-12229222D02*
X12291611Y-12210174D01*
X12291611Y-12210174D02*
X12272563Y-12200650D01*
X12272563Y-12200650D02*
X12234468Y-12200650D01*
X12234468Y-12200650D02*
X12215420Y-12210174D01*
X12301134Y-12324460D02*
X12282087Y-12333984D01*
X12282087Y-12333984D02*
X12234468Y-12333984D01*
X12234468Y-12333984D02*
X12215420Y-12324460D01*
X12215420Y-12324460D02*
X12205896Y-12305412D01*
X12205896Y-12305412D02*
X12205896Y-12286365D01*
X12205896Y-12286365D02*
X12215420Y-12267317D01*
X12215420Y-12267317D02*
X12234468Y-12257793D01*
X12234468Y-12257793D02*
X12282087Y-12257793D01*
X12282087Y-12257793D02*
X12301134Y-12248269D01*
X12367801Y-12200650D02*
X12443992Y-12200650D01*
X12396373Y-12133984D02*
X12396373Y-12305412D01*
X12396373Y-12305412D02*
X12405896Y-12324460D01*
X12405896Y-12324460D02*
X12424944Y-12333984D01*
X12424944Y-12333984D02*
X12443992Y-12333984D01*
X12586849Y-12324460D02*
X12567801Y-12333984D01*
X12567801Y-12333984D02*
X12529706Y-12333984D01*
X12529706Y-12333984D02*
X12510658Y-12324460D01*
X12510658Y-12324460D02*
X12501134Y-12305412D01*
X12501134Y-12305412D02*
X12501134Y-12229222D01*
X12501134Y-12229222D02*
X12510658Y-12210174D01*
X12510658Y-12210174D02*
X12529706Y-12200650D01*
X12529706Y-12200650D02*
X12567801Y-12200650D01*
X12567801Y-12200650D02*
X12586849Y-12210174D01*
X12586849Y-12210174D02*
X12596373Y-12229222D01*
X12596373Y-12229222D02*
X12596373Y-12248269D01*
X12596373Y-12248269D02*
X12501134Y-12267317D01*
X12767801Y-12333984D02*
X12767801Y-12133984D01*
X12767801Y-12324460D02*
X12748754Y-12333984D01*
X12748754Y-12333984D02*
X12710658Y-12333984D01*
X12710658Y-12333984D02*
X12691611Y-12324460D01*
X12691611Y-12324460D02*
X12682087Y-12314936D01*
X12682087Y-12314936D02*
X12672563Y-12295888D01*
X12672563Y-12295888D02*
X12672563Y-12238746D01*
X12672563Y-12238746D02*
X12682087Y-12219698D01*
X12682087Y-12219698D02*
X12691611Y-12210174D01*
X12691611Y-12210174D02*
X12710658Y-12200650D01*
X12710658Y-12200650D02*
X12748754Y-12200650D01*
X12748754Y-12200650D02*
X12767801Y-12210174D01*
X12843992Y-12410174D02*
X12853515Y-12400650D01*
X12853515Y-12400650D02*
X12872563Y-12372079D01*
X12872563Y-12372079D02*
X12882087Y-12353031D01*
X12882087Y-12353031D02*
X12891611Y-12324460D01*
X12891611Y-12324460D02*
X12901134Y-12276841D01*
X12901134Y-12276841D02*
X12901134Y-12238746D01*
X12901134Y-12238746D02*
X12891611Y-12191127D01*
X12891611Y-12191127D02*
X12882087Y-12162555D01*
X12882087Y-12162555D02*
X12872563Y-12143508D01*
X12872563Y-12143508D02*
X12853515Y-12114936D01*
X12853515Y-12114936D02*
X12843992Y-12105412D01*
X5897500Y-12532500D02*
G75*
G02*
X5697500Y-12532500I-100000J0D01*
G01*
X5697500Y-12532500D02*
G75*
G02*
X5897500Y-12532500I100000J0D01*
G01*
X6243991Y-12490650D02*
X6243991Y-12623984D01*
X6196372Y-12414460D02*
X6148753Y-12557317D01*
X6148753Y-12557317D02*
X6272562Y-12557317D01*
X6348753Y-12604936D02*
X6358277Y-12614460D01*
X6358277Y-12614460D02*
X6348753Y-12623984D01*
X6348753Y-12623984D02*
X6339229Y-12614460D01*
X6339229Y-12614460D02*
X6348753Y-12604936D01*
X6348753Y-12604936D02*
X6348753Y-12623984D01*
X6482086Y-12423984D02*
X6501134Y-12423984D01*
X6501134Y-12423984D02*
X6520182Y-12433508D01*
X6520182Y-12433508D02*
X6529705Y-12443031D01*
X6529705Y-12443031D02*
X6539229Y-12462079D01*
X6539229Y-12462079D02*
X6548753Y-12500174D01*
X6548753Y-12500174D02*
X6548753Y-12547793D01*
X6548753Y-12547793D02*
X6539229Y-12585888D01*
X6539229Y-12585888D02*
X6529705Y-12604936D01*
X6529705Y-12604936D02*
X6520182Y-12614460D01*
X6520182Y-12614460D02*
X6501134Y-12623984D01*
X6501134Y-12623984D02*
X6482086Y-12623984D01*
X6482086Y-12623984D02*
X6463039Y-12614460D01*
X6463039Y-12614460D02*
X6453515Y-12604936D01*
X6453515Y-12604936D02*
X6443991Y-12585888D01*
X6443991Y-12585888D02*
X6434467Y-12547793D01*
X6434467Y-12547793D02*
X6434467Y-12500174D01*
X6434467Y-12500174D02*
X6443991Y-12462079D01*
X6443991Y-12462079D02*
X6453515Y-12443031D01*
X6453515Y-12443031D02*
X6463039Y-12433508D01*
X6463039Y-12433508D02*
X6482086Y-12423984D01*
X6672562Y-12423984D02*
X6691610Y-12423984D01*
X6691610Y-12423984D02*
X6710658Y-12433508D01*
X6710658Y-12433508D02*
X6720182Y-12443031D01*
X6720182Y-12443031D02*
X6729705Y-12462079D01*
X6729705Y-12462079D02*
X6739229Y-12500174D01*
X6739229Y-12500174D02*
X6739229Y-12547793D01*
X6739229Y-12547793D02*
X6729705Y-12585888D01*
X6729705Y-12585888D02*
X6720182Y-12604936D01*
X6720182Y-12604936D02*
X6710658Y-12614460D01*
X6710658Y-12614460D02*
X6691610Y-12623984D01*
X6691610Y-12623984D02*
X6672562Y-12623984D01*
X6672562Y-12623984D02*
X6653515Y-12614460D01*
X6653515Y-12614460D02*
X6643991Y-12604936D01*
X6643991Y-12604936D02*
X6634467Y-12585888D01*
X6634467Y-12585888D02*
X6624943Y-12547793D01*
X6624943Y-12547793D02*
X6624943Y-12500174D01*
X6624943Y-12500174D02*
X6634467Y-12462079D01*
X6634467Y-12462079D02*
X6643991Y-12443031D01*
X6643991Y-12443031D02*
X6653515Y-12433508D01*
X6653515Y-12433508D02*
X6672562Y-12423984D01*
X6863039Y-12423984D02*
X6882086Y-12423984D01*
X6882086Y-12423984D02*
X6901134Y-12433508D01*
X6901134Y-12433508D02*
X6910658Y-12443031D01*
X6910658Y-12443031D02*
X6920182Y-12462079D01*
X6920182Y-12462079D02*
X6929705Y-12500174D01*
X6929705Y-12500174D02*
X6929705Y-12547793D01*
X6929705Y-12547793D02*
X6920182Y-12585888D01*
X6920182Y-12585888D02*
X6910658Y-12604936D01*
X6910658Y-12604936D02*
X6901134Y-12614460D01*
X6901134Y-12614460D02*
X6882086Y-12623984D01*
X6882086Y-12623984D02*
X6863039Y-12623984D01*
X6863039Y-12623984D02*
X6843991Y-12614460D01*
X6843991Y-12614460D02*
X6834467Y-12604936D01*
X6834467Y-12604936D02*
X6824943Y-12585888D01*
X6824943Y-12585888D02*
X6815420Y-12547793D01*
X6815420Y-12547793D02*
X6815420Y-12500174D01*
X6815420Y-12500174D02*
X6824943Y-12462079D01*
X6824943Y-12462079D02*
X6834467Y-12443031D01*
X6834467Y-12443031D02*
X6843991Y-12433508D01*
X6843991Y-12433508D02*
X6863039Y-12423984D01*
X7015420Y-12623984D02*
X7015420Y-12490650D01*
X7015420Y-12509698D02*
X7024943Y-12500174D01*
X7024943Y-12500174D02*
X7043991Y-12490650D01*
X7043991Y-12490650D02*
X7072563Y-12490650D01*
X7072563Y-12490650D02*
X7091610Y-12500174D01*
X7091610Y-12500174D02*
X7101134Y-12519222D01*
X7101134Y-12519222D02*
X7101134Y-12623984D01*
X7101134Y-12519222D02*
X7110658Y-12500174D01*
X7110658Y-12500174D02*
X7129705Y-12490650D01*
X7129705Y-12490650D02*
X7158277Y-12490650D01*
X7158277Y-12490650D02*
X7177324Y-12500174D01*
X7177324Y-12500174D02*
X7186848Y-12519222D01*
X7186848Y-12519222D02*
X7186848Y-12623984D01*
X7282086Y-12623984D02*
X7282086Y-12490650D01*
X7282086Y-12509698D02*
X7291610Y-12500174D01*
X7291610Y-12500174D02*
X7310658Y-12490650D01*
X7310658Y-12490650D02*
X7339229Y-12490650D01*
X7339229Y-12490650D02*
X7358277Y-12500174D01*
X7358277Y-12500174D02*
X7367801Y-12519222D01*
X7367801Y-12519222D02*
X7367801Y-12623984D01*
X7367801Y-12519222D02*
X7377324Y-12500174D01*
X7377324Y-12500174D02*
X7396372Y-12490650D01*
X7396372Y-12490650D02*
X7424943Y-12490650D01*
X7424943Y-12490650D02*
X7443991Y-12500174D01*
X7443991Y-12500174D02*
X7453515Y-12519222D01*
X7453515Y-12519222D02*
X7453515Y-12623984D01*
X7843991Y-12414460D02*
X7672563Y-12671603D01*
X8101134Y-12423984D02*
X8120182Y-12423984D01*
X8120182Y-12423984D02*
X8139229Y-12433508D01*
X8139229Y-12433508D02*
X8148753Y-12443031D01*
X8148753Y-12443031D02*
X8158277Y-12462079D01*
X8158277Y-12462079D02*
X8167801Y-12500174D01*
X8167801Y-12500174D02*
X8167801Y-12547793D01*
X8167801Y-12547793D02*
X8158277Y-12585888D01*
X8158277Y-12585888D02*
X8148753Y-12604936D01*
X8148753Y-12604936D02*
X8139229Y-12614460D01*
X8139229Y-12614460D02*
X8120182Y-12623984D01*
X8120182Y-12623984D02*
X8101134Y-12623984D01*
X8101134Y-12623984D02*
X8082086Y-12614460D01*
X8082086Y-12614460D02*
X8072563Y-12604936D01*
X8072563Y-12604936D02*
X8063039Y-12585888D01*
X8063039Y-12585888D02*
X8053515Y-12547793D01*
X8053515Y-12547793D02*
X8053515Y-12500174D01*
X8053515Y-12500174D02*
X8063039Y-12462079D01*
X8063039Y-12462079D02*
X8072563Y-12443031D01*
X8072563Y-12443031D02*
X8082086Y-12433508D01*
X8082086Y-12433508D02*
X8101134Y-12423984D01*
X8253515Y-12604936D02*
X8263039Y-12614460D01*
X8263039Y-12614460D02*
X8253515Y-12623984D01*
X8253515Y-12623984D02*
X8243991Y-12614460D01*
X8243991Y-12614460D02*
X8253515Y-12604936D01*
X8253515Y-12604936D02*
X8253515Y-12623984D01*
X8453515Y-12623984D02*
X8339229Y-12623984D01*
X8396372Y-12623984D02*
X8396372Y-12423984D01*
X8396372Y-12423984D02*
X8377325Y-12452555D01*
X8377325Y-12452555D02*
X8358277Y-12471603D01*
X8358277Y-12471603D02*
X8339229Y-12481127D01*
X8634468Y-12423984D02*
X8539229Y-12423984D01*
X8539229Y-12423984D02*
X8529706Y-12519222D01*
X8529706Y-12519222D02*
X8539229Y-12509698D01*
X8539229Y-12509698D02*
X8558277Y-12500174D01*
X8558277Y-12500174D02*
X8605896Y-12500174D01*
X8605896Y-12500174D02*
X8624944Y-12509698D01*
X8624944Y-12509698D02*
X8634468Y-12519222D01*
X8634468Y-12519222D02*
X8643991Y-12538269D01*
X8643991Y-12538269D02*
X8643991Y-12585888D01*
X8643991Y-12585888D02*
X8634468Y-12604936D01*
X8634468Y-12604936D02*
X8624944Y-12614460D01*
X8624944Y-12614460D02*
X8605896Y-12623984D01*
X8605896Y-12623984D02*
X8558277Y-12623984D01*
X8558277Y-12623984D02*
X8539229Y-12614460D01*
X8539229Y-12614460D02*
X8529706Y-12604936D01*
X8710658Y-12423984D02*
X8843991Y-12423984D01*
X8843991Y-12423984D02*
X8758277Y-12623984D01*
X9015420Y-12423984D02*
X8920182Y-12423984D01*
X8920182Y-12423984D02*
X8910658Y-12519222D01*
X8910658Y-12519222D02*
X8920182Y-12509698D01*
X8920182Y-12509698D02*
X8939229Y-12500174D01*
X8939229Y-12500174D02*
X8986849Y-12500174D01*
X8986849Y-12500174D02*
X9005896Y-12509698D01*
X9005896Y-12509698D02*
X9015420Y-12519222D01*
X9015420Y-12519222D02*
X9024944Y-12538269D01*
X9024944Y-12538269D02*
X9024944Y-12585888D01*
X9024944Y-12585888D02*
X9015420Y-12604936D01*
X9015420Y-12604936D02*
X9005896Y-12614460D01*
X9005896Y-12614460D02*
X8986849Y-12623984D01*
X8986849Y-12623984D02*
X8939229Y-12623984D01*
X8939229Y-12623984D02*
X8920182Y-12614460D01*
X8920182Y-12614460D02*
X8910658Y-12604936D01*
X9101134Y-12423984D02*
X9101134Y-12462079D01*
X9177325Y-12423984D02*
X9177325Y-12462079D01*
X9472563Y-12700174D02*
X9463039Y-12690650D01*
X9463039Y-12690650D02*
X9443991Y-12662079D01*
X9443991Y-12662079D02*
X9434468Y-12643031D01*
X9434468Y-12643031D02*
X9424944Y-12614460D01*
X9424944Y-12614460D02*
X9415420Y-12566841D01*
X9415420Y-12566841D02*
X9415420Y-12528746D01*
X9415420Y-12528746D02*
X9424944Y-12481127D01*
X9424944Y-12481127D02*
X9434468Y-12452555D01*
X9434468Y-12452555D02*
X9443991Y-12433508D01*
X9443991Y-12433508D02*
X9463039Y-12404936D01*
X9463039Y-12404936D02*
X9472563Y-12395412D01*
X9577325Y-12509698D02*
X9558277Y-12500174D01*
X9558277Y-12500174D02*
X9548753Y-12490650D01*
X9548753Y-12490650D02*
X9539230Y-12471603D01*
X9539230Y-12471603D02*
X9539230Y-12462079D01*
X9539230Y-12462079D02*
X9548753Y-12443031D01*
X9548753Y-12443031D02*
X9558277Y-12433508D01*
X9558277Y-12433508D02*
X9577325Y-12423984D01*
X9577325Y-12423984D02*
X9615420Y-12423984D01*
X9615420Y-12423984D02*
X9634468Y-12433508D01*
X9634468Y-12433508D02*
X9643991Y-12443031D01*
X9643991Y-12443031D02*
X9653515Y-12462079D01*
X9653515Y-12462079D02*
X9653515Y-12471603D01*
X9653515Y-12471603D02*
X9643991Y-12490650D01*
X9643991Y-12490650D02*
X9634468Y-12500174D01*
X9634468Y-12500174D02*
X9615420Y-12509698D01*
X9615420Y-12509698D02*
X9577325Y-12509698D01*
X9577325Y-12509698D02*
X9558277Y-12519222D01*
X9558277Y-12519222D02*
X9548753Y-12528746D01*
X9548753Y-12528746D02*
X9539230Y-12547793D01*
X9539230Y-12547793D02*
X9539230Y-12585888D01*
X9539230Y-12585888D02*
X9548753Y-12604936D01*
X9548753Y-12604936D02*
X9558277Y-12614460D01*
X9558277Y-12614460D02*
X9577325Y-12623984D01*
X9577325Y-12623984D02*
X9615420Y-12623984D01*
X9615420Y-12623984D02*
X9634468Y-12614460D01*
X9634468Y-12614460D02*
X9643991Y-12604936D01*
X9643991Y-12604936D02*
X9653515Y-12585888D01*
X9653515Y-12585888D02*
X9653515Y-12547793D01*
X9653515Y-12547793D02*
X9643991Y-12528746D01*
X9643991Y-12528746D02*
X9634468Y-12519222D01*
X9634468Y-12519222D02*
X9615420Y-12509698D01*
X9891611Y-12623984D02*
X9891611Y-12423984D01*
X9977325Y-12623984D02*
X9977325Y-12519222D01*
X9977325Y-12519222D02*
X9967801Y-12500174D01*
X9967801Y-12500174D02*
X9948753Y-12490650D01*
X9948753Y-12490650D02*
X9920182Y-12490650D01*
X9920182Y-12490650D02*
X9901134Y-12500174D01*
X9901134Y-12500174D02*
X9891611Y-12509698D01*
X10101134Y-12623984D02*
X10082087Y-12614460D01*
X10082087Y-12614460D02*
X10072563Y-12604936D01*
X10072563Y-12604936D02*
X10063039Y-12585888D01*
X10063039Y-12585888D02*
X10063039Y-12528746D01*
X10063039Y-12528746D02*
X10072563Y-12509698D01*
X10072563Y-12509698D02*
X10082087Y-12500174D01*
X10082087Y-12500174D02*
X10101134Y-12490650D01*
X10101134Y-12490650D02*
X10129706Y-12490650D01*
X10129706Y-12490650D02*
X10148753Y-12500174D01*
X10148753Y-12500174D02*
X10158277Y-12509698D01*
X10158277Y-12509698D02*
X10167801Y-12528746D01*
X10167801Y-12528746D02*
X10167801Y-12585888D01*
X10167801Y-12585888D02*
X10158277Y-12604936D01*
X10158277Y-12604936D02*
X10148753Y-12614460D01*
X10148753Y-12614460D02*
X10129706Y-12623984D01*
X10129706Y-12623984D02*
X10101134Y-12623984D01*
X10282087Y-12623984D02*
X10263039Y-12614460D01*
X10263039Y-12614460D02*
X10253515Y-12595412D01*
X10253515Y-12595412D02*
X10253515Y-12423984D01*
X10434468Y-12614460D02*
X10415420Y-12623984D01*
X10415420Y-12623984D02*
X10377325Y-12623984D01*
X10377325Y-12623984D02*
X10358277Y-12614460D01*
X10358277Y-12614460D02*
X10348753Y-12595412D01*
X10348753Y-12595412D02*
X10348753Y-12519222D01*
X10348753Y-12519222D02*
X10358277Y-12500174D01*
X10358277Y-12500174D02*
X10377325Y-12490650D01*
X10377325Y-12490650D02*
X10415420Y-12490650D01*
X10415420Y-12490650D02*
X10434468Y-12500174D01*
X10434468Y-12500174D02*
X10443992Y-12519222D01*
X10443992Y-12519222D02*
X10443992Y-12538269D01*
X10443992Y-12538269D02*
X10348753Y-12557317D01*
X10520182Y-12614460D02*
X10539230Y-12623984D01*
X10539230Y-12623984D02*
X10577325Y-12623984D01*
X10577325Y-12623984D02*
X10596373Y-12614460D01*
X10596373Y-12614460D02*
X10605896Y-12595412D01*
X10605896Y-12595412D02*
X10605896Y-12585888D01*
X10605896Y-12585888D02*
X10596373Y-12566841D01*
X10596373Y-12566841D02*
X10577325Y-12557317D01*
X10577325Y-12557317D02*
X10548753Y-12557317D01*
X10548753Y-12557317D02*
X10529706Y-12547793D01*
X10529706Y-12547793D02*
X10520182Y-12528746D01*
X10520182Y-12528746D02*
X10520182Y-12519222D01*
X10520182Y-12519222D02*
X10529706Y-12500174D01*
X10529706Y-12500174D02*
X10548753Y-12490650D01*
X10548753Y-12490650D02*
X10577325Y-12490650D01*
X10577325Y-12490650D02*
X10596373Y-12500174D01*
X10672563Y-12700174D02*
X10682087Y-12690650D01*
X10682087Y-12690650D02*
X10701134Y-12662079D01*
X10701134Y-12662079D02*
X10710658Y-12643031D01*
X10710658Y-12643031D02*
X10720182Y-12614460D01*
X10720182Y-12614460D02*
X10729706Y-12566841D01*
X10729706Y-12566841D02*
X10729706Y-12528746D01*
X10729706Y-12528746D02*
X10720182Y-12481127D01*
X10720182Y-12481127D02*
X10710658Y-12452555D01*
X10710658Y-12452555D02*
X10701134Y-12433508D01*
X10701134Y-12433508D02*
X10682087Y-12404936D01*
X10682087Y-12404936D02*
X10672563Y-12395412D01*
X11034468Y-12700174D02*
X11024944Y-12690650D01*
X11024944Y-12690650D02*
X11005896Y-12662079D01*
X11005896Y-12662079D02*
X10996373Y-12643031D01*
X10996373Y-12643031D02*
X10986849Y-12614460D01*
X10986849Y-12614460D02*
X10977325Y-12566841D01*
X10977325Y-12566841D02*
X10977325Y-12528746D01*
X10977325Y-12528746D02*
X10986849Y-12481127D01*
X10986849Y-12481127D02*
X10996373Y-12452555D01*
X10996373Y-12452555D02*
X11005896Y-12433508D01*
X11005896Y-12433508D02*
X11024944Y-12404936D01*
X11024944Y-12404936D02*
X11034468Y-12395412D01*
X11110658Y-12490650D02*
X11110658Y-12623984D01*
X11110658Y-12509698D02*
X11120182Y-12500174D01*
X11120182Y-12500174D02*
X11139230Y-12490650D01*
X11139230Y-12490650D02*
X11167801Y-12490650D01*
X11167801Y-12490650D02*
X11186849Y-12500174D01*
X11186849Y-12500174D02*
X11196372Y-12519222D01*
X11196372Y-12519222D02*
X11196372Y-12623984D01*
X11320182Y-12623984D02*
X11301134Y-12614460D01*
X11301134Y-12614460D02*
X11291611Y-12604936D01*
X11291611Y-12604936D02*
X11282087Y-12585888D01*
X11282087Y-12585888D02*
X11282087Y-12528746D01*
X11282087Y-12528746D02*
X11291611Y-12509698D01*
X11291611Y-12509698D02*
X11301134Y-12500174D01*
X11301134Y-12500174D02*
X11320182Y-12490650D01*
X11320182Y-12490650D02*
X11348753Y-12490650D01*
X11348753Y-12490650D02*
X11367801Y-12500174D01*
X11367801Y-12500174D02*
X11377325Y-12509698D01*
X11377325Y-12509698D02*
X11386849Y-12528746D01*
X11386849Y-12528746D02*
X11386849Y-12585888D01*
X11386849Y-12585888D02*
X11377325Y-12604936D01*
X11377325Y-12604936D02*
X11367801Y-12614460D01*
X11367801Y-12614460D02*
X11348753Y-12623984D01*
X11348753Y-12623984D02*
X11320182Y-12623984D01*
X11443992Y-12490650D02*
X11520182Y-12490650D01*
X11472563Y-12423984D02*
X11472563Y-12595412D01*
X11472563Y-12595412D02*
X11482087Y-12614460D01*
X11482087Y-12614460D02*
X11501134Y-12623984D01*
X11501134Y-12623984D02*
X11520182Y-12623984D01*
X11739230Y-12490650D02*
X11739230Y-12690650D01*
X11739230Y-12500174D02*
X11758277Y-12490650D01*
X11758277Y-12490650D02*
X11796373Y-12490650D01*
X11796373Y-12490650D02*
X11815420Y-12500174D01*
X11815420Y-12500174D02*
X11824944Y-12509698D01*
X11824944Y-12509698D02*
X11834468Y-12528746D01*
X11834468Y-12528746D02*
X11834468Y-12585888D01*
X11834468Y-12585888D02*
X11824944Y-12604936D01*
X11824944Y-12604936D02*
X11815420Y-12614460D01*
X11815420Y-12614460D02*
X11796373Y-12623984D01*
X11796373Y-12623984D02*
X11758277Y-12623984D01*
X11758277Y-12623984D02*
X11739230Y-12614460D01*
X11948753Y-12623984D02*
X11929706Y-12614460D01*
X11929706Y-12614460D02*
X11920182Y-12595412D01*
X11920182Y-12595412D02*
X11920182Y-12423984D01*
X12110658Y-12623984D02*
X12110658Y-12519222D01*
X12110658Y-12519222D02*
X12101134Y-12500174D01*
X12101134Y-12500174D02*
X12082087Y-12490650D01*
X12082087Y-12490650D02*
X12043992Y-12490650D01*
X12043992Y-12490650D02*
X12024944Y-12500174D01*
X12110658Y-12614460D02*
X12091611Y-12623984D01*
X12091611Y-12623984D02*
X12043992Y-12623984D01*
X12043992Y-12623984D02*
X12024944Y-12614460D01*
X12024944Y-12614460D02*
X12015420Y-12595412D01*
X12015420Y-12595412D02*
X12015420Y-12576365D01*
X12015420Y-12576365D02*
X12024944Y-12557317D01*
X12024944Y-12557317D02*
X12043992Y-12547793D01*
X12043992Y-12547793D02*
X12091611Y-12547793D01*
X12091611Y-12547793D02*
X12110658Y-12538269D01*
X12177325Y-12490650D02*
X12253515Y-12490650D01*
X12205896Y-12423984D02*
X12205896Y-12595412D01*
X12205896Y-12595412D02*
X12215420Y-12614460D01*
X12215420Y-12614460D02*
X12234468Y-12623984D01*
X12234468Y-12623984D02*
X12253515Y-12623984D01*
X12396373Y-12614460D02*
X12377325Y-12623984D01*
X12377325Y-12623984D02*
X12339230Y-12623984D01*
X12339230Y-12623984D02*
X12320182Y-12614460D01*
X12320182Y-12614460D02*
X12310658Y-12595412D01*
X12310658Y-12595412D02*
X12310658Y-12519222D01*
X12310658Y-12519222D02*
X12320182Y-12500174D01*
X12320182Y-12500174D02*
X12339230Y-12490650D01*
X12339230Y-12490650D02*
X12377325Y-12490650D01*
X12377325Y-12490650D02*
X12396373Y-12500174D01*
X12396373Y-12500174D02*
X12405896Y-12519222D01*
X12405896Y-12519222D02*
X12405896Y-12538269D01*
X12405896Y-12538269D02*
X12310658Y-12557317D01*
X12577325Y-12623984D02*
X12577325Y-12423984D01*
X12577325Y-12614460D02*
X12558277Y-12623984D01*
X12558277Y-12623984D02*
X12520182Y-12623984D01*
X12520182Y-12623984D02*
X12501134Y-12614460D01*
X12501134Y-12614460D02*
X12491611Y-12604936D01*
X12491611Y-12604936D02*
X12482087Y-12585888D01*
X12482087Y-12585888D02*
X12482087Y-12528746D01*
X12482087Y-12528746D02*
X12491611Y-12509698D01*
X12491611Y-12509698D02*
X12501134Y-12500174D01*
X12501134Y-12500174D02*
X12520182Y-12490650D01*
X12520182Y-12490650D02*
X12558277Y-12490650D01*
X12558277Y-12490650D02*
X12577325Y-12500174D01*
X12653515Y-12700174D02*
X12663039Y-12690650D01*
X12663039Y-12690650D02*
X12682087Y-12662079D01*
X12682087Y-12662079D02*
X12691611Y-12643031D01*
X12691611Y-12643031D02*
X12701134Y-12614460D01*
X12701134Y-12614460D02*
X12710658Y-12566841D01*
X12710658Y-12566841D02*
X12710658Y-12528746D01*
X12710658Y-12528746D02*
X12701134Y-12481127D01*
X12701134Y-12481127D02*
X12691611Y-12452555D01*
X12691611Y-12452555D02*
X12682087Y-12433508D01*
X12682087Y-12433508D02*
X12663039Y-12404936D01*
X12663039Y-12404936D02*
X12653515Y-12395412D01*
M02*
