%TF.GenerationSoftware,KiCad,Pcbnew,9.0.5*%
%TF.CreationDate,2025-12-01T20:36:26-06:00*%
%TF.ProjectId,KPad,4b506164-2e6b-4696-9361-645f70636258,rev?*%
%TF.SameCoordinates,Original*%
%TF.FileFunction,Drillmap*%
%TF.FilePolarity,Positive*%
%FSLAX45Y45*%
G04 Gerber Fmt 4.5, Leading zero omitted, Abs format (unit mm)*
G04 Created by KiCad (PCBNEW 9.0.5) date 2025-12-01 20:36:26*
%MOMM*%
%LPD*%
G01*
G04 APERTURE LIST*
%ADD10C,0.050000*%
%ADD11C,0.200000*%
%ADD12C,0.100000*%
%ADD13C,0.150000*%
G04 APERTURE END LIST*
D10*
X14100000Y-2700000D02*
X14100000Y-10400000D01*
X5900000Y-2700000D02*
X14100000Y-2700000D01*
X12900000Y-11600000D02*
X7100000Y-11600000D01*
X7100000Y-11600000D02*
G75*
G02*
X5900000Y-10400000I0J1200000D01*
G01*
X14100000Y-10400000D02*
G75*
G02*
X12900000Y-11600000I-1200000J0D01*
G01*
X5900000Y-2700000D02*
X5900000Y-10400000D01*
D11*
D12*
X6035000Y-4035000D02*
X6065000Y-4065000D01*
X6065000Y-4035000D02*
X6035000Y-4065000D01*
X9335000Y-5235000D02*
X9365000Y-5265000D01*
X9365000Y-5235000D02*
X9335000Y-5265000D01*
X9385000Y-2825000D02*
X9415000Y-2855000D01*
X9415000Y-2825000D02*
X9385000Y-2855000D01*
X10435000Y-3185000D02*
X10465000Y-3215000D01*
X10465000Y-3185000D02*
X10435000Y-3215000D01*
X10535000Y-4485000D02*
X10565000Y-4515000D01*
X10565000Y-4485000D02*
X10535000Y-4515000D01*
X10535000Y-4935000D02*
X10565000Y-4965000D01*
X10565000Y-4935000D02*
X10535000Y-4965000D01*
X10735000Y-4835000D02*
X10765000Y-4865000D01*
X10765000Y-4835000D02*
X10735000Y-4865000D01*
X11385000Y-4885000D02*
X11415000Y-4915000D01*
X11415000Y-4885000D02*
X11385000Y-4915000D01*
X11475000Y-4735000D02*
X11505000Y-4765000D01*
X11505000Y-4735000D02*
X11475000Y-4765000D01*
X11685000Y-3535000D02*
X11715000Y-3565000D01*
X11715000Y-3535000D02*
X11685000Y-3565000D01*
X11935000Y-4185000D02*
X11965000Y-4215000D01*
X11965000Y-4185000D02*
X11935000Y-4215000D01*
X11975000Y-3935000D02*
X12005000Y-3965000D01*
X12005000Y-3935000D02*
X11975000Y-3965000D01*
X10525000Y-5332750D02*
G75*
G02*
X10445000Y-5332750I-40000J0D01*
G01*
X10445000Y-5332750D02*
G75*
G02*
X10525000Y-5332750I40000J0D01*
G01*
X10525000Y-6094750D02*
G75*
G02*
X10445000Y-6094750I-40000J0D01*
G01*
X10445000Y-6094750D02*
G75*
G02*
X10525000Y-6094750I40000J0D01*
G01*
X10880000Y-5332750D02*
G75*
G02*
X10800000Y-5332750I-40000J0D01*
G01*
X10800000Y-5332750D02*
G75*
G02*
X10880000Y-5332750I40000J0D01*
G01*
X10880000Y-6094750D02*
G75*
G02*
X10800000Y-6094750I-40000J0D01*
G01*
X10800000Y-6094750D02*
G75*
G02*
X10880000Y-6094750I40000J0D01*
G01*
X11235000Y-5332750D02*
G75*
G02*
X11155000Y-5332750I-40000J0D01*
G01*
X11155000Y-5332750D02*
G75*
G02*
X11235000Y-5332750I40000J0D01*
G01*
X11235000Y-6094750D02*
G75*
G02*
X11155000Y-6094750I-40000J0D01*
G01*
X11155000Y-6094750D02*
G75*
G02*
X11235000Y-6094750I40000J0D01*
G01*
X11590000Y-5332750D02*
G75*
G02*
X11510000Y-5332750I-40000J0D01*
G01*
X11510000Y-5332750D02*
G75*
G02*
X11590000Y-5332750I40000J0D01*
G01*
X11590000Y-6094750D02*
G75*
G02*
X11510000Y-6094750I-40000J0D01*
G01*
X11510000Y-6094750D02*
G75*
G02*
X11590000Y-6094750I40000J0D01*
G01*
X11945000Y-5332750D02*
G75*
G02*
X11865000Y-5332750I-40000J0D01*
G01*
X11865000Y-5332750D02*
G75*
G02*
X11945000Y-5332750I40000J0D01*
G01*
X11945000Y-6094750D02*
G75*
G02*
X11865000Y-6094750I-40000J0D01*
G01*
X11865000Y-6094750D02*
G75*
G02*
X11945000Y-6094750I40000J0D01*
G01*
X12300000Y-5332750D02*
G75*
G02*
X12220000Y-5332750I-40000J0D01*
G01*
X12220000Y-5332750D02*
G75*
G02*
X12300000Y-5332750I40000J0D01*
G01*
X12300000Y-6094750D02*
G75*
G02*
X12220000Y-6094750I-40000J0D01*
G01*
X12220000Y-6094750D02*
G75*
G02*
X12300000Y-6094750I40000J0D01*
G01*
X12655000Y-5332750D02*
G75*
G02*
X12575000Y-5332750I-40000J0D01*
G01*
X12575000Y-5332750D02*
G75*
G02*
X12655000Y-5332750I40000J0D01*
G01*
X12655000Y-6094750D02*
G75*
G02*
X12575000Y-6094750I-40000J0D01*
G01*
X12575000Y-6094750D02*
G75*
G02*
X12655000Y-6094750I40000J0D01*
G01*
X13010000Y-5332750D02*
G75*
G02*
X12930000Y-5332750I-40000J0D01*
G01*
X12930000Y-5332750D02*
G75*
G02*
X13010000Y-5332750I40000J0D01*
G01*
X13010000Y-6094750D02*
G75*
G02*
X12930000Y-6094750I-40000J0D01*
G01*
X12930000Y-6094750D02*
G75*
G02*
X13010000Y-6094750I40000J0D01*
G01*
X13365000Y-5332750D02*
G75*
G02*
X13285000Y-5332750I-40000J0D01*
G01*
X13285000Y-5332750D02*
G75*
G02*
X13365000Y-5332750I40000J0D01*
G01*
X13365000Y-6094750D02*
G75*
G02*
X13285000Y-6094750I-40000J0D01*
G01*
X13285000Y-6094750D02*
G75*
G02*
X13365000Y-6094750I40000J0D01*
G01*
X11026000Y-2955550D02*
X11026000Y-3044450D01*
X10981550Y-3000000D02*
X11070450Y-3000000D01*
X11026000Y-3209550D02*
X11026000Y-3298450D01*
X10981550Y-3254000D02*
X11070450Y-3254000D01*
X11026000Y-3463550D02*
X11026000Y-3552450D01*
X10981550Y-3508000D02*
X11070450Y-3508000D01*
X11026000Y-3717550D02*
X11026000Y-3806450D01*
X10981550Y-3762000D02*
X11070450Y-3762000D01*
X11026000Y-3971550D02*
X11026000Y-4060450D01*
X10981550Y-4016000D02*
X11070450Y-4016000D01*
X11026000Y-4225550D02*
X11026000Y-4314450D01*
X10981550Y-4270000D02*
X11070450Y-4270000D01*
X11026000Y-4479550D02*
X11026000Y-4568450D01*
X10981550Y-4524000D02*
X11070450Y-4524000D01*
X12550000Y-2955550D02*
X12550000Y-3044450D01*
X12505550Y-3000000D02*
X12594450Y-3000000D01*
X12550000Y-3209550D02*
X12550000Y-3298450D01*
X12505550Y-3254000D02*
X12594450Y-3254000D01*
X12550000Y-3463550D02*
X12550000Y-3552450D01*
X12505550Y-3508000D02*
X12594450Y-3508000D01*
X12550000Y-3717550D02*
X12550000Y-3806450D01*
X12505550Y-3762000D02*
X12594450Y-3762000D01*
X12550000Y-3971550D02*
X12550000Y-4060450D01*
X12505550Y-4016000D02*
X12594450Y-4016000D01*
X12550000Y-4225550D02*
X12550000Y-4314450D01*
X12505550Y-4270000D02*
X12594450Y-4270000D01*
X12550000Y-4479550D02*
X12550000Y-4568450D01*
X12505550Y-4524000D02*
X12594450Y-4524000D01*
X6690356Y-3833456D02*
X6690356Y-3762744D01*
X6619644Y-3762744D01*
X6619644Y-3833456D01*
X6690356Y-3833456D01*
X6690356Y-4083456D02*
X6690356Y-4012744D01*
X6619644Y-4012744D01*
X6619644Y-4083456D01*
X6690356Y-4083456D01*
X6690356Y-4333456D02*
X6690356Y-4262744D01*
X6619644Y-4262744D01*
X6619644Y-4333456D01*
X6690356Y-4333456D01*
X8140356Y-3833456D02*
X8140356Y-3762744D01*
X8069644Y-3762744D01*
X8069644Y-3833456D01*
X8140356Y-3833456D01*
X8140356Y-4333456D02*
X8140356Y-4262744D01*
X8069644Y-4262744D01*
X8069644Y-4333456D01*
X8140356Y-4333456D01*
X8952731Y-3274481D02*
X8952731Y-3203769D01*
X8882019Y-3203769D01*
X8882019Y-3274481D01*
X8952731Y-3274481D01*
X9206731Y-3274481D02*
X9206731Y-3203769D01*
X9136019Y-3203769D01*
X9136019Y-3274481D01*
X9206731Y-3274481D01*
X9460731Y-3274481D02*
X9460731Y-3203769D01*
X9390019Y-3203769D01*
X9390019Y-3274481D01*
X9460731Y-3274481D01*
X9714731Y-3274481D02*
X9714731Y-3203769D01*
X9644019Y-3203769D01*
X9644019Y-3274481D01*
X9714731Y-3274481D01*
D13*
X6731000Y-7917250D02*
X6806000Y-7842250D01*
X6731000Y-7767250D01*
X6656000Y-7842250D01*
X6731000Y-7917250D01*
X7000875Y-5774125D02*
X7075875Y-5699125D01*
X7000875Y-5624125D01*
X6925875Y-5699125D01*
X7000875Y-5774125D01*
X7366000Y-7663250D02*
X7441000Y-7588250D01*
X7366000Y-7513250D01*
X7291000Y-7588250D01*
X7366000Y-7663250D01*
X7405000Y-3563100D02*
X7480000Y-3488100D01*
X7405000Y-3413100D01*
X7330000Y-3488100D01*
X7405000Y-3563100D01*
D12*
X7340000Y-3563100D02*
X7470000Y-3563100D01*
X7470000Y-3413100D02*
G75*
G02*
X7470000Y-3563100I0J-75000D01*
G01*
X7470000Y-3413100D02*
X7340000Y-3413100D01*
X7340000Y-3413100D02*
G75*
G03*
X7340000Y-3563100I0J-75000D01*
G01*
D13*
X7405000Y-4683100D02*
X7480000Y-4608100D01*
X7405000Y-4533100D01*
X7330000Y-4608100D01*
X7405000Y-4683100D01*
D12*
X7340000Y-4683100D02*
X7470000Y-4683100D01*
X7470000Y-4533100D02*
G75*
G02*
X7470000Y-4683100I0J-75000D01*
G01*
X7470000Y-4533100D02*
X7340000Y-4533100D01*
X7340000Y-4533100D02*
G75*
G03*
X7340000Y-4683100I0J-75000D01*
G01*
D13*
X7635875Y-5520125D02*
X7710875Y-5445125D01*
X7635875Y-5370125D01*
X7560875Y-5445125D01*
X7635875Y-5520125D01*
X7715250Y-9822250D02*
X7790250Y-9747250D01*
X7715250Y-9672250D01*
X7640250Y-9747250D01*
X7715250Y-9822250D01*
X8350250Y-9568250D02*
X8425250Y-9493250D01*
X8350250Y-9418250D01*
X8275250Y-9493250D01*
X8350250Y-9568250D01*
X8636000Y-7917250D02*
X8711000Y-7842250D01*
X8636000Y-7767250D01*
X8561000Y-7842250D01*
X8636000Y-7917250D01*
X9271000Y-7663250D02*
X9346000Y-7588250D01*
X9271000Y-7513250D01*
X9196000Y-7588250D01*
X9271000Y-7663250D01*
X9620250Y-9822250D02*
X9695250Y-9747250D01*
X9620250Y-9672250D01*
X9545250Y-9747250D01*
X9620250Y-9822250D01*
X10255250Y-9568250D02*
X10330250Y-9493250D01*
X10255250Y-9418250D01*
X10180250Y-9493250D01*
X10255250Y-9568250D01*
X10541000Y-7917250D02*
X10616000Y-7842250D01*
X10541000Y-7767250D01*
X10466000Y-7842250D01*
X10541000Y-7917250D01*
X11176000Y-7663250D02*
X11251000Y-7588250D01*
X11176000Y-7513250D01*
X11101000Y-7588250D01*
X11176000Y-7663250D01*
X11525250Y-9822250D02*
X11600250Y-9747250D01*
X11525250Y-9672250D01*
X11450250Y-9747250D01*
X11525250Y-9822250D01*
X12160250Y-9568250D02*
X12235250Y-9493250D01*
X12160250Y-9418250D01*
X12085250Y-9493250D01*
X12160250Y-9568250D01*
X12477750Y-7917250D02*
X12552750Y-7842250D01*
X12477750Y-7767250D01*
X12402750Y-7842250D01*
X12477750Y-7917250D01*
X13112750Y-7663250D02*
X13187750Y-7588250D01*
X13112750Y-7513250D01*
X13037750Y-7588250D01*
X13112750Y-7663250D01*
D11*
X6158277Y-11913984D02*
X6158277Y-11713984D01*
X6158277Y-11713984D02*
X6205896Y-11713984D01*
X6205896Y-11713984D02*
X6234467Y-11723508D01*
X6234467Y-11723508D02*
X6253515Y-11742555D01*
X6253515Y-11742555D02*
X6263039Y-11761603D01*
X6263039Y-11761603D02*
X6272562Y-11799698D01*
X6272562Y-11799698D02*
X6272562Y-11828269D01*
X6272562Y-11828269D02*
X6263039Y-11866365D01*
X6263039Y-11866365D02*
X6253515Y-11885412D01*
X6253515Y-11885412D02*
X6234467Y-11904460D01*
X6234467Y-11904460D02*
X6205896Y-11913984D01*
X6205896Y-11913984D02*
X6158277Y-11913984D01*
X6358277Y-11913984D02*
X6358277Y-11780650D01*
X6358277Y-11818746D02*
X6367801Y-11799698D01*
X6367801Y-11799698D02*
X6377324Y-11790174D01*
X6377324Y-11790174D02*
X6396372Y-11780650D01*
X6396372Y-11780650D02*
X6415420Y-11780650D01*
X6482086Y-11913984D02*
X6482086Y-11780650D01*
X6482086Y-11713984D02*
X6472562Y-11723508D01*
X6472562Y-11723508D02*
X6482086Y-11733031D01*
X6482086Y-11733031D02*
X6491610Y-11723508D01*
X6491610Y-11723508D02*
X6482086Y-11713984D01*
X6482086Y-11713984D02*
X6482086Y-11733031D01*
X6605896Y-11913984D02*
X6586848Y-11904460D01*
X6586848Y-11904460D02*
X6577324Y-11885412D01*
X6577324Y-11885412D02*
X6577324Y-11713984D01*
X6710658Y-11913984D02*
X6691610Y-11904460D01*
X6691610Y-11904460D02*
X6682086Y-11885412D01*
X6682086Y-11885412D02*
X6682086Y-11713984D01*
X6939229Y-11913984D02*
X6939229Y-11713984D01*
X6939229Y-11713984D02*
X7005896Y-11856841D01*
X7005896Y-11856841D02*
X7072562Y-11713984D01*
X7072562Y-11713984D02*
X7072562Y-11913984D01*
X7253515Y-11913984D02*
X7253515Y-11809222D01*
X7253515Y-11809222D02*
X7243991Y-11790174D01*
X7243991Y-11790174D02*
X7224943Y-11780650D01*
X7224943Y-11780650D02*
X7186848Y-11780650D01*
X7186848Y-11780650D02*
X7167801Y-11790174D01*
X7253515Y-11904460D02*
X7234467Y-11913984D01*
X7234467Y-11913984D02*
X7186848Y-11913984D01*
X7186848Y-11913984D02*
X7167801Y-11904460D01*
X7167801Y-11904460D02*
X7158277Y-11885412D01*
X7158277Y-11885412D02*
X7158277Y-11866365D01*
X7158277Y-11866365D02*
X7167801Y-11847317D01*
X7167801Y-11847317D02*
X7186848Y-11837793D01*
X7186848Y-11837793D02*
X7234467Y-11837793D01*
X7234467Y-11837793D02*
X7253515Y-11828269D01*
X7348753Y-11780650D02*
X7348753Y-11980650D01*
X7348753Y-11790174D02*
X7367801Y-11780650D01*
X7367801Y-11780650D02*
X7405896Y-11780650D01*
X7405896Y-11780650D02*
X7424943Y-11790174D01*
X7424943Y-11790174D02*
X7434467Y-11799698D01*
X7434467Y-11799698D02*
X7443991Y-11818746D01*
X7443991Y-11818746D02*
X7443991Y-11875888D01*
X7443991Y-11875888D02*
X7434467Y-11894936D01*
X7434467Y-11894936D02*
X7424943Y-11904460D01*
X7424943Y-11904460D02*
X7405896Y-11913984D01*
X7405896Y-11913984D02*
X7367801Y-11913984D01*
X7367801Y-11913984D02*
X7348753Y-11904460D01*
X7529705Y-11894936D02*
X7539229Y-11904460D01*
X7539229Y-11904460D02*
X7529705Y-11913984D01*
X7529705Y-11913984D02*
X7520182Y-11904460D01*
X7520182Y-11904460D02*
X7529705Y-11894936D01*
X7529705Y-11894936D02*
X7529705Y-11913984D01*
X7529705Y-11790174D02*
X7539229Y-11799698D01*
X7539229Y-11799698D02*
X7529705Y-11809222D01*
X7529705Y-11809222D02*
X7520182Y-11799698D01*
X7520182Y-11799698D02*
X7529705Y-11790174D01*
X7529705Y-11790174D02*
X7529705Y-11809222D01*
D12*
X5867500Y-12227500D02*
X5897500Y-12257500D01*
X5897500Y-12227500D02*
X5867500Y-12257500D01*
D11*
X6196372Y-12133984D02*
X6215420Y-12133984D01*
X6215420Y-12133984D02*
X6234467Y-12143508D01*
X6234467Y-12143508D02*
X6243991Y-12153031D01*
X6243991Y-12153031D02*
X6253515Y-12172079D01*
X6253515Y-12172079D02*
X6263039Y-12210174D01*
X6263039Y-12210174D02*
X6263039Y-12257793D01*
X6263039Y-12257793D02*
X6253515Y-12295888D01*
X6253515Y-12295888D02*
X6243991Y-12314936D01*
X6243991Y-12314936D02*
X6234467Y-12324460D01*
X6234467Y-12324460D02*
X6215420Y-12333984D01*
X6215420Y-12333984D02*
X6196372Y-12333984D01*
X6196372Y-12333984D02*
X6177324Y-12324460D01*
X6177324Y-12324460D02*
X6167801Y-12314936D01*
X6167801Y-12314936D02*
X6158277Y-12295888D01*
X6158277Y-12295888D02*
X6148753Y-12257793D01*
X6148753Y-12257793D02*
X6148753Y-12210174D01*
X6148753Y-12210174D02*
X6158277Y-12172079D01*
X6158277Y-12172079D02*
X6167801Y-12153031D01*
X6167801Y-12153031D02*
X6177324Y-12143508D01*
X6177324Y-12143508D02*
X6196372Y-12133984D01*
X6348753Y-12314936D02*
X6358277Y-12324460D01*
X6358277Y-12324460D02*
X6348753Y-12333984D01*
X6348753Y-12333984D02*
X6339229Y-12324460D01*
X6339229Y-12324460D02*
X6348753Y-12314936D01*
X6348753Y-12314936D02*
X6348753Y-12333984D01*
X6424943Y-12133984D02*
X6548753Y-12133984D01*
X6548753Y-12133984D02*
X6482086Y-12210174D01*
X6482086Y-12210174D02*
X6510658Y-12210174D01*
X6510658Y-12210174D02*
X6529705Y-12219698D01*
X6529705Y-12219698D02*
X6539229Y-12229222D01*
X6539229Y-12229222D02*
X6548753Y-12248269D01*
X6548753Y-12248269D02*
X6548753Y-12295888D01*
X6548753Y-12295888D02*
X6539229Y-12314936D01*
X6539229Y-12314936D02*
X6529705Y-12324460D01*
X6529705Y-12324460D02*
X6510658Y-12333984D01*
X6510658Y-12333984D02*
X6453515Y-12333984D01*
X6453515Y-12333984D02*
X6434467Y-12324460D01*
X6434467Y-12324460D02*
X6424943Y-12314936D01*
X6672562Y-12133984D02*
X6691610Y-12133984D01*
X6691610Y-12133984D02*
X6710658Y-12143508D01*
X6710658Y-12143508D02*
X6720182Y-12153031D01*
X6720182Y-12153031D02*
X6729705Y-12172079D01*
X6729705Y-12172079D02*
X6739229Y-12210174D01*
X6739229Y-12210174D02*
X6739229Y-12257793D01*
X6739229Y-12257793D02*
X6729705Y-12295888D01*
X6729705Y-12295888D02*
X6720182Y-12314936D01*
X6720182Y-12314936D02*
X6710658Y-12324460D01*
X6710658Y-12324460D02*
X6691610Y-12333984D01*
X6691610Y-12333984D02*
X6672562Y-12333984D01*
X6672562Y-12333984D02*
X6653515Y-12324460D01*
X6653515Y-12324460D02*
X6643991Y-12314936D01*
X6643991Y-12314936D02*
X6634467Y-12295888D01*
X6634467Y-12295888D02*
X6624943Y-12257793D01*
X6624943Y-12257793D02*
X6624943Y-12210174D01*
X6624943Y-12210174D02*
X6634467Y-12172079D01*
X6634467Y-12172079D02*
X6643991Y-12153031D01*
X6643991Y-12153031D02*
X6653515Y-12143508D01*
X6653515Y-12143508D02*
X6672562Y-12133984D01*
X6863039Y-12133984D02*
X6882086Y-12133984D01*
X6882086Y-12133984D02*
X6901134Y-12143508D01*
X6901134Y-12143508D02*
X6910658Y-12153031D01*
X6910658Y-12153031D02*
X6920182Y-12172079D01*
X6920182Y-12172079D02*
X6929705Y-12210174D01*
X6929705Y-12210174D02*
X6929705Y-12257793D01*
X6929705Y-12257793D02*
X6920182Y-12295888D01*
X6920182Y-12295888D02*
X6910658Y-12314936D01*
X6910658Y-12314936D02*
X6901134Y-12324460D01*
X6901134Y-12324460D02*
X6882086Y-12333984D01*
X6882086Y-12333984D02*
X6863039Y-12333984D01*
X6863039Y-12333984D02*
X6843991Y-12324460D01*
X6843991Y-12324460D02*
X6834467Y-12314936D01*
X6834467Y-12314936D02*
X6824943Y-12295888D01*
X6824943Y-12295888D02*
X6815420Y-12257793D01*
X6815420Y-12257793D02*
X6815420Y-12210174D01*
X6815420Y-12210174D02*
X6824943Y-12172079D01*
X6824943Y-12172079D02*
X6834467Y-12153031D01*
X6834467Y-12153031D02*
X6843991Y-12143508D01*
X6843991Y-12143508D02*
X6863039Y-12133984D01*
X7015420Y-12333984D02*
X7015420Y-12200650D01*
X7015420Y-12219698D02*
X7024943Y-12210174D01*
X7024943Y-12210174D02*
X7043991Y-12200650D01*
X7043991Y-12200650D02*
X7072563Y-12200650D01*
X7072563Y-12200650D02*
X7091610Y-12210174D01*
X7091610Y-12210174D02*
X7101134Y-12229222D01*
X7101134Y-12229222D02*
X7101134Y-12333984D01*
X7101134Y-12229222D02*
X7110658Y-12210174D01*
X7110658Y-12210174D02*
X7129705Y-12200650D01*
X7129705Y-12200650D02*
X7158277Y-12200650D01*
X7158277Y-12200650D02*
X7177324Y-12210174D01*
X7177324Y-12210174D02*
X7186848Y-12229222D01*
X7186848Y-12229222D02*
X7186848Y-12333984D01*
X7282086Y-12333984D02*
X7282086Y-12200650D01*
X7282086Y-12219698D02*
X7291610Y-12210174D01*
X7291610Y-12210174D02*
X7310658Y-12200650D01*
X7310658Y-12200650D02*
X7339229Y-12200650D01*
X7339229Y-12200650D02*
X7358277Y-12210174D01*
X7358277Y-12210174D02*
X7367801Y-12229222D01*
X7367801Y-12229222D02*
X7367801Y-12333984D01*
X7367801Y-12229222D02*
X7377324Y-12210174D01*
X7377324Y-12210174D02*
X7396372Y-12200650D01*
X7396372Y-12200650D02*
X7424943Y-12200650D01*
X7424943Y-12200650D02*
X7443991Y-12210174D01*
X7443991Y-12210174D02*
X7453515Y-12229222D01*
X7453515Y-12229222D02*
X7453515Y-12333984D01*
X7843991Y-12124460D02*
X7672563Y-12381603D01*
X8101134Y-12133984D02*
X8120182Y-12133984D01*
X8120182Y-12133984D02*
X8139229Y-12143508D01*
X8139229Y-12143508D02*
X8148753Y-12153031D01*
X8148753Y-12153031D02*
X8158277Y-12172079D01*
X8158277Y-12172079D02*
X8167801Y-12210174D01*
X8167801Y-12210174D02*
X8167801Y-12257793D01*
X8167801Y-12257793D02*
X8158277Y-12295888D01*
X8158277Y-12295888D02*
X8148753Y-12314936D01*
X8148753Y-12314936D02*
X8139229Y-12324460D01*
X8139229Y-12324460D02*
X8120182Y-12333984D01*
X8120182Y-12333984D02*
X8101134Y-12333984D01*
X8101134Y-12333984D02*
X8082086Y-12324460D01*
X8082086Y-12324460D02*
X8072563Y-12314936D01*
X8072563Y-12314936D02*
X8063039Y-12295888D01*
X8063039Y-12295888D02*
X8053515Y-12257793D01*
X8053515Y-12257793D02*
X8053515Y-12210174D01*
X8053515Y-12210174D02*
X8063039Y-12172079D01*
X8063039Y-12172079D02*
X8072563Y-12153031D01*
X8072563Y-12153031D02*
X8082086Y-12143508D01*
X8082086Y-12143508D02*
X8101134Y-12133984D01*
X8253515Y-12314936D02*
X8263039Y-12324460D01*
X8263039Y-12324460D02*
X8253515Y-12333984D01*
X8253515Y-12333984D02*
X8243991Y-12324460D01*
X8243991Y-12324460D02*
X8253515Y-12314936D01*
X8253515Y-12314936D02*
X8253515Y-12333984D01*
X8386848Y-12133984D02*
X8405896Y-12133984D01*
X8405896Y-12133984D02*
X8424944Y-12143508D01*
X8424944Y-12143508D02*
X8434468Y-12153031D01*
X8434468Y-12153031D02*
X8443991Y-12172079D01*
X8443991Y-12172079D02*
X8453515Y-12210174D01*
X8453515Y-12210174D02*
X8453515Y-12257793D01*
X8453515Y-12257793D02*
X8443991Y-12295888D01*
X8443991Y-12295888D02*
X8434468Y-12314936D01*
X8434468Y-12314936D02*
X8424944Y-12324460D01*
X8424944Y-12324460D02*
X8405896Y-12333984D01*
X8405896Y-12333984D02*
X8386848Y-12333984D01*
X8386848Y-12333984D02*
X8367801Y-12324460D01*
X8367801Y-12324460D02*
X8358277Y-12314936D01*
X8358277Y-12314936D02*
X8348753Y-12295888D01*
X8348753Y-12295888D02*
X8339229Y-12257793D01*
X8339229Y-12257793D02*
X8339229Y-12210174D01*
X8339229Y-12210174D02*
X8348753Y-12172079D01*
X8348753Y-12172079D02*
X8358277Y-12153031D01*
X8358277Y-12153031D02*
X8367801Y-12143508D01*
X8367801Y-12143508D02*
X8386848Y-12133984D01*
X8643991Y-12333984D02*
X8529706Y-12333984D01*
X8586848Y-12333984D02*
X8586848Y-12133984D01*
X8586848Y-12133984D02*
X8567801Y-12162555D01*
X8567801Y-12162555D02*
X8548753Y-12181603D01*
X8548753Y-12181603D02*
X8529706Y-12191127D01*
X8834468Y-12333984D02*
X8720182Y-12333984D01*
X8777325Y-12333984D02*
X8777325Y-12133984D01*
X8777325Y-12133984D02*
X8758277Y-12162555D01*
X8758277Y-12162555D02*
X8739229Y-12181603D01*
X8739229Y-12181603D02*
X8720182Y-12191127D01*
X8948753Y-12219698D02*
X8929706Y-12210174D01*
X8929706Y-12210174D02*
X8920182Y-12200650D01*
X8920182Y-12200650D02*
X8910658Y-12181603D01*
X8910658Y-12181603D02*
X8910658Y-12172079D01*
X8910658Y-12172079D02*
X8920182Y-12153031D01*
X8920182Y-12153031D02*
X8929706Y-12143508D01*
X8929706Y-12143508D02*
X8948753Y-12133984D01*
X8948753Y-12133984D02*
X8986849Y-12133984D01*
X8986849Y-12133984D02*
X9005896Y-12143508D01*
X9005896Y-12143508D02*
X9015420Y-12153031D01*
X9015420Y-12153031D02*
X9024944Y-12172079D01*
X9024944Y-12172079D02*
X9024944Y-12181603D01*
X9024944Y-12181603D02*
X9015420Y-12200650D01*
X9015420Y-12200650D02*
X9005896Y-12210174D01*
X9005896Y-12210174D02*
X8986849Y-12219698D01*
X8986849Y-12219698D02*
X8948753Y-12219698D01*
X8948753Y-12219698D02*
X8929706Y-12229222D01*
X8929706Y-12229222D02*
X8920182Y-12238746D01*
X8920182Y-12238746D02*
X8910658Y-12257793D01*
X8910658Y-12257793D02*
X8910658Y-12295888D01*
X8910658Y-12295888D02*
X8920182Y-12314936D01*
X8920182Y-12314936D02*
X8929706Y-12324460D01*
X8929706Y-12324460D02*
X8948753Y-12333984D01*
X8948753Y-12333984D02*
X8986849Y-12333984D01*
X8986849Y-12333984D02*
X9005896Y-12324460D01*
X9005896Y-12324460D02*
X9015420Y-12314936D01*
X9015420Y-12314936D02*
X9024944Y-12295888D01*
X9024944Y-12295888D02*
X9024944Y-12257793D01*
X9024944Y-12257793D02*
X9015420Y-12238746D01*
X9015420Y-12238746D02*
X9005896Y-12229222D01*
X9005896Y-12229222D02*
X8986849Y-12219698D01*
X9101134Y-12133984D02*
X9101134Y-12172079D01*
X9177325Y-12133984D02*
X9177325Y-12172079D01*
X9472563Y-12410174D02*
X9463039Y-12400650D01*
X9463039Y-12400650D02*
X9443991Y-12372079D01*
X9443991Y-12372079D02*
X9434468Y-12353031D01*
X9434468Y-12353031D02*
X9424944Y-12324460D01*
X9424944Y-12324460D02*
X9415420Y-12276841D01*
X9415420Y-12276841D02*
X9415420Y-12238746D01*
X9415420Y-12238746D02*
X9424944Y-12191127D01*
X9424944Y-12191127D02*
X9434468Y-12162555D01*
X9434468Y-12162555D02*
X9443991Y-12143508D01*
X9443991Y-12143508D02*
X9463039Y-12114936D01*
X9463039Y-12114936D02*
X9472563Y-12105412D01*
X9653515Y-12333984D02*
X9539230Y-12333984D01*
X9596372Y-12333984D02*
X9596372Y-12133984D01*
X9596372Y-12133984D02*
X9577325Y-12162555D01*
X9577325Y-12162555D02*
X9558277Y-12181603D01*
X9558277Y-12181603D02*
X9539230Y-12191127D01*
X9729706Y-12153031D02*
X9739230Y-12143508D01*
X9739230Y-12143508D02*
X9758277Y-12133984D01*
X9758277Y-12133984D02*
X9805896Y-12133984D01*
X9805896Y-12133984D02*
X9824944Y-12143508D01*
X9824944Y-12143508D02*
X9834468Y-12153031D01*
X9834468Y-12153031D02*
X9843991Y-12172079D01*
X9843991Y-12172079D02*
X9843991Y-12191127D01*
X9843991Y-12191127D02*
X9834468Y-12219698D01*
X9834468Y-12219698D02*
X9720182Y-12333984D01*
X9720182Y-12333984D02*
X9843991Y-12333984D01*
X10082087Y-12333984D02*
X10082087Y-12133984D01*
X10167801Y-12333984D02*
X10167801Y-12229222D01*
X10167801Y-12229222D02*
X10158277Y-12210174D01*
X10158277Y-12210174D02*
X10139230Y-12200650D01*
X10139230Y-12200650D02*
X10110658Y-12200650D01*
X10110658Y-12200650D02*
X10091611Y-12210174D01*
X10091611Y-12210174D02*
X10082087Y-12219698D01*
X10291611Y-12333984D02*
X10272563Y-12324460D01*
X10272563Y-12324460D02*
X10263039Y-12314936D01*
X10263039Y-12314936D02*
X10253515Y-12295888D01*
X10253515Y-12295888D02*
X10253515Y-12238746D01*
X10253515Y-12238746D02*
X10263039Y-12219698D01*
X10263039Y-12219698D02*
X10272563Y-12210174D01*
X10272563Y-12210174D02*
X10291611Y-12200650D01*
X10291611Y-12200650D02*
X10320182Y-12200650D01*
X10320182Y-12200650D02*
X10339230Y-12210174D01*
X10339230Y-12210174D02*
X10348753Y-12219698D01*
X10348753Y-12219698D02*
X10358277Y-12238746D01*
X10358277Y-12238746D02*
X10358277Y-12295888D01*
X10358277Y-12295888D02*
X10348753Y-12314936D01*
X10348753Y-12314936D02*
X10339230Y-12324460D01*
X10339230Y-12324460D02*
X10320182Y-12333984D01*
X10320182Y-12333984D02*
X10291611Y-12333984D01*
X10472563Y-12333984D02*
X10453515Y-12324460D01*
X10453515Y-12324460D02*
X10443992Y-12305412D01*
X10443992Y-12305412D02*
X10443992Y-12133984D01*
X10624944Y-12324460D02*
X10605896Y-12333984D01*
X10605896Y-12333984D02*
X10567801Y-12333984D01*
X10567801Y-12333984D02*
X10548753Y-12324460D01*
X10548753Y-12324460D02*
X10539230Y-12305412D01*
X10539230Y-12305412D02*
X10539230Y-12229222D01*
X10539230Y-12229222D02*
X10548753Y-12210174D01*
X10548753Y-12210174D02*
X10567801Y-12200650D01*
X10567801Y-12200650D02*
X10605896Y-12200650D01*
X10605896Y-12200650D02*
X10624944Y-12210174D01*
X10624944Y-12210174D02*
X10634468Y-12229222D01*
X10634468Y-12229222D02*
X10634468Y-12248269D01*
X10634468Y-12248269D02*
X10539230Y-12267317D01*
X10710658Y-12324460D02*
X10729706Y-12333984D01*
X10729706Y-12333984D02*
X10767801Y-12333984D01*
X10767801Y-12333984D02*
X10786849Y-12324460D01*
X10786849Y-12324460D02*
X10796373Y-12305412D01*
X10796373Y-12305412D02*
X10796373Y-12295888D01*
X10796373Y-12295888D02*
X10786849Y-12276841D01*
X10786849Y-12276841D02*
X10767801Y-12267317D01*
X10767801Y-12267317D02*
X10739230Y-12267317D01*
X10739230Y-12267317D02*
X10720182Y-12257793D01*
X10720182Y-12257793D02*
X10710658Y-12238746D01*
X10710658Y-12238746D02*
X10710658Y-12229222D01*
X10710658Y-12229222D02*
X10720182Y-12210174D01*
X10720182Y-12210174D02*
X10739230Y-12200650D01*
X10739230Y-12200650D02*
X10767801Y-12200650D01*
X10767801Y-12200650D02*
X10786849Y-12210174D01*
X10863039Y-12410174D02*
X10872563Y-12400650D01*
X10872563Y-12400650D02*
X10891611Y-12372079D01*
X10891611Y-12372079D02*
X10901134Y-12353031D01*
X10901134Y-12353031D02*
X10910658Y-12324460D01*
X10910658Y-12324460D02*
X10920182Y-12276841D01*
X10920182Y-12276841D02*
X10920182Y-12238746D01*
X10920182Y-12238746D02*
X10910658Y-12191127D01*
X10910658Y-12191127D02*
X10901134Y-12162555D01*
X10901134Y-12162555D02*
X10891611Y-12143508D01*
X10891611Y-12143508D02*
X10872563Y-12114936D01*
X10872563Y-12114936D02*
X10863039Y-12105412D01*
D12*
X5897500Y-12506500D02*
G75*
G02*
X5817500Y-12506500I-40000J0D01*
G01*
X5817500Y-12506500D02*
G75*
G02*
X5897500Y-12506500I40000J0D01*
G01*
D11*
X6196372Y-12397984D02*
X6215420Y-12397984D01*
X6215420Y-12397984D02*
X6234467Y-12407508D01*
X6234467Y-12407508D02*
X6243991Y-12417031D01*
X6243991Y-12417031D02*
X6253515Y-12436079D01*
X6253515Y-12436079D02*
X6263039Y-12474174D01*
X6263039Y-12474174D02*
X6263039Y-12521793D01*
X6263039Y-12521793D02*
X6253515Y-12559888D01*
X6253515Y-12559888D02*
X6243991Y-12578936D01*
X6243991Y-12578936D02*
X6234467Y-12588460D01*
X6234467Y-12588460D02*
X6215420Y-12597984D01*
X6215420Y-12597984D02*
X6196372Y-12597984D01*
X6196372Y-12597984D02*
X6177324Y-12588460D01*
X6177324Y-12588460D02*
X6167801Y-12578936D01*
X6167801Y-12578936D02*
X6158277Y-12559888D01*
X6158277Y-12559888D02*
X6148753Y-12521793D01*
X6148753Y-12521793D02*
X6148753Y-12474174D01*
X6148753Y-12474174D02*
X6158277Y-12436079D01*
X6158277Y-12436079D02*
X6167801Y-12417031D01*
X6167801Y-12417031D02*
X6177324Y-12407508D01*
X6177324Y-12407508D02*
X6196372Y-12397984D01*
X6348753Y-12578936D02*
X6358277Y-12588460D01*
X6358277Y-12588460D02*
X6348753Y-12597984D01*
X6348753Y-12597984D02*
X6339229Y-12588460D01*
X6339229Y-12588460D02*
X6348753Y-12578936D01*
X6348753Y-12578936D02*
X6348753Y-12597984D01*
X6472562Y-12483698D02*
X6453515Y-12474174D01*
X6453515Y-12474174D02*
X6443991Y-12464650D01*
X6443991Y-12464650D02*
X6434467Y-12445603D01*
X6434467Y-12445603D02*
X6434467Y-12436079D01*
X6434467Y-12436079D02*
X6443991Y-12417031D01*
X6443991Y-12417031D02*
X6453515Y-12407508D01*
X6453515Y-12407508D02*
X6472562Y-12397984D01*
X6472562Y-12397984D02*
X6510658Y-12397984D01*
X6510658Y-12397984D02*
X6529705Y-12407508D01*
X6529705Y-12407508D02*
X6539229Y-12417031D01*
X6539229Y-12417031D02*
X6548753Y-12436079D01*
X6548753Y-12436079D02*
X6548753Y-12445603D01*
X6548753Y-12445603D02*
X6539229Y-12464650D01*
X6539229Y-12464650D02*
X6529705Y-12474174D01*
X6529705Y-12474174D02*
X6510658Y-12483698D01*
X6510658Y-12483698D02*
X6472562Y-12483698D01*
X6472562Y-12483698D02*
X6453515Y-12493222D01*
X6453515Y-12493222D02*
X6443991Y-12502746D01*
X6443991Y-12502746D02*
X6434467Y-12521793D01*
X6434467Y-12521793D02*
X6434467Y-12559888D01*
X6434467Y-12559888D02*
X6443991Y-12578936D01*
X6443991Y-12578936D02*
X6453515Y-12588460D01*
X6453515Y-12588460D02*
X6472562Y-12597984D01*
X6472562Y-12597984D02*
X6510658Y-12597984D01*
X6510658Y-12597984D02*
X6529705Y-12588460D01*
X6529705Y-12588460D02*
X6539229Y-12578936D01*
X6539229Y-12578936D02*
X6548753Y-12559888D01*
X6548753Y-12559888D02*
X6548753Y-12521793D01*
X6548753Y-12521793D02*
X6539229Y-12502746D01*
X6539229Y-12502746D02*
X6529705Y-12493222D01*
X6529705Y-12493222D02*
X6510658Y-12483698D01*
X6672562Y-12397984D02*
X6691610Y-12397984D01*
X6691610Y-12397984D02*
X6710658Y-12407508D01*
X6710658Y-12407508D02*
X6720182Y-12417031D01*
X6720182Y-12417031D02*
X6729705Y-12436079D01*
X6729705Y-12436079D02*
X6739229Y-12474174D01*
X6739229Y-12474174D02*
X6739229Y-12521793D01*
X6739229Y-12521793D02*
X6729705Y-12559888D01*
X6729705Y-12559888D02*
X6720182Y-12578936D01*
X6720182Y-12578936D02*
X6710658Y-12588460D01*
X6710658Y-12588460D02*
X6691610Y-12597984D01*
X6691610Y-12597984D02*
X6672562Y-12597984D01*
X6672562Y-12597984D02*
X6653515Y-12588460D01*
X6653515Y-12588460D02*
X6643991Y-12578936D01*
X6643991Y-12578936D02*
X6634467Y-12559888D01*
X6634467Y-12559888D02*
X6624943Y-12521793D01*
X6624943Y-12521793D02*
X6624943Y-12474174D01*
X6624943Y-12474174D02*
X6634467Y-12436079D01*
X6634467Y-12436079D02*
X6643991Y-12417031D01*
X6643991Y-12417031D02*
X6653515Y-12407508D01*
X6653515Y-12407508D02*
X6672562Y-12397984D01*
X6863039Y-12397984D02*
X6882086Y-12397984D01*
X6882086Y-12397984D02*
X6901134Y-12407508D01*
X6901134Y-12407508D02*
X6910658Y-12417031D01*
X6910658Y-12417031D02*
X6920182Y-12436079D01*
X6920182Y-12436079D02*
X6929705Y-12474174D01*
X6929705Y-12474174D02*
X6929705Y-12521793D01*
X6929705Y-12521793D02*
X6920182Y-12559888D01*
X6920182Y-12559888D02*
X6910658Y-12578936D01*
X6910658Y-12578936D02*
X6901134Y-12588460D01*
X6901134Y-12588460D02*
X6882086Y-12597984D01*
X6882086Y-12597984D02*
X6863039Y-12597984D01*
X6863039Y-12597984D02*
X6843991Y-12588460D01*
X6843991Y-12588460D02*
X6834467Y-12578936D01*
X6834467Y-12578936D02*
X6824943Y-12559888D01*
X6824943Y-12559888D02*
X6815420Y-12521793D01*
X6815420Y-12521793D02*
X6815420Y-12474174D01*
X6815420Y-12474174D02*
X6824943Y-12436079D01*
X6824943Y-12436079D02*
X6834467Y-12417031D01*
X6834467Y-12417031D02*
X6843991Y-12407508D01*
X6843991Y-12407508D02*
X6863039Y-12397984D01*
X7015420Y-12597984D02*
X7015420Y-12464650D01*
X7015420Y-12483698D02*
X7024943Y-12474174D01*
X7024943Y-12474174D02*
X7043991Y-12464650D01*
X7043991Y-12464650D02*
X7072563Y-12464650D01*
X7072563Y-12464650D02*
X7091610Y-12474174D01*
X7091610Y-12474174D02*
X7101134Y-12493222D01*
X7101134Y-12493222D02*
X7101134Y-12597984D01*
X7101134Y-12493222D02*
X7110658Y-12474174D01*
X7110658Y-12474174D02*
X7129705Y-12464650D01*
X7129705Y-12464650D02*
X7158277Y-12464650D01*
X7158277Y-12464650D02*
X7177324Y-12474174D01*
X7177324Y-12474174D02*
X7186848Y-12493222D01*
X7186848Y-12493222D02*
X7186848Y-12597984D01*
X7282086Y-12597984D02*
X7282086Y-12464650D01*
X7282086Y-12483698D02*
X7291610Y-12474174D01*
X7291610Y-12474174D02*
X7310658Y-12464650D01*
X7310658Y-12464650D02*
X7339229Y-12464650D01*
X7339229Y-12464650D02*
X7358277Y-12474174D01*
X7358277Y-12474174D02*
X7367801Y-12493222D01*
X7367801Y-12493222D02*
X7367801Y-12597984D01*
X7367801Y-12493222D02*
X7377324Y-12474174D01*
X7377324Y-12474174D02*
X7396372Y-12464650D01*
X7396372Y-12464650D02*
X7424943Y-12464650D01*
X7424943Y-12464650D02*
X7443991Y-12474174D01*
X7443991Y-12474174D02*
X7453515Y-12493222D01*
X7453515Y-12493222D02*
X7453515Y-12597984D01*
X7843991Y-12388460D02*
X7672563Y-12645603D01*
X8101134Y-12397984D02*
X8120182Y-12397984D01*
X8120182Y-12397984D02*
X8139229Y-12407508D01*
X8139229Y-12407508D02*
X8148753Y-12417031D01*
X8148753Y-12417031D02*
X8158277Y-12436079D01*
X8158277Y-12436079D02*
X8167801Y-12474174D01*
X8167801Y-12474174D02*
X8167801Y-12521793D01*
X8167801Y-12521793D02*
X8158277Y-12559888D01*
X8158277Y-12559888D02*
X8148753Y-12578936D01*
X8148753Y-12578936D02*
X8139229Y-12588460D01*
X8139229Y-12588460D02*
X8120182Y-12597984D01*
X8120182Y-12597984D02*
X8101134Y-12597984D01*
X8101134Y-12597984D02*
X8082086Y-12588460D01*
X8082086Y-12588460D02*
X8072563Y-12578936D01*
X8072563Y-12578936D02*
X8063039Y-12559888D01*
X8063039Y-12559888D02*
X8053515Y-12521793D01*
X8053515Y-12521793D02*
X8053515Y-12474174D01*
X8053515Y-12474174D02*
X8063039Y-12436079D01*
X8063039Y-12436079D02*
X8072563Y-12417031D01*
X8072563Y-12417031D02*
X8082086Y-12407508D01*
X8082086Y-12407508D02*
X8101134Y-12397984D01*
X8253515Y-12578936D02*
X8263039Y-12588460D01*
X8263039Y-12588460D02*
X8253515Y-12597984D01*
X8253515Y-12597984D02*
X8243991Y-12588460D01*
X8243991Y-12588460D02*
X8253515Y-12578936D01*
X8253515Y-12578936D02*
X8253515Y-12597984D01*
X8386848Y-12397984D02*
X8405896Y-12397984D01*
X8405896Y-12397984D02*
X8424944Y-12407508D01*
X8424944Y-12407508D02*
X8434468Y-12417031D01*
X8434468Y-12417031D02*
X8443991Y-12436079D01*
X8443991Y-12436079D02*
X8453515Y-12474174D01*
X8453515Y-12474174D02*
X8453515Y-12521793D01*
X8453515Y-12521793D02*
X8443991Y-12559888D01*
X8443991Y-12559888D02*
X8434468Y-12578936D01*
X8434468Y-12578936D02*
X8424944Y-12588460D01*
X8424944Y-12588460D02*
X8405896Y-12597984D01*
X8405896Y-12597984D02*
X8386848Y-12597984D01*
X8386848Y-12597984D02*
X8367801Y-12588460D01*
X8367801Y-12588460D02*
X8358277Y-12578936D01*
X8358277Y-12578936D02*
X8348753Y-12559888D01*
X8348753Y-12559888D02*
X8339229Y-12521793D01*
X8339229Y-12521793D02*
X8339229Y-12474174D01*
X8339229Y-12474174D02*
X8348753Y-12436079D01*
X8348753Y-12436079D02*
X8358277Y-12417031D01*
X8358277Y-12417031D02*
X8367801Y-12407508D01*
X8367801Y-12407508D02*
X8386848Y-12397984D01*
X8520182Y-12397984D02*
X8643991Y-12397984D01*
X8643991Y-12397984D02*
X8577325Y-12474174D01*
X8577325Y-12474174D02*
X8605896Y-12474174D01*
X8605896Y-12474174D02*
X8624944Y-12483698D01*
X8624944Y-12483698D02*
X8634468Y-12493222D01*
X8634468Y-12493222D02*
X8643991Y-12512269D01*
X8643991Y-12512269D02*
X8643991Y-12559888D01*
X8643991Y-12559888D02*
X8634468Y-12578936D01*
X8634468Y-12578936D02*
X8624944Y-12588460D01*
X8624944Y-12588460D02*
X8605896Y-12597984D01*
X8605896Y-12597984D02*
X8548753Y-12597984D01*
X8548753Y-12597984D02*
X8529706Y-12588460D01*
X8529706Y-12588460D02*
X8520182Y-12578936D01*
X8834468Y-12597984D02*
X8720182Y-12597984D01*
X8777325Y-12597984D02*
X8777325Y-12397984D01*
X8777325Y-12397984D02*
X8758277Y-12426555D01*
X8758277Y-12426555D02*
X8739229Y-12445603D01*
X8739229Y-12445603D02*
X8720182Y-12455127D01*
X9015420Y-12397984D02*
X8920182Y-12397984D01*
X8920182Y-12397984D02*
X8910658Y-12493222D01*
X8910658Y-12493222D02*
X8920182Y-12483698D01*
X8920182Y-12483698D02*
X8939229Y-12474174D01*
X8939229Y-12474174D02*
X8986849Y-12474174D01*
X8986849Y-12474174D02*
X9005896Y-12483698D01*
X9005896Y-12483698D02*
X9015420Y-12493222D01*
X9015420Y-12493222D02*
X9024944Y-12512269D01*
X9024944Y-12512269D02*
X9024944Y-12559888D01*
X9024944Y-12559888D02*
X9015420Y-12578936D01*
X9015420Y-12578936D02*
X9005896Y-12588460D01*
X9005896Y-12588460D02*
X8986849Y-12597984D01*
X8986849Y-12597984D02*
X8939229Y-12597984D01*
X8939229Y-12597984D02*
X8920182Y-12588460D01*
X8920182Y-12588460D02*
X8910658Y-12578936D01*
X9101134Y-12397984D02*
X9101134Y-12436079D01*
X9177325Y-12397984D02*
X9177325Y-12436079D01*
X9472563Y-12674174D02*
X9463039Y-12664650D01*
X9463039Y-12664650D02*
X9443991Y-12636079D01*
X9443991Y-12636079D02*
X9434468Y-12617031D01*
X9434468Y-12617031D02*
X9424944Y-12588460D01*
X9424944Y-12588460D02*
X9415420Y-12540841D01*
X9415420Y-12540841D02*
X9415420Y-12502746D01*
X9415420Y-12502746D02*
X9424944Y-12455127D01*
X9424944Y-12455127D02*
X9434468Y-12426555D01*
X9434468Y-12426555D02*
X9443991Y-12407508D01*
X9443991Y-12407508D02*
X9463039Y-12378936D01*
X9463039Y-12378936D02*
X9472563Y-12369412D01*
X9653515Y-12597984D02*
X9539230Y-12597984D01*
X9596372Y-12597984D02*
X9596372Y-12397984D01*
X9596372Y-12397984D02*
X9577325Y-12426555D01*
X9577325Y-12426555D02*
X9558277Y-12445603D01*
X9558277Y-12445603D02*
X9539230Y-12455127D01*
X9767801Y-12483698D02*
X9748753Y-12474174D01*
X9748753Y-12474174D02*
X9739230Y-12464650D01*
X9739230Y-12464650D02*
X9729706Y-12445603D01*
X9729706Y-12445603D02*
X9729706Y-12436079D01*
X9729706Y-12436079D02*
X9739230Y-12417031D01*
X9739230Y-12417031D02*
X9748753Y-12407508D01*
X9748753Y-12407508D02*
X9767801Y-12397984D01*
X9767801Y-12397984D02*
X9805896Y-12397984D01*
X9805896Y-12397984D02*
X9824944Y-12407508D01*
X9824944Y-12407508D02*
X9834468Y-12417031D01*
X9834468Y-12417031D02*
X9843991Y-12436079D01*
X9843991Y-12436079D02*
X9843991Y-12445603D01*
X9843991Y-12445603D02*
X9834468Y-12464650D01*
X9834468Y-12464650D02*
X9824944Y-12474174D01*
X9824944Y-12474174D02*
X9805896Y-12483698D01*
X9805896Y-12483698D02*
X9767801Y-12483698D01*
X9767801Y-12483698D02*
X9748753Y-12493222D01*
X9748753Y-12493222D02*
X9739230Y-12502746D01*
X9739230Y-12502746D02*
X9729706Y-12521793D01*
X9729706Y-12521793D02*
X9729706Y-12559888D01*
X9729706Y-12559888D02*
X9739230Y-12578936D01*
X9739230Y-12578936D02*
X9748753Y-12588460D01*
X9748753Y-12588460D02*
X9767801Y-12597984D01*
X9767801Y-12597984D02*
X9805896Y-12597984D01*
X9805896Y-12597984D02*
X9824944Y-12588460D01*
X9824944Y-12588460D02*
X9834468Y-12578936D01*
X9834468Y-12578936D02*
X9843991Y-12559888D01*
X9843991Y-12559888D02*
X9843991Y-12521793D01*
X9843991Y-12521793D02*
X9834468Y-12502746D01*
X9834468Y-12502746D02*
X9824944Y-12493222D01*
X9824944Y-12493222D02*
X9805896Y-12483698D01*
X10082087Y-12597984D02*
X10082087Y-12397984D01*
X10167801Y-12597984D02*
X10167801Y-12493222D01*
X10167801Y-12493222D02*
X10158277Y-12474174D01*
X10158277Y-12474174D02*
X10139230Y-12464650D01*
X10139230Y-12464650D02*
X10110658Y-12464650D01*
X10110658Y-12464650D02*
X10091611Y-12474174D01*
X10091611Y-12474174D02*
X10082087Y-12483698D01*
X10291611Y-12597984D02*
X10272563Y-12588460D01*
X10272563Y-12588460D02*
X10263039Y-12578936D01*
X10263039Y-12578936D02*
X10253515Y-12559888D01*
X10253515Y-12559888D02*
X10253515Y-12502746D01*
X10253515Y-12502746D02*
X10263039Y-12483698D01*
X10263039Y-12483698D02*
X10272563Y-12474174D01*
X10272563Y-12474174D02*
X10291611Y-12464650D01*
X10291611Y-12464650D02*
X10320182Y-12464650D01*
X10320182Y-12464650D02*
X10339230Y-12474174D01*
X10339230Y-12474174D02*
X10348753Y-12483698D01*
X10348753Y-12483698D02*
X10358277Y-12502746D01*
X10358277Y-12502746D02*
X10358277Y-12559888D01*
X10358277Y-12559888D02*
X10348753Y-12578936D01*
X10348753Y-12578936D02*
X10339230Y-12588460D01*
X10339230Y-12588460D02*
X10320182Y-12597984D01*
X10320182Y-12597984D02*
X10291611Y-12597984D01*
X10472563Y-12597984D02*
X10453515Y-12588460D01*
X10453515Y-12588460D02*
X10443992Y-12569412D01*
X10443992Y-12569412D02*
X10443992Y-12397984D01*
X10624944Y-12588460D02*
X10605896Y-12597984D01*
X10605896Y-12597984D02*
X10567801Y-12597984D01*
X10567801Y-12597984D02*
X10548753Y-12588460D01*
X10548753Y-12588460D02*
X10539230Y-12569412D01*
X10539230Y-12569412D02*
X10539230Y-12493222D01*
X10539230Y-12493222D02*
X10548753Y-12474174D01*
X10548753Y-12474174D02*
X10567801Y-12464650D01*
X10567801Y-12464650D02*
X10605896Y-12464650D01*
X10605896Y-12464650D02*
X10624944Y-12474174D01*
X10624944Y-12474174D02*
X10634468Y-12493222D01*
X10634468Y-12493222D02*
X10634468Y-12512269D01*
X10634468Y-12512269D02*
X10539230Y-12531317D01*
X10710658Y-12588460D02*
X10729706Y-12597984D01*
X10729706Y-12597984D02*
X10767801Y-12597984D01*
X10767801Y-12597984D02*
X10786849Y-12588460D01*
X10786849Y-12588460D02*
X10796373Y-12569412D01*
X10796373Y-12569412D02*
X10796373Y-12559888D01*
X10796373Y-12559888D02*
X10786849Y-12540841D01*
X10786849Y-12540841D02*
X10767801Y-12531317D01*
X10767801Y-12531317D02*
X10739230Y-12531317D01*
X10739230Y-12531317D02*
X10720182Y-12521793D01*
X10720182Y-12521793D02*
X10710658Y-12502746D01*
X10710658Y-12502746D02*
X10710658Y-12493222D01*
X10710658Y-12493222D02*
X10720182Y-12474174D01*
X10720182Y-12474174D02*
X10739230Y-12464650D01*
X10739230Y-12464650D02*
X10767801Y-12464650D01*
X10767801Y-12464650D02*
X10786849Y-12474174D01*
X10863039Y-12674174D02*
X10872563Y-12664650D01*
X10872563Y-12664650D02*
X10891611Y-12636079D01*
X10891611Y-12636079D02*
X10901134Y-12617031D01*
X10901134Y-12617031D02*
X10910658Y-12588460D01*
X10910658Y-12588460D02*
X10920182Y-12540841D01*
X10920182Y-12540841D02*
X10920182Y-12502746D01*
X10920182Y-12502746D02*
X10910658Y-12455127D01*
X10910658Y-12455127D02*
X10901134Y-12426555D01*
X10901134Y-12426555D02*
X10891611Y-12407508D01*
X10891611Y-12407508D02*
X10872563Y-12378936D01*
X10872563Y-12378936D02*
X10863039Y-12369412D01*
D12*
X5853050Y-12726050D02*
X5853050Y-12814950D01*
X5808600Y-12770500D02*
X5897500Y-12770500D01*
D11*
X6196372Y-12661984D02*
X6215420Y-12661984D01*
X6215420Y-12661984D02*
X6234467Y-12671508D01*
X6234467Y-12671508D02*
X6243991Y-12681031D01*
X6243991Y-12681031D02*
X6253515Y-12700079D01*
X6253515Y-12700079D02*
X6263039Y-12738174D01*
X6263039Y-12738174D02*
X6263039Y-12785793D01*
X6263039Y-12785793D02*
X6253515Y-12823888D01*
X6253515Y-12823888D02*
X6243991Y-12842936D01*
X6243991Y-12842936D02*
X6234467Y-12852460D01*
X6234467Y-12852460D02*
X6215420Y-12861984D01*
X6215420Y-12861984D02*
X6196372Y-12861984D01*
X6196372Y-12861984D02*
X6177324Y-12852460D01*
X6177324Y-12852460D02*
X6167801Y-12842936D01*
X6167801Y-12842936D02*
X6158277Y-12823888D01*
X6158277Y-12823888D02*
X6148753Y-12785793D01*
X6148753Y-12785793D02*
X6148753Y-12738174D01*
X6148753Y-12738174D02*
X6158277Y-12700079D01*
X6158277Y-12700079D02*
X6167801Y-12681031D01*
X6167801Y-12681031D02*
X6177324Y-12671508D01*
X6177324Y-12671508D02*
X6196372Y-12661984D01*
X6348753Y-12842936D02*
X6358277Y-12852460D01*
X6358277Y-12852460D02*
X6348753Y-12861984D01*
X6348753Y-12861984D02*
X6339229Y-12852460D01*
X6339229Y-12852460D02*
X6348753Y-12842936D01*
X6348753Y-12842936D02*
X6348753Y-12861984D01*
X6472562Y-12747698D02*
X6453515Y-12738174D01*
X6453515Y-12738174D02*
X6443991Y-12728650D01*
X6443991Y-12728650D02*
X6434467Y-12709603D01*
X6434467Y-12709603D02*
X6434467Y-12700079D01*
X6434467Y-12700079D02*
X6443991Y-12681031D01*
X6443991Y-12681031D02*
X6453515Y-12671508D01*
X6453515Y-12671508D02*
X6472562Y-12661984D01*
X6472562Y-12661984D02*
X6510658Y-12661984D01*
X6510658Y-12661984D02*
X6529705Y-12671508D01*
X6529705Y-12671508D02*
X6539229Y-12681031D01*
X6539229Y-12681031D02*
X6548753Y-12700079D01*
X6548753Y-12700079D02*
X6548753Y-12709603D01*
X6548753Y-12709603D02*
X6539229Y-12728650D01*
X6539229Y-12728650D02*
X6529705Y-12738174D01*
X6529705Y-12738174D02*
X6510658Y-12747698D01*
X6510658Y-12747698D02*
X6472562Y-12747698D01*
X6472562Y-12747698D02*
X6453515Y-12757222D01*
X6453515Y-12757222D02*
X6443991Y-12766746D01*
X6443991Y-12766746D02*
X6434467Y-12785793D01*
X6434467Y-12785793D02*
X6434467Y-12823888D01*
X6434467Y-12823888D02*
X6443991Y-12842936D01*
X6443991Y-12842936D02*
X6453515Y-12852460D01*
X6453515Y-12852460D02*
X6472562Y-12861984D01*
X6472562Y-12861984D02*
X6510658Y-12861984D01*
X6510658Y-12861984D02*
X6529705Y-12852460D01*
X6529705Y-12852460D02*
X6539229Y-12842936D01*
X6539229Y-12842936D02*
X6548753Y-12823888D01*
X6548753Y-12823888D02*
X6548753Y-12785793D01*
X6548753Y-12785793D02*
X6539229Y-12766746D01*
X6539229Y-12766746D02*
X6529705Y-12757222D01*
X6529705Y-12757222D02*
X6510658Y-12747698D01*
X6663039Y-12747698D02*
X6643991Y-12738174D01*
X6643991Y-12738174D02*
X6634467Y-12728650D01*
X6634467Y-12728650D02*
X6624943Y-12709603D01*
X6624943Y-12709603D02*
X6624943Y-12700079D01*
X6624943Y-12700079D02*
X6634467Y-12681031D01*
X6634467Y-12681031D02*
X6643991Y-12671508D01*
X6643991Y-12671508D02*
X6663039Y-12661984D01*
X6663039Y-12661984D02*
X6701134Y-12661984D01*
X6701134Y-12661984D02*
X6720182Y-12671508D01*
X6720182Y-12671508D02*
X6729705Y-12681031D01*
X6729705Y-12681031D02*
X6739229Y-12700079D01*
X6739229Y-12700079D02*
X6739229Y-12709603D01*
X6739229Y-12709603D02*
X6729705Y-12728650D01*
X6729705Y-12728650D02*
X6720182Y-12738174D01*
X6720182Y-12738174D02*
X6701134Y-12747698D01*
X6701134Y-12747698D02*
X6663039Y-12747698D01*
X6663039Y-12747698D02*
X6643991Y-12757222D01*
X6643991Y-12757222D02*
X6634467Y-12766746D01*
X6634467Y-12766746D02*
X6624943Y-12785793D01*
X6624943Y-12785793D02*
X6624943Y-12823888D01*
X6624943Y-12823888D02*
X6634467Y-12842936D01*
X6634467Y-12842936D02*
X6643991Y-12852460D01*
X6643991Y-12852460D02*
X6663039Y-12861984D01*
X6663039Y-12861984D02*
X6701134Y-12861984D01*
X6701134Y-12861984D02*
X6720182Y-12852460D01*
X6720182Y-12852460D02*
X6729705Y-12842936D01*
X6729705Y-12842936D02*
X6739229Y-12823888D01*
X6739229Y-12823888D02*
X6739229Y-12785793D01*
X6739229Y-12785793D02*
X6729705Y-12766746D01*
X6729705Y-12766746D02*
X6720182Y-12757222D01*
X6720182Y-12757222D02*
X6701134Y-12747698D01*
X6834467Y-12861984D02*
X6872562Y-12861984D01*
X6872562Y-12861984D02*
X6891610Y-12852460D01*
X6891610Y-12852460D02*
X6901134Y-12842936D01*
X6901134Y-12842936D02*
X6920182Y-12814365D01*
X6920182Y-12814365D02*
X6929705Y-12776269D01*
X6929705Y-12776269D02*
X6929705Y-12700079D01*
X6929705Y-12700079D02*
X6920182Y-12681031D01*
X6920182Y-12681031D02*
X6910658Y-12671508D01*
X6910658Y-12671508D02*
X6891610Y-12661984D01*
X6891610Y-12661984D02*
X6853515Y-12661984D01*
X6853515Y-12661984D02*
X6834467Y-12671508D01*
X6834467Y-12671508D02*
X6824943Y-12681031D01*
X6824943Y-12681031D02*
X6815420Y-12700079D01*
X6815420Y-12700079D02*
X6815420Y-12747698D01*
X6815420Y-12747698D02*
X6824943Y-12766746D01*
X6824943Y-12766746D02*
X6834467Y-12776269D01*
X6834467Y-12776269D02*
X6853515Y-12785793D01*
X6853515Y-12785793D02*
X6891610Y-12785793D01*
X6891610Y-12785793D02*
X6910658Y-12776269D01*
X6910658Y-12776269D02*
X6920182Y-12766746D01*
X6920182Y-12766746D02*
X6929705Y-12747698D01*
X7015420Y-12861984D02*
X7015420Y-12728650D01*
X7015420Y-12747698D02*
X7024943Y-12738174D01*
X7024943Y-12738174D02*
X7043991Y-12728650D01*
X7043991Y-12728650D02*
X7072563Y-12728650D01*
X7072563Y-12728650D02*
X7091610Y-12738174D01*
X7091610Y-12738174D02*
X7101134Y-12757222D01*
X7101134Y-12757222D02*
X7101134Y-12861984D01*
X7101134Y-12757222D02*
X7110658Y-12738174D01*
X7110658Y-12738174D02*
X7129705Y-12728650D01*
X7129705Y-12728650D02*
X7158277Y-12728650D01*
X7158277Y-12728650D02*
X7177324Y-12738174D01*
X7177324Y-12738174D02*
X7186848Y-12757222D01*
X7186848Y-12757222D02*
X7186848Y-12861984D01*
X7282086Y-12861984D02*
X7282086Y-12728650D01*
X7282086Y-12747698D02*
X7291610Y-12738174D01*
X7291610Y-12738174D02*
X7310658Y-12728650D01*
X7310658Y-12728650D02*
X7339229Y-12728650D01*
X7339229Y-12728650D02*
X7358277Y-12738174D01*
X7358277Y-12738174D02*
X7367801Y-12757222D01*
X7367801Y-12757222D02*
X7367801Y-12861984D01*
X7367801Y-12757222D02*
X7377324Y-12738174D01*
X7377324Y-12738174D02*
X7396372Y-12728650D01*
X7396372Y-12728650D02*
X7424943Y-12728650D01*
X7424943Y-12728650D02*
X7443991Y-12738174D01*
X7443991Y-12738174D02*
X7453515Y-12757222D01*
X7453515Y-12757222D02*
X7453515Y-12861984D01*
X7843991Y-12652460D02*
X7672563Y-12909603D01*
X8101134Y-12661984D02*
X8120182Y-12661984D01*
X8120182Y-12661984D02*
X8139229Y-12671508D01*
X8139229Y-12671508D02*
X8148753Y-12681031D01*
X8148753Y-12681031D02*
X8158277Y-12700079D01*
X8158277Y-12700079D02*
X8167801Y-12738174D01*
X8167801Y-12738174D02*
X8167801Y-12785793D01*
X8167801Y-12785793D02*
X8158277Y-12823888D01*
X8158277Y-12823888D02*
X8148753Y-12842936D01*
X8148753Y-12842936D02*
X8139229Y-12852460D01*
X8139229Y-12852460D02*
X8120182Y-12861984D01*
X8120182Y-12861984D02*
X8101134Y-12861984D01*
X8101134Y-12861984D02*
X8082086Y-12852460D01*
X8082086Y-12852460D02*
X8072563Y-12842936D01*
X8072563Y-12842936D02*
X8063039Y-12823888D01*
X8063039Y-12823888D02*
X8053515Y-12785793D01*
X8053515Y-12785793D02*
X8053515Y-12738174D01*
X8053515Y-12738174D02*
X8063039Y-12700079D01*
X8063039Y-12700079D02*
X8072563Y-12681031D01*
X8072563Y-12681031D02*
X8082086Y-12671508D01*
X8082086Y-12671508D02*
X8101134Y-12661984D01*
X8253515Y-12842936D02*
X8263039Y-12852460D01*
X8263039Y-12852460D02*
X8253515Y-12861984D01*
X8253515Y-12861984D02*
X8243991Y-12852460D01*
X8243991Y-12852460D02*
X8253515Y-12842936D01*
X8253515Y-12842936D02*
X8253515Y-12861984D01*
X8386848Y-12661984D02*
X8405896Y-12661984D01*
X8405896Y-12661984D02*
X8424944Y-12671508D01*
X8424944Y-12671508D02*
X8434468Y-12681031D01*
X8434468Y-12681031D02*
X8443991Y-12700079D01*
X8443991Y-12700079D02*
X8453515Y-12738174D01*
X8453515Y-12738174D02*
X8453515Y-12785793D01*
X8453515Y-12785793D02*
X8443991Y-12823888D01*
X8443991Y-12823888D02*
X8434468Y-12842936D01*
X8434468Y-12842936D02*
X8424944Y-12852460D01*
X8424944Y-12852460D02*
X8405896Y-12861984D01*
X8405896Y-12861984D02*
X8386848Y-12861984D01*
X8386848Y-12861984D02*
X8367801Y-12852460D01*
X8367801Y-12852460D02*
X8358277Y-12842936D01*
X8358277Y-12842936D02*
X8348753Y-12823888D01*
X8348753Y-12823888D02*
X8339229Y-12785793D01*
X8339229Y-12785793D02*
X8339229Y-12738174D01*
X8339229Y-12738174D02*
X8348753Y-12700079D01*
X8348753Y-12700079D02*
X8358277Y-12681031D01*
X8358277Y-12681031D02*
X8367801Y-12671508D01*
X8367801Y-12671508D02*
X8386848Y-12661984D01*
X8520182Y-12661984D02*
X8643991Y-12661984D01*
X8643991Y-12661984D02*
X8577325Y-12738174D01*
X8577325Y-12738174D02*
X8605896Y-12738174D01*
X8605896Y-12738174D02*
X8624944Y-12747698D01*
X8624944Y-12747698D02*
X8634468Y-12757222D01*
X8634468Y-12757222D02*
X8643991Y-12776269D01*
X8643991Y-12776269D02*
X8643991Y-12823888D01*
X8643991Y-12823888D02*
X8634468Y-12842936D01*
X8634468Y-12842936D02*
X8624944Y-12852460D01*
X8624944Y-12852460D02*
X8605896Y-12861984D01*
X8605896Y-12861984D02*
X8548753Y-12861984D01*
X8548753Y-12861984D02*
X8529706Y-12852460D01*
X8529706Y-12852460D02*
X8520182Y-12842936D01*
X8824944Y-12661984D02*
X8729706Y-12661984D01*
X8729706Y-12661984D02*
X8720182Y-12757222D01*
X8720182Y-12757222D02*
X8729706Y-12747698D01*
X8729706Y-12747698D02*
X8748753Y-12738174D01*
X8748753Y-12738174D02*
X8796372Y-12738174D01*
X8796372Y-12738174D02*
X8815420Y-12747698D01*
X8815420Y-12747698D02*
X8824944Y-12757222D01*
X8824944Y-12757222D02*
X8834468Y-12776269D01*
X8834468Y-12776269D02*
X8834468Y-12823888D01*
X8834468Y-12823888D02*
X8824944Y-12842936D01*
X8824944Y-12842936D02*
X8815420Y-12852460D01*
X8815420Y-12852460D02*
X8796372Y-12861984D01*
X8796372Y-12861984D02*
X8748753Y-12861984D01*
X8748753Y-12861984D02*
X8729706Y-12852460D01*
X8729706Y-12852460D02*
X8720182Y-12842936D01*
X8958277Y-12661984D02*
X8977325Y-12661984D01*
X8977325Y-12661984D02*
X8996372Y-12671508D01*
X8996372Y-12671508D02*
X9005896Y-12681031D01*
X9005896Y-12681031D02*
X9015420Y-12700079D01*
X9015420Y-12700079D02*
X9024944Y-12738174D01*
X9024944Y-12738174D02*
X9024944Y-12785793D01*
X9024944Y-12785793D02*
X9015420Y-12823888D01*
X9015420Y-12823888D02*
X9005896Y-12842936D01*
X9005896Y-12842936D02*
X8996372Y-12852460D01*
X8996372Y-12852460D02*
X8977325Y-12861984D01*
X8977325Y-12861984D02*
X8958277Y-12861984D01*
X8958277Y-12861984D02*
X8939229Y-12852460D01*
X8939229Y-12852460D02*
X8929706Y-12842936D01*
X8929706Y-12842936D02*
X8920182Y-12823888D01*
X8920182Y-12823888D02*
X8910658Y-12785793D01*
X8910658Y-12785793D02*
X8910658Y-12738174D01*
X8910658Y-12738174D02*
X8920182Y-12700079D01*
X8920182Y-12700079D02*
X8929706Y-12681031D01*
X8929706Y-12681031D02*
X8939229Y-12671508D01*
X8939229Y-12671508D02*
X8958277Y-12661984D01*
X9101134Y-12661984D02*
X9101134Y-12700079D01*
X9177325Y-12661984D02*
X9177325Y-12700079D01*
X9472563Y-12938174D02*
X9463039Y-12928650D01*
X9463039Y-12928650D02*
X9443991Y-12900079D01*
X9443991Y-12900079D02*
X9434468Y-12881031D01*
X9434468Y-12881031D02*
X9424944Y-12852460D01*
X9424944Y-12852460D02*
X9415420Y-12804841D01*
X9415420Y-12804841D02*
X9415420Y-12766746D01*
X9415420Y-12766746D02*
X9424944Y-12719127D01*
X9424944Y-12719127D02*
X9434468Y-12690555D01*
X9434468Y-12690555D02*
X9443991Y-12671508D01*
X9443991Y-12671508D02*
X9463039Y-12642936D01*
X9463039Y-12642936D02*
X9472563Y-12633412D01*
X9653515Y-12861984D02*
X9539230Y-12861984D01*
X9596372Y-12861984D02*
X9596372Y-12661984D01*
X9596372Y-12661984D02*
X9577325Y-12690555D01*
X9577325Y-12690555D02*
X9558277Y-12709603D01*
X9558277Y-12709603D02*
X9539230Y-12719127D01*
X9824944Y-12728650D02*
X9824944Y-12861984D01*
X9777325Y-12652460D02*
X9729706Y-12795317D01*
X9729706Y-12795317D02*
X9853515Y-12795317D01*
X10082087Y-12861984D02*
X10082087Y-12661984D01*
X10167801Y-12861984D02*
X10167801Y-12757222D01*
X10167801Y-12757222D02*
X10158277Y-12738174D01*
X10158277Y-12738174D02*
X10139230Y-12728650D01*
X10139230Y-12728650D02*
X10110658Y-12728650D01*
X10110658Y-12728650D02*
X10091611Y-12738174D01*
X10091611Y-12738174D02*
X10082087Y-12747698D01*
X10291611Y-12861984D02*
X10272563Y-12852460D01*
X10272563Y-12852460D02*
X10263039Y-12842936D01*
X10263039Y-12842936D02*
X10253515Y-12823888D01*
X10253515Y-12823888D02*
X10253515Y-12766746D01*
X10253515Y-12766746D02*
X10263039Y-12747698D01*
X10263039Y-12747698D02*
X10272563Y-12738174D01*
X10272563Y-12738174D02*
X10291611Y-12728650D01*
X10291611Y-12728650D02*
X10320182Y-12728650D01*
X10320182Y-12728650D02*
X10339230Y-12738174D01*
X10339230Y-12738174D02*
X10348753Y-12747698D01*
X10348753Y-12747698D02*
X10358277Y-12766746D01*
X10358277Y-12766746D02*
X10358277Y-12823888D01*
X10358277Y-12823888D02*
X10348753Y-12842936D01*
X10348753Y-12842936D02*
X10339230Y-12852460D01*
X10339230Y-12852460D02*
X10320182Y-12861984D01*
X10320182Y-12861984D02*
X10291611Y-12861984D01*
X10472563Y-12861984D02*
X10453515Y-12852460D01*
X10453515Y-12852460D02*
X10443992Y-12833412D01*
X10443992Y-12833412D02*
X10443992Y-12661984D01*
X10624944Y-12852460D02*
X10605896Y-12861984D01*
X10605896Y-12861984D02*
X10567801Y-12861984D01*
X10567801Y-12861984D02*
X10548753Y-12852460D01*
X10548753Y-12852460D02*
X10539230Y-12833412D01*
X10539230Y-12833412D02*
X10539230Y-12757222D01*
X10539230Y-12757222D02*
X10548753Y-12738174D01*
X10548753Y-12738174D02*
X10567801Y-12728650D01*
X10567801Y-12728650D02*
X10605896Y-12728650D01*
X10605896Y-12728650D02*
X10624944Y-12738174D01*
X10624944Y-12738174D02*
X10634468Y-12757222D01*
X10634468Y-12757222D02*
X10634468Y-12776269D01*
X10634468Y-12776269D02*
X10539230Y-12795317D01*
X10710658Y-12852460D02*
X10729706Y-12861984D01*
X10729706Y-12861984D02*
X10767801Y-12861984D01*
X10767801Y-12861984D02*
X10786849Y-12852460D01*
X10786849Y-12852460D02*
X10796373Y-12833412D01*
X10796373Y-12833412D02*
X10796373Y-12823888D01*
X10796373Y-12823888D02*
X10786849Y-12804841D01*
X10786849Y-12804841D02*
X10767801Y-12795317D01*
X10767801Y-12795317D02*
X10739230Y-12795317D01*
X10739230Y-12795317D02*
X10720182Y-12785793D01*
X10720182Y-12785793D02*
X10710658Y-12766746D01*
X10710658Y-12766746D02*
X10710658Y-12757222D01*
X10710658Y-12757222D02*
X10720182Y-12738174D01*
X10720182Y-12738174D02*
X10739230Y-12728650D01*
X10739230Y-12728650D02*
X10767801Y-12728650D01*
X10767801Y-12728650D02*
X10786849Y-12738174D01*
X10863039Y-12938174D02*
X10872563Y-12928650D01*
X10872563Y-12928650D02*
X10891611Y-12900079D01*
X10891611Y-12900079D02*
X10901134Y-12881031D01*
X10901134Y-12881031D02*
X10910658Y-12852460D01*
X10910658Y-12852460D02*
X10920182Y-12804841D01*
X10920182Y-12804841D02*
X10920182Y-12766746D01*
X10920182Y-12766746D02*
X10910658Y-12719127D01*
X10910658Y-12719127D02*
X10901134Y-12690555D01*
X10901134Y-12690555D02*
X10891611Y-12671508D01*
X10891611Y-12671508D02*
X10872563Y-12642936D01*
X10872563Y-12642936D02*
X10863039Y-12633412D01*
D12*
X5882856Y-13069856D02*
X5882856Y-12999144D01*
X5812144Y-12999144D01*
X5812144Y-13069856D01*
X5882856Y-13069856D01*
D11*
X6263039Y-13125984D02*
X6148753Y-13125984D01*
X6205896Y-13125984D02*
X6205896Y-12925984D01*
X6205896Y-12925984D02*
X6186848Y-12954555D01*
X6186848Y-12954555D02*
X6167801Y-12973603D01*
X6167801Y-12973603D02*
X6148753Y-12983127D01*
X6348753Y-13106936D02*
X6358277Y-13116460D01*
X6358277Y-13116460D02*
X6348753Y-13125984D01*
X6348753Y-13125984D02*
X6339229Y-13116460D01*
X6339229Y-13116460D02*
X6348753Y-13106936D01*
X6348753Y-13106936D02*
X6348753Y-13125984D01*
X6482086Y-12925984D02*
X6501134Y-12925984D01*
X6501134Y-12925984D02*
X6520182Y-12935508D01*
X6520182Y-12935508D02*
X6529705Y-12945031D01*
X6529705Y-12945031D02*
X6539229Y-12964079D01*
X6539229Y-12964079D02*
X6548753Y-13002174D01*
X6548753Y-13002174D02*
X6548753Y-13049793D01*
X6548753Y-13049793D02*
X6539229Y-13087888D01*
X6539229Y-13087888D02*
X6529705Y-13106936D01*
X6529705Y-13106936D02*
X6520182Y-13116460D01*
X6520182Y-13116460D02*
X6501134Y-13125984D01*
X6501134Y-13125984D02*
X6482086Y-13125984D01*
X6482086Y-13125984D02*
X6463039Y-13116460D01*
X6463039Y-13116460D02*
X6453515Y-13106936D01*
X6453515Y-13106936D02*
X6443991Y-13087888D01*
X6443991Y-13087888D02*
X6434467Y-13049793D01*
X6434467Y-13049793D02*
X6434467Y-13002174D01*
X6434467Y-13002174D02*
X6443991Y-12964079D01*
X6443991Y-12964079D02*
X6453515Y-12945031D01*
X6453515Y-12945031D02*
X6463039Y-12935508D01*
X6463039Y-12935508D02*
X6482086Y-12925984D01*
X6672562Y-12925984D02*
X6691610Y-12925984D01*
X6691610Y-12925984D02*
X6710658Y-12935508D01*
X6710658Y-12935508D02*
X6720182Y-12945031D01*
X6720182Y-12945031D02*
X6729705Y-12964079D01*
X6729705Y-12964079D02*
X6739229Y-13002174D01*
X6739229Y-13002174D02*
X6739229Y-13049793D01*
X6739229Y-13049793D02*
X6729705Y-13087888D01*
X6729705Y-13087888D02*
X6720182Y-13106936D01*
X6720182Y-13106936D02*
X6710658Y-13116460D01*
X6710658Y-13116460D02*
X6691610Y-13125984D01*
X6691610Y-13125984D02*
X6672562Y-13125984D01*
X6672562Y-13125984D02*
X6653515Y-13116460D01*
X6653515Y-13116460D02*
X6643991Y-13106936D01*
X6643991Y-13106936D02*
X6634467Y-13087888D01*
X6634467Y-13087888D02*
X6624943Y-13049793D01*
X6624943Y-13049793D02*
X6624943Y-13002174D01*
X6624943Y-13002174D02*
X6634467Y-12964079D01*
X6634467Y-12964079D02*
X6643991Y-12945031D01*
X6643991Y-12945031D02*
X6653515Y-12935508D01*
X6653515Y-12935508D02*
X6672562Y-12925984D01*
X6863039Y-12925984D02*
X6882086Y-12925984D01*
X6882086Y-12925984D02*
X6901134Y-12935508D01*
X6901134Y-12935508D02*
X6910658Y-12945031D01*
X6910658Y-12945031D02*
X6920182Y-12964079D01*
X6920182Y-12964079D02*
X6929705Y-13002174D01*
X6929705Y-13002174D02*
X6929705Y-13049793D01*
X6929705Y-13049793D02*
X6920182Y-13087888D01*
X6920182Y-13087888D02*
X6910658Y-13106936D01*
X6910658Y-13106936D02*
X6901134Y-13116460D01*
X6901134Y-13116460D02*
X6882086Y-13125984D01*
X6882086Y-13125984D02*
X6863039Y-13125984D01*
X6863039Y-13125984D02*
X6843991Y-13116460D01*
X6843991Y-13116460D02*
X6834467Y-13106936D01*
X6834467Y-13106936D02*
X6824943Y-13087888D01*
X6824943Y-13087888D02*
X6815420Y-13049793D01*
X6815420Y-13049793D02*
X6815420Y-13002174D01*
X6815420Y-13002174D02*
X6824943Y-12964079D01*
X6824943Y-12964079D02*
X6834467Y-12945031D01*
X6834467Y-12945031D02*
X6843991Y-12935508D01*
X6843991Y-12935508D02*
X6863039Y-12925984D01*
X7015420Y-13125984D02*
X7015420Y-12992650D01*
X7015420Y-13011698D02*
X7024943Y-13002174D01*
X7024943Y-13002174D02*
X7043991Y-12992650D01*
X7043991Y-12992650D02*
X7072563Y-12992650D01*
X7072563Y-12992650D02*
X7091610Y-13002174D01*
X7091610Y-13002174D02*
X7101134Y-13021222D01*
X7101134Y-13021222D02*
X7101134Y-13125984D01*
X7101134Y-13021222D02*
X7110658Y-13002174D01*
X7110658Y-13002174D02*
X7129705Y-12992650D01*
X7129705Y-12992650D02*
X7158277Y-12992650D01*
X7158277Y-12992650D02*
X7177324Y-13002174D01*
X7177324Y-13002174D02*
X7186848Y-13021222D01*
X7186848Y-13021222D02*
X7186848Y-13125984D01*
X7282086Y-13125984D02*
X7282086Y-12992650D01*
X7282086Y-13011698D02*
X7291610Y-13002174D01*
X7291610Y-13002174D02*
X7310658Y-12992650D01*
X7310658Y-12992650D02*
X7339229Y-12992650D01*
X7339229Y-12992650D02*
X7358277Y-13002174D01*
X7358277Y-13002174D02*
X7367801Y-13021222D01*
X7367801Y-13021222D02*
X7367801Y-13125984D01*
X7367801Y-13021222D02*
X7377324Y-13002174D01*
X7377324Y-13002174D02*
X7396372Y-12992650D01*
X7396372Y-12992650D02*
X7424943Y-12992650D01*
X7424943Y-12992650D02*
X7443991Y-13002174D01*
X7443991Y-13002174D02*
X7453515Y-13021222D01*
X7453515Y-13021222D02*
X7453515Y-13125984D01*
X7843991Y-12916460D02*
X7672563Y-13173603D01*
X8101134Y-12925984D02*
X8120182Y-12925984D01*
X8120182Y-12925984D02*
X8139229Y-12935508D01*
X8139229Y-12935508D02*
X8148753Y-12945031D01*
X8148753Y-12945031D02*
X8158277Y-12964079D01*
X8158277Y-12964079D02*
X8167801Y-13002174D01*
X8167801Y-13002174D02*
X8167801Y-13049793D01*
X8167801Y-13049793D02*
X8158277Y-13087888D01*
X8158277Y-13087888D02*
X8148753Y-13106936D01*
X8148753Y-13106936D02*
X8139229Y-13116460D01*
X8139229Y-13116460D02*
X8120182Y-13125984D01*
X8120182Y-13125984D02*
X8101134Y-13125984D01*
X8101134Y-13125984D02*
X8082086Y-13116460D01*
X8082086Y-13116460D02*
X8072563Y-13106936D01*
X8072563Y-13106936D02*
X8063039Y-13087888D01*
X8063039Y-13087888D02*
X8053515Y-13049793D01*
X8053515Y-13049793D02*
X8053515Y-13002174D01*
X8053515Y-13002174D02*
X8063039Y-12964079D01*
X8063039Y-12964079D02*
X8072563Y-12945031D01*
X8072563Y-12945031D02*
X8082086Y-12935508D01*
X8082086Y-12935508D02*
X8101134Y-12925984D01*
X8253515Y-13106936D02*
X8263039Y-13116460D01*
X8263039Y-13116460D02*
X8253515Y-13125984D01*
X8253515Y-13125984D02*
X8243991Y-13116460D01*
X8243991Y-13116460D02*
X8253515Y-13106936D01*
X8253515Y-13106936D02*
X8253515Y-13125984D01*
X8386848Y-12925984D02*
X8405896Y-12925984D01*
X8405896Y-12925984D02*
X8424944Y-12935508D01*
X8424944Y-12935508D02*
X8434468Y-12945031D01*
X8434468Y-12945031D02*
X8443991Y-12964079D01*
X8443991Y-12964079D02*
X8453515Y-13002174D01*
X8453515Y-13002174D02*
X8453515Y-13049793D01*
X8453515Y-13049793D02*
X8443991Y-13087888D01*
X8443991Y-13087888D02*
X8434468Y-13106936D01*
X8434468Y-13106936D02*
X8424944Y-13116460D01*
X8424944Y-13116460D02*
X8405896Y-13125984D01*
X8405896Y-13125984D02*
X8386848Y-13125984D01*
X8386848Y-13125984D02*
X8367801Y-13116460D01*
X8367801Y-13116460D02*
X8358277Y-13106936D01*
X8358277Y-13106936D02*
X8348753Y-13087888D01*
X8348753Y-13087888D02*
X8339229Y-13049793D01*
X8339229Y-13049793D02*
X8339229Y-13002174D01*
X8339229Y-13002174D02*
X8348753Y-12964079D01*
X8348753Y-12964079D02*
X8358277Y-12945031D01*
X8358277Y-12945031D02*
X8367801Y-12935508D01*
X8367801Y-12935508D02*
X8386848Y-12925984D01*
X8520182Y-12925984D02*
X8643991Y-12925984D01*
X8643991Y-12925984D02*
X8577325Y-13002174D01*
X8577325Y-13002174D02*
X8605896Y-13002174D01*
X8605896Y-13002174D02*
X8624944Y-13011698D01*
X8624944Y-13011698D02*
X8634468Y-13021222D01*
X8634468Y-13021222D02*
X8643991Y-13040269D01*
X8643991Y-13040269D02*
X8643991Y-13087888D01*
X8643991Y-13087888D02*
X8634468Y-13106936D01*
X8634468Y-13106936D02*
X8624944Y-13116460D01*
X8624944Y-13116460D02*
X8605896Y-13125984D01*
X8605896Y-13125984D02*
X8548753Y-13125984D01*
X8548753Y-13125984D02*
X8529706Y-13116460D01*
X8529706Y-13116460D02*
X8520182Y-13106936D01*
X8739229Y-13125984D02*
X8777325Y-13125984D01*
X8777325Y-13125984D02*
X8796372Y-13116460D01*
X8796372Y-13116460D02*
X8805896Y-13106936D01*
X8805896Y-13106936D02*
X8824944Y-13078365D01*
X8824944Y-13078365D02*
X8834468Y-13040269D01*
X8834468Y-13040269D02*
X8834468Y-12964079D01*
X8834468Y-12964079D02*
X8824944Y-12945031D01*
X8824944Y-12945031D02*
X8815420Y-12935508D01*
X8815420Y-12935508D02*
X8796372Y-12925984D01*
X8796372Y-12925984D02*
X8758277Y-12925984D01*
X8758277Y-12925984D02*
X8739229Y-12935508D01*
X8739229Y-12935508D02*
X8729706Y-12945031D01*
X8729706Y-12945031D02*
X8720182Y-12964079D01*
X8720182Y-12964079D02*
X8720182Y-13011698D01*
X8720182Y-13011698D02*
X8729706Y-13030746D01*
X8729706Y-13030746D02*
X8739229Y-13040269D01*
X8739229Y-13040269D02*
X8758277Y-13049793D01*
X8758277Y-13049793D02*
X8796372Y-13049793D01*
X8796372Y-13049793D02*
X8815420Y-13040269D01*
X8815420Y-13040269D02*
X8824944Y-13030746D01*
X8824944Y-13030746D02*
X8834468Y-13011698D01*
X9005896Y-12992650D02*
X9005896Y-13125984D01*
X8958277Y-12916460D02*
X8910658Y-13059317D01*
X8910658Y-13059317D02*
X9034468Y-13059317D01*
X9101134Y-12925984D02*
X9101134Y-12964079D01*
X9177325Y-12925984D02*
X9177325Y-12964079D01*
X9472563Y-13202174D02*
X9463039Y-13192650D01*
X9463039Y-13192650D02*
X9443991Y-13164079D01*
X9443991Y-13164079D02*
X9434468Y-13145031D01*
X9434468Y-13145031D02*
X9424944Y-13116460D01*
X9424944Y-13116460D02*
X9415420Y-13068841D01*
X9415420Y-13068841D02*
X9415420Y-13030746D01*
X9415420Y-13030746D02*
X9424944Y-12983127D01*
X9424944Y-12983127D02*
X9434468Y-12954555D01*
X9434468Y-12954555D02*
X9443991Y-12935508D01*
X9443991Y-12935508D02*
X9463039Y-12906936D01*
X9463039Y-12906936D02*
X9472563Y-12897412D01*
X9558277Y-13125984D02*
X9596372Y-13125984D01*
X9596372Y-13125984D02*
X9615420Y-13116460D01*
X9615420Y-13116460D02*
X9624944Y-13106936D01*
X9624944Y-13106936D02*
X9643991Y-13078365D01*
X9643991Y-13078365D02*
X9653515Y-13040269D01*
X9653515Y-13040269D02*
X9653515Y-12964079D01*
X9653515Y-12964079D02*
X9643991Y-12945031D01*
X9643991Y-12945031D02*
X9634468Y-12935508D01*
X9634468Y-12935508D02*
X9615420Y-12925984D01*
X9615420Y-12925984D02*
X9577325Y-12925984D01*
X9577325Y-12925984D02*
X9558277Y-12935508D01*
X9558277Y-12935508D02*
X9548753Y-12945031D01*
X9548753Y-12945031D02*
X9539230Y-12964079D01*
X9539230Y-12964079D02*
X9539230Y-13011698D01*
X9539230Y-13011698D02*
X9548753Y-13030746D01*
X9548753Y-13030746D02*
X9558277Y-13040269D01*
X9558277Y-13040269D02*
X9577325Y-13049793D01*
X9577325Y-13049793D02*
X9615420Y-13049793D01*
X9615420Y-13049793D02*
X9634468Y-13040269D01*
X9634468Y-13040269D02*
X9643991Y-13030746D01*
X9643991Y-13030746D02*
X9653515Y-13011698D01*
X9891611Y-13125984D02*
X9891611Y-12925984D01*
X9977325Y-13125984D02*
X9977325Y-13021222D01*
X9977325Y-13021222D02*
X9967801Y-13002174D01*
X9967801Y-13002174D02*
X9948753Y-12992650D01*
X9948753Y-12992650D02*
X9920182Y-12992650D01*
X9920182Y-12992650D02*
X9901134Y-13002174D01*
X9901134Y-13002174D02*
X9891611Y-13011698D01*
X10101134Y-13125984D02*
X10082087Y-13116460D01*
X10082087Y-13116460D02*
X10072563Y-13106936D01*
X10072563Y-13106936D02*
X10063039Y-13087888D01*
X10063039Y-13087888D02*
X10063039Y-13030746D01*
X10063039Y-13030746D02*
X10072563Y-13011698D01*
X10072563Y-13011698D02*
X10082087Y-13002174D01*
X10082087Y-13002174D02*
X10101134Y-12992650D01*
X10101134Y-12992650D02*
X10129706Y-12992650D01*
X10129706Y-12992650D02*
X10148753Y-13002174D01*
X10148753Y-13002174D02*
X10158277Y-13011698D01*
X10158277Y-13011698D02*
X10167801Y-13030746D01*
X10167801Y-13030746D02*
X10167801Y-13087888D01*
X10167801Y-13087888D02*
X10158277Y-13106936D01*
X10158277Y-13106936D02*
X10148753Y-13116460D01*
X10148753Y-13116460D02*
X10129706Y-13125984D01*
X10129706Y-13125984D02*
X10101134Y-13125984D01*
X10282087Y-13125984D02*
X10263039Y-13116460D01*
X10263039Y-13116460D02*
X10253515Y-13097412D01*
X10253515Y-13097412D02*
X10253515Y-12925984D01*
X10434468Y-13116460D02*
X10415420Y-13125984D01*
X10415420Y-13125984D02*
X10377325Y-13125984D01*
X10377325Y-13125984D02*
X10358277Y-13116460D01*
X10358277Y-13116460D02*
X10348753Y-13097412D01*
X10348753Y-13097412D02*
X10348753Y-13021222D01*
X10348753Y-13021222D02*
X10358277Y-13002174D01*
X10358277Y-13002174D02*
X10377325Y-12992650D01*
X10377325Y-12992650D02*
X10415420Y-12992650D01*
X10415420Y-12992650D02*
X10434468Y-13002174D01*
X10434468Y-13002174D02*
X10443992Y-13021222D01*
X10443992Y-13021222D02*
X10443992Y-13040269D01*
X10443992Y-13040269D02*
X10348753Y-13059317D01*
X10520182Y-13116460D02*
X10539230Y-13125984D01*
X10539230Y-13125984D02*
X10577325Y-13125984D01*
X10577325Y-13125984D02*
X10596373Y-13116460D01*
X10596373Y-13116460D02*
X10605896Y-13097412D01*
X10605896Y-13097412D02*
X10605896Y-13087888D01*
X10605896Y-13087888D02*
X10596373Y-13068841D01*
X10596373Y-13068841D02*
X10577325Y-13059317D01*
X10577325Y-13059317D02*
X10548753Y-13059317D01*
X10548753Y-13059317D02*
X10529706Y-13049793D01*
X10529706Y-13049793D02*
X10520182Y-13030746D01*
X10520182Y-13030746D02*
X10520182Y-13021222D01*
X10520182Y-13021222D02*
X10529706Y-13002174D01*
X10529706Y-13002174D02*
X10548753Y-12992650D01*
X10548753Y-12992650D02*
X10577325Y-12992650D01*
X10577325Y-12992650D02*
X10596373Y-13002174D01*
X10672563Y-13202174D02*
X10682087Y-13192650D01*
X10682087Y-13192650D02*
X10701134Y-13164079D01*
X10701134Y-13164079D02*
X10710658Y-13145031D01*
X10710658Y-13145031D02*
X10720182Y-13116460D01*
X10720182Y-13116460D02*
X10729706Y-13068841D01*
X10729706Y-13068841D02*
X10729706Y-13030746D01*
X10729706Y-13030746D02*
X10720182Y-12983127D01*
X10720182Y-12983127D02*
X10710658Y-12954555D01*
X10710658Y-12954555D02*
X10701134Y-12935508D01*
X10701134Y-12935508D02*
X10682087Y-12906936D01*
X10682087Y-12906936D02*
X10672563Y-12897412D01*
D13*
X5822500Y-13373500D02*
X5897500Y-13298500D01*
X5822500Y-13223500D01*
X5747500Y-13298500D01*
X5822500Y-13373500D01*
D11*
X6263039Y-13389984D02*
X6148753Y-13389984D01*
X6205896Y-13389984D02*
X6205896Y-13189984D01*
X6205896Y-13189984D02*
X6186848Y-13218555D01*
X6186848Y-13218555D02*
X6167801Y-13237603D01*
X6167801Y-13237603D02*
X6148753Y-13247127D01*
X6348753Y-13370936D02*
X6358277Y-13380460D01*
X6358277Y-13380460D02*
X6348753Y-13389984D01*
X6348753Y-13389984D02*
X6339229Y-13380460D01*
X6339229Y-13380460D02*
X6348753Y-13370936D01*
X6348753Y-13370936D02*
X6348753Y-13389984D01*
X6539229Y-13189984D02*
X6443991Y-13189984D01*
X6443991Y-13189984D02*
X6434467Y-13285222D01*
X6434467Y-13285222D02*
X6443991Y-13275698D01*
X6443991Y-13275698D02*
X6463039Y-13266174D01*
X6463039Y-13266174D02*
X6510658Y-13266174D01*
X6510658Y-13266174D02*
X6529705Y-13275698D01*
X6529705Y-13275698D02*
X6539229Y-13285222D01*
X6539229Y-13285222D02*
X6548753Y-13304269D01*
X6548753Y-13304269D02*
X6548753Y-13351888D01*
X6548753Y-13351888D02*
X6539229Y-13370936D01*
X6539229Y-13370936D02*
X6529705Y-13380460D01*
X6529705Y-13380460D02*
X6510658Y-13389984D01*
X6510658Y-13389984D02*
X6463039Y-13389984D01*
X6463039Y-13389984D02*
X6443991Y-13380460D01*
X6443991Y-13380460D02*
X6434467Y-13370936D01*
X6672562Y-13189984D02*
X6691610Y-13189984D01*
X6691610Y-13189984D02*
X6710658Y-13199508D01*
X6710658Y-13199508D02*
X6720182Y-13209031D01*
X6720182Y-13209031D02*
X6729705Y-13228079D01*
X6729705Y-13228079D02*
X6739229Y-13266174D01*
X6739229Y-13266174D02*
X6739229Y-13313793D01*
X6739229Y-13313793D02*
X6729705Y-13351888D01*
X6729705Y-13351888D02*
X6720182Y-13370936D01*
X6720182Y-13370936D02*
X6710658Y-13380460D01*
X6710658Y-13380460D02*
X6691610Y-13389984D01*
X6691610Y-13389984D02*
X6672562Y-13389984D01*
X6672562Y-13389984D02*
X6653515Y-13380460D01*
X6653515Y-13380460D02*
X6643991Y-13370936D01*
X6643991Y-13370936D02*
X6634467Y-13351888D01*
X6634467Y-13351888D02*
X6624943Y-13313793D01*
X6624943Y-13313793D02*
X6624943Y-13266174D01*
X6624943Y-13266174D02*
X6634467Y-13228079D01*
X6634467Y-13228079D02*
X6643991Y-13209031D01*
X6643991Y-13209031D02*
X6653515Y-13199508D01*
X6653515Y-13199508D02*
X6672562Y-13189984D01*
X6863039Y-13189984D02*
X6882086Y-13189984D01*
X6882086Y-13189984D02*
X6901134Y-13199508D01*
X6901134Y-13199508D02*
X6910658Y-13209031D01*
X6910658Y-13209031D02*
X6920182Y-13228079D01*
X6920182Y-13228079D02*
X6929705Y-13266174D01*
X6929705Y-13266174D02*
X6929705Y-13313793D01*
X6929705Y-13313793D02*
X6920182Y-13351888D01*
X6920182Y-13351888D02*
X6910658Y-13370936D01*
X6910658Y-13370936D02*
X6901134Y-13380460D01*
X6901134Y-13380460D02*
X6882086Y-13389984D01*
X6882086Y-13389984D02*
X6863039Y-13389984D01*
X6863039Y-13389984D02*
X6843991Y-13380460D01*
X6843991Y-13380460D02*
X6834467Y-13370936D01*
X6834467Y-13370936D02*
X6824943Y-13351888D01*
X6824943Y-13351888D02*
X6815420Y-13313793D01*
X6815420Y-13313793D02*
X6815420Y-13266174D01*
X6815420Y-13266174D02*
X6824943Y-13228079D01*
X6824943Y-13228079D02*
X6834467Y-13209031D01*
X6834467Y-13209031D02*
X6843991Y-13199508D01*
X6843991Y-13199508D02*
X6863039Y-13189984D01*
X7015420Y-13389984D02*
X7015420Y-13256650D01*
X7015420Y-13275698D02*
X7024943Y-13266174D01*
X7024943Y-13266174D02*
X7043991Y-13256650D01*
X7043991Y-13256650D02*
X7072563Y-13256650D01*
X7072563Y-13256650D02*
X7091610Y-13266174D01*
X7091610Y-13266174D02*
X7101134Y-13285222D01*
X7101134Y-13285222D02*
X7101134Y-13389984D01*
X7101134Y-13285222D02*
X7110658Y-13266174D01*
X7110658Y-13266174D02*
X7129705Y-13256650D01*
X7129705Y-13256650D02*
X7158277Y-13256650D01*
X7158277Y-13256650D02*
X7177324Y-13266174D01*
X7177324Y-13266174D02*
X7186848Y-13285222D01*
X7186848Y-13285222D02*
X7186848Y-13389984D01*
X7282086Y-13389984D02*
X7282086Y-13256650D01*
X7282086Y-13275698D02*
X7291610Y-13266174D01*
X7291610Y-13266174D02*
X7310658Y-13256650D01*
X7310658Y-13256650D02*
X7339229Y-13256650D01*
X7339229Y-13256650D02*
X7358277Y-13266174D01*
X7358277Y-13266174D02*
X7367801Y-13285222D01*
X7367801Y-13285222D02*
X7367801Y-13389984D01*
X7367801Y-13285222D02*
X7377324Y-13266174D01*
X7377324Y-13266174D02*
X7396372Y-13256650D01*
X7396372Y-13256650D02*
X7424943Y-13256650D01*
X7424943Y-13256650D02*
X7443991Y-13266174D01*
X7443991Y-13266174D02*
X7453515Y-13285222D01*
X7453515Y-13285222D02*
X7453515Y-13389984D01*
X7843991Y-13180460D02*
X7672563Y-13437603D01*
X8101134Y-13189984D02*
X8120182Y-13189984D01*
X8120182Y-13189984D02*
X8139229Y-13199508D01*
X8139229Y-13199508D02*
X8148753Y-13209031D01*
X8148753Y-13209031D02*
X8158277Y-13228079D01*
X8158277Y-13228079D02*
X8167801Y-13266174D01*
X8167801Y-13266174D02*
X8167801Y-13313793D01*
X8167801Y-13313793D02*
X8158277Y-13351888D01*
X8158277Y-13351888D02*
X8148753Y-13370936D01*
X8148753Y-13370936D02*
X8139229Y-13380460D01*
X8139229Y-13380460D02*
X8120182Y-13389984D01*
X8120182Y-13389984D02*
X8101134Y-13389984D01*
X8101134Y-13389984D02*
X8082086Y-13380460D01*
X8082086Y-13380460D02*
X8072563Y-13370936D01*
X8072563Y-13370936D02*
X8063039Y-13351888D01*
X8063039Y-13351888D02*
X8053515Y-13313793D01*
X8053515Y-13313793D02*
X8053515Y-13266174D01*
X8053515Y-13266174D02*
X8063039Y-13228079D01*
X8063039Y-13228079D02*
X8072563Y-13209031D01*
X8072563Y-13209031D02*
X8082086Y-13199508D01*
X8082086Y-13199508D02*
X8101134Y-13189984D01*
X8253515Y-13370936D02*
X8263039Y-13380460D01*
X8263039Y-13380460D02*
X8253515Y-13389984D01*
X8253515Y-13389984D02*
X8243991Y-13380460D01*
X8243991Y-13380460D02*
X8253515Y-13370936D01*
X8253515Y-13370936D02*
X8253515Y-13389984D01*
X8386848Y-13189984D02*
X8405896Y-13189984D01*
X8405896Y-13189984D02*
X8424944Y-13199508D01*
X8424944Y-13199508D02*
X8434468Y-13209031D01*
X8434468Y-13209031D02*
X8443991Y-13228079D01*
X8443991Y-13228079D02*
X8453515Y-13266174D01*
X8453515Y-13266174D02*
X8453515Y-13313793D01*
X8453515Y-13313793D02*
X8443991Y-13351888D01*
X8443991Y-13351888D02*
X8434468Y-13370936D01*
X8434468Y-13370936D02*
X8424944Y-13380460D01*
X8424944Y-13380460D02*
X8405896Y-13389984D01*
X8405896Y-13389984D02*
X8386848Y-13389984D01*
X8386848Y-13389984D02*
X8367801Y-13380460D01*
X8367801Y-13380460D02*
X8358277Y-13370936D01*
X8358277Y-13370936D02*
X8348753Y-13351888D01*
X8348753Y-13351888D02*
X8339229Y-13313793D01*
X8339229Y-13313793D02*
X8339229Y-13266174D01*
X8339229Y-13266174D02*
X8348753Y-13228079D01*
X8348753Y-13228079D02*
X8358277Y-13209031D01*
X8358277Y-13209031D02*
X8367801Y-13199508D01*
X8367801Y-13199508D02*
X8386848Y-13189984D01*
X8634468Y-13189984D02*
X8539229Y-13189984D01*
X8539229Y-13189984D02*
X8529706Y-13285222D01*
X8529706Y-13285222D02*
X8539229Y-13275698D01*
X8539229Y-13275698D02*
X8558277Y-13266174D01*
X8558277Y-13266174D02*
X8605896Y-13266174D01*
X8605896Y-13266174D02*
X8624944Y-13275698D01*
X8624944Y-13275698D02*
X8634468Y-13285222D01*
X8634468Y-13285222D02*
X8643991Y-13304269D01*
X8643991Y-13304269D02*
X8643991Y-13351888D01*
X8643991Y-13351888D02*
X8634468Y-13370936D01*
X8634468Y-13370936D02*
X8624944Y-13380460D01*
X8624944Y-13380460D02*
X8605896Y-13389984D01*
X8605896Y-13389984D02*
X8558277Y-13389984D01*
X8558277Y-13389984D02*
X8539229Y-13380460D01*
X8539229Y-13380460D02*
X8529706Y-13370936D01*
X8739229Y-13389984D02*
X8777325Y-13389984D01*
X8777325Y-13389984D02*
X8796372Y-13380460D01*
X8796372Y-13380460D02*
X8805896Y-13370936D01*
X8805896Y-13370936D02*
X8824944Y-13342365D01*
X8824944Y-13342365D02*
X8834468Y-13304269D01*
X8834468Y-13304269D02*
X8834468Y-13228079D01*
X8834468Y-13228079D02*
X8824944Y-13209031D01*
X8824944Y-13209031D02*
X8815420Y-13199508D01*
X8815420Y-13199508D02*
X8796372Y-13189984D01*
X8796372Y-13189984D02*
X8758277Y-13189984D01*
X8758277Y-13189984D02*
X8739229Y-13199508D01*
X8739229Y-13199508D02*
X8729706Y-13209031D01*
X8729706Y-13209031D02*
X8720182Y-13228079D01*
X8720182Y-13228079D02*
X8720182Y-13275698D01*
X8720182Y-13275698D02*
X8729706Y-13294746D01*
X8729706Y-13294746D02*
X8739229Y-13304269D01*
X8739229Y-13304269D02*
X8758277Y-13313793D01*
X8758277Y-13313793D02*
X8796372Y-13313793D01*
X8796372Y-13313793D02*
X8815420Y-13304269D01*
X8815420Y-13304269D02*
X8824944Y-13294746D01*
X8824944Y-13294746D02*
X8834468Y-13275698D01*
X9024944Y-13389984D02*
X8910658Y-13389984D01*
X8967801Y-13389984D02*
X8967801Y-13189984D01*
X8967801Y-13189984D02*
X8948753Y-13218555D01*
X8948753Y-13218555D02*
X8929706Y-13237603D01*
X8929706Y-13237603D02*
X8910658Y-13247127D01*
X9101134Y-13189984D02*
X9101134Y-13228079D01*
X9177325Y-13189984D02*
X9177325Y-13228079D01*
X9472563Y-13466174D02*
X9463039Y-13456650D01*
X9463039Y-13456650D02*
X9443991Y-13428079D01*
X9443991Y-13428079D02*
X9434468Y-13409031D01*
X9434468Y-13409031D02*
X9424944Y-13380460D01*
X9424944Y-13380460D02*
X9415420Y-13332841D01*
X9415420Y-13332841D02*
X9415420Y-13294746D01*
X9415420Y-13294746D02*
X9424944Y-13247127D01*
X9424944Y-13247127D02*
X9434468Y-13218555D01*
X9434468Y-13218555D02*
X9443991Y-13199508D01*
X9443991Y-13199508D02*
X9463039Y-13170936D01*
X9463039Y-13170936D02*
X9472563Y-13161412D01*
X9653515Y-13389984D02*
X9539230Y-13389984D01*
X9596372Y-13389984D02*
X9596372Y-13189984D01*
X9596372Y-13189984D02*
X9577325Y-13218555D01*
X9577325Y-13218555D02*
X9558277Y-13237603D01*
X9558277Y-13237603D02*
X9539230Y-13247127D01*
X9824944Y-13189984D02*
X9786849Y-13189984D01*
X9786849Y-13189984D02*
X9767801Y-13199508D01*
X9767801Y-13199508D02*
X9758277Y-13209031D01*
X9758277Y-13209031D02*
X9739230Y-13237603D01*
X9739230Y-13237603D02*
X9729706Y-13275698D01*
X9729706Y-13275698D02*
X9729706Y-13351888D01*
X9729706Y-13351888D02*
X9739230Y-13370936D01*
X9739230Y-13370936D02*
X9748753Y-13380460D01*
X9748753Y-13380460D02*
X9767801Y-13389984D01*
X9767801Y-13389984D02*
X9805896Y-13389984D01*
X9805896Y-13389984D02*
X9824944Y-13380460D01*
X9824944Y-13380460D02*
X9834468Y-13370936D01*
X9834468Y-13370936D02*
X9843991Y-13351888D01*
X9843991Y-13351888D02*
X9843991Y-13304269D01*
X9843991Y-13304269D02*
X9834468Y-13285222D01*
X9834468Y-13285222D02*
X9824944Y-13275698D01*
X9824944Y-13275698D02*
X9805896Y-13266174D01*
X9805896Y-13266174D02*
X9767801Y-13266174D01*
X9767801Y-13266174D02*
X9748753Y-13275698D01*
X9748753Y-13275698D02*
X9739230Y-13285222D01*
X9739230Y-13285222D02*
X9729706Y-13304269D01*
X10082087Y-13389984D02*
X10082087Y-13189984D01*
X10167801Y-13389984D02*
X10167801Y-13285222D01*
X10167801Y-13285222D02*
X10158277Y-13266174D01*
X10158277Y-13266174D02*
X10139230Y-13256650D01*
X10139230Y-13256650D02*
X10110658Y-13256650D01*
X10110658Y-13256650D02*
X10091611Y-13266174D01*
X10091611Y-13266174D02*
X10082087Y-13275698D01*
X10291611Y-13389984D02*
X10272563Y-13380460D01*
X10272563Y-13380460D02*
X10263039Y-13370936D01*
X10263039Y-13370936D02*
X10253515Y-13351888D01*
X10253515Y-13351888D02*
X10253515Y-13294746D01*
X10253515Y-13294746D02*
X10263039Y-13275698D01*
X10263039Y-13275698D02*
X10272563Y-13266174D01*
X10272563Y-13266174D02*
X10291611Y-13256650D01*
X10291611Y-13256650D02*
X10320182Y-13256650D01*
X10320182Y-13256650D02*
X10339230Y-13266174D01*
X10339230Y-13266174D02*
X10348753Y-13275698D01*
X10348753Y-13275698D02*
X10358277Y-13294746D01*
X10358277Y-13294746D02*
X10358277Y-13351888D01*
X10358277Y-13351888D02*
X10348753Y-13370936D01*
X10348753Y-13370936D02*
X10339230Y-13380460D01*
X10339230Y-13380460D02*
X10320182Y-13389984D01*
X10320182Y-13389984D02*
X10291611Y-13389984D01*
X10472563Y-13389984D02*
X10453515Y-13380460D01*
X10453515Y-13380460D02*
X10443992Y-13361412D01*
X10443992Y-13361412D02*
X10443992Y-13189984D01*
X10624944Y-13380460D02*
X10605896Y-13389984D01*
X10605896Y-13389984D02*
X10567801Y-13389984D01*
X10567801Y-13389984D02*
X10548753Y-13380460D01*
X10548753Y-13380460D02*
X10539230Y-13361412D01*
X10539230Y-13361412D02*
X10539230Y-13285222D01*
X10539230Y-13285222D02*
X10548753Y-13266174D01*
X10548753Y-13266174D02*
X10567801Y-13256650D01*
X10567801Y-13256650D02*
X10605896Y-13256650D01*
X10605896Y-13256650D02*
X10624944Y-13266174D01*
X10624944Y-13266174D02*
X10634468Y-13285222D01*
X10634468Y-13285222D02*
X10634468Y-13304269D01*
X10634468Y-13304269D02*
X10539230Y-13323317D01*
X10710658Y-13380460D02*
X10729706Y-13389984D01*
X10729706Y-13389984D02*
X10767801Y-13389984D01*
X10767801Y-13389984D02*
X10786849Y-13380460D01*
X10786849Y-13380460D02*
X10796373Y-13361412D01*
X10796373Y-13361412D02*
X10796373Y-13351888D01*
X10796373Y-13351888D02*
X10786849Y-13332841D01*
X10786849Y-13332841D02*
X10767801Y-13323317D01*
X10767801Y-13323317D02*
X10739230Y-13323317D01*
X10739230Y-13323317D02*
X10720182Y-13313793D01*
X10720182Y-13313793D02*
X10710658Y-13294746D01*
X10710658Y-13294746D02*
X10710658Y-13285222D01*
X10710658Y-13285222D02*
X10720182Y-13266174D01*
X10720182Y-13266174D02*
X10739230Y-13256650D01*
X10739230Y-13256650D02*
X10767801Y-13256650D01*
X10767801Y-13256650D02*
X10786849Y-13266174D01*
X11034468Y-13313793D02*
X11186849Y-13313793D01*
X11110658Y-13389984D02*
X11110658Y-13237603D01*
X11424944Y-13209031D02*
X11434468Y-13199508D01*
X11434468Y-13199508D02*
X11453515Y-13189984D01*
X11453515Y-13189984D02*
X11501134Y-13189984D01*
X11501134Y-13189984D02*
X11520182Y-13199508D01*
X11520182Y-13199508D02*
X11529706Y-13209031D01*
X11529706Y-13209031D02*
X11539230Y-13228079D01*
X11539230Y-13228079D02*
X11539230Y-13247127D01*
X11539230Y-13247127D02*
X11529706Y-13275698D01*
X11529706Y-13275698D02*
X11415420Y-13389984D01*
X11415420Y-13389984D02*
X11539230Y-13389984D01*
X11767801Y-13380460D02*
X11786849Y-13389984D01*
X11786849Y-13389984D02*
X11824944Y-13389984D01*
X11824944Y-13389984D02*
X11843992Y-13380460D01*
X11843992Y-13380460D02*
X11853515Y-13361412D01*
X11853515Y-13361412D02*
X11853515Y-13351888D01*
X11853515Y-13351888D02*
X11843992Y-13332841D01*
X11843992Y-13332841D02*
X11824944Y-13323317D01*
X11824944Y-13323317D02*
X11796373Y-13323317D01*
X11796373Y-13323317D02*
X11777325Y-13313793D01*
X11777325Y-13313793D02*
X11767801Y-13294746D01*
X11767801Y-13294746D02*
X11767801Y-13285222D01*
X11767801Y-13285222D02*
X11777325Y-13266174D01*
X11777325Y-13266174D02*
X11796373Y-13256650D01*
X11796373Y-13256650D02*
X11824944Y-13256650D01*
X11824944Y-13256650D02*
X11843992Y-13266174D01*
X11967801Y-13389984D02*
X11948754Y-13380460D01*
X11948754Y-13380460D02*
X11939230Y-13361412D01*
X11939230Y-13361412D02*
X11939230Y-13189984D01*
X12072563Y-13389984D02*
X12053515Y-13380460D01*
X12053515Y-13380460D02*
X12043992Y-13370936D01*
X12043992Y-13370936D02*
X12034468Y-13351888D01*
X12034468Y-13351888D02*
X12034468Y-13294746D01*
X12034468Y-13294746D02*
X12043992Y-13275698D01*
X12043992Y-13275698D02*
X12053515Y-13266174D01*
X12053515Y-13266174D02*
X12072563Y-13256650D01*
X12072563Y-13256650D02*
X12101135Y-13256650D01*
X12101135Y-13256650D02*
X12120182Y-13266174D01*
X12120182Y-13266174D02*
X12129706Y-13275698D01*
X12129706Y-13275698D02*
X12139230Y-13294746D01*
X12139230Y-13294746D02*
X12139230Y-13351888D01*
X12139230Y-13351888D02*
X12129706Y-13370936D01*
X12129706Y-13370936D02*
X12120182Y-13380460D01*
X12120182Y-13380460D02*
X12101135Y-13389984D01*
X12101135Y-13389984D02*
X12072563Y-13389984D01*
X12196373Y-13256650D02*
X12272563Y-13256650D01*
X12224944Y-13189984D02*
X12224944Y-13361412D01*
X12224944Y-13361412D02*
X12234468Y-13380460D01*
X12234468Y-13380460D02*
X12253515Y-13389984D01*
X12253515Y-13389984D02*
X12272563Y-13389984D01*
X12329706Y-13380460D02*
X12348754Y-13389984D01*
X12348754Y-13389984D02*
X12386849Y-13389984D01*
X12386849Y-13389984D02*
X12405896Y-13380460D01*
X12405896Y-13380460D02*
X12415420Y-13361412D01*
X12415420Y-13361412D02*
X12415420Y-13351888D01*
X12415420Y-13351888D02*
X12405896Y-13332841D01*
X12405896Y-13332841D02*
X12386849Y-13323317D01*
X12386849Y-13323317D02*
X12358277Y-13323317D01*
X12358277Y-13323317D02*
X12339230Y-13313793D01*
X12339230Y-13313793D02*
X12329706Y-13294746D01*
X12329706Y-13294746D02*
X12329706Y-13285222D01*
X12329706Y-13285222D02*
X12339230Y-13266174D01*
X12339230Y-13266174D02*
X12358277Y-13256650D01*
X12358277Y-13256650D02*
X12386849Y-13256650D01*
X12386849Y-13256650D02*
X12405896Y-13266174D01*
X12482087Y-13466174D02*
X12491611Y-13456650D01*
X12491611Y-13456650D02*
X12510658Y-13428079D01*
X12510658Y-13428079D02*
X12520182Y-13409031D01*
X12520182Y-13409031D02*
X12529706Y-13380460D01*
X12529706Y-13380460D02*
X12539230Y-13332841D01*
X12539230Y-13332841D02*
X12539230Y-13294746D01*
X12539230Y-13294746D02*
X12529706Y-13247127D01*
X12529706Y-13247127D02*
X12520182Y-13218555D01*
X12520182Y-13218555D02*
X12510658Y-13199508D01*
X12510658Y-13199508D02*
X12491611Y-13170936D01*
X12491611Y-13170936D02*
X12482087Y-13161412D01*
M02*
